<?xml version="1.0" encoding="UTF-8"?>
<svg width="105px" height="30px" viewBox="0 0 105 30" version="1.1" xmlns="http://www.w3.org/2000/svg" xmlns:xlink="http://www.w3.org/1999/xlink">
    <!-- Generator: Sketch 45.1 (43504) - http://www.bohemiancoding.com/sketch -->
    <title>Logo without tagline white</title>
    <desc>Created with Sketch.</desc>
    <defs></defs>
    <g id="Page-1" stroke="none" stroke-width="1" fill="none" fill-rule="evenodd">
        <g id="Logo-without-tagline-white" fill-rule="nonzero">
            <polygon id="Shape" fill="#FFFFFF" points="61.3369128 7.78588235 55.9565436 14.8235294 50.6713087 7.84941176 45.4530201 7.84941176 53.6380872 18.7023529 45.3614094 29.5870588 50.5761745 29.5870588 55.9565436 22.6164706 61.4038591 29.5658824 66.6221477 29.5658824 58.3384228 18.7058824 66.5939597 7.78588235"></polygon>
            <path d="M93.2104027,7.8 L93.2104027,29.5658824 L97.5020134,29.5658824 C97.5020134,29.1141176 97.5020134,28.7223529 97.5020134,28.3270588 C97.5020134,24.6141176 97.5020134,20.9023529 97.5020134,17.1917647 C97.5020134,13.8035294 99.2426174,12.0282353 102.642785,11.9541176 C103.347483,11.9541176 104.073322,11.9541176 104.830872,11.9541176 L104.830872,7.78235294 C102.012081,7.71529412 99.2637584,7.42941176 96.8431208,9.42705882 L96.7197987,7.8 L93.2104027,7.8 Z" id="Shape" fill="#FFFFFF"></path>
            <path d="M85.229698,10.3517647 L85.229698,7.82823529 L88.9540268,7.82823529 L88.9540268,29.5482353 L85.3318792,29.5482353 L85.3318792,26.9294118 C82.1078859,29.6823529 78.6372483,30.6105882 74.7614094,29.5517647 C72.1689159,28.8564581 69.9203184,27.2343452 68.4402685,24.9917647 C65.4060385,20.5029524 65.9985182,14.4851105 69.8496644,10.6764706 C73.1511745,7.35882353 79.5463087,5.58 85.229698,10.3517647 Z M77.8021812,25.5282353 C80.2844635,25.5846546 82.6026755,24.2904107 83.8603613,22.1459895 C85.1180472,20.0015683 85.1180472,17.3431376 83.8603613,15.1987164 C82.6026755,13.0542952 80.2844635,11.7600513 77.8021812,11.8164706 C74.0826329,11.9010115 71.1113439,14.9455943 71.1113439,18.6723529 C71.1113439,22.3991116 74.0826329,25.4436944 77.8021812,25.5282353 Z" id="Shape" fill="#FFFFFF"></path>
            <path d="M34.463255,25.62 C31.679698,25.2317647 29.047651,22.7964706 28.8256711,20.0752941 L46.3197987,20.0752941 C46.1189597,18.6635294 46.0238255,17.4105882 45.7454698,16.1929412 C44.4100671,10.3341176 39.6075503,6.89647059 33.6986577,7.51058824 C28.2724832,8.07529412 24.2134228,12.5682353 24.0830537,18.1658824 C23.9437953,23.0900018 26.9503361,27.5563005 31.5598993,29.2729412 C35.9959732,30.9105882 41.834396,29.4423529 44.6637584,25.9305882 L42.1268456,22.8494118 C39.914094,24.7941176 37.454698,26.04 34.463255,25.62 Z M34.6077181,11.2623529 C37.9761745,11.0823529 40.9887584,13.3976471 41.3446309,16.5035294 L28.8503356,16.5035294 C28.8926174,13.8917647 31.6162752,11.4247059 34.6041946,11.2623529 L34.6077181,11.2623529 Z" id="Shape" fill="#FFFFFF"></path>
            <path d="M10.7572148,4.51058824 C13.6117194,4.50740123 16.3770502,5.50649173 18.5723154,7.33411765 L21.510906,4.39058824 C15.3479736,-0.993627073 6.16293249,-0.993627073 0,4.39058824 L2.9385906,7.33411765 C5.1347863,5.505715 7.90149999,4.50657534 10.7572148,4.51058824 Z" id="Shape" fill="#FBB040"></path>
            <path d="M10.7572148,11.6047059 C11.7328826,11.6050029 12.6884048,11.8828394 13.5125839,12.4058824 L16.4828859,9.43058824 C13.1211503,6.78931629 8.39327923,6.78931629 5.03154362,9.43058824 L8.00184564,12.4058824 C8.82594427,11.8826608 9.78151938,11.604809 10.7572148,11.6047059 Z" id="Shape" fill="#FBB040"></path>
            <path d="M15.390604,14.4705882 C15.7533037,15.1896309 15.9427632,15.9837972 15.9437919,16.7894118 L15.9437919,29.6117647 L20.0838926,29.6117647 L20.0838926,16.8 C20.0847384,14.8876669 19.4965834,13.0216349 18.3996644,11.4564706 L15.390604,14.4705882 Z" id="Shape" fill="#FFFFFF"></path>
            <path d="M1.40939597,16.8 L1.40939597,29.5870588 L5.56711409,29.5870588 L5.56711409,16.8 C5.5664878,15.9908071 5.75599239,15.1928247 6.12030201,14.4705882 L3.10419463,11.46 C2.00421491,13.0229345 1.41237021,14.8877287 1.40939597,16.8 Z" id="Shape" fill="#FFFFFF"></path>
            <path d="M11.1201342,14.7988235 C10.879451,14.7500534 10.631455,14.7500534 10.3907718,14.7988235 C9.41703281,14.9666176 8.70399667,15.8103071 8.69949664,16.8 C8.70269237,16.8994759 8.71329226,16.9985745 8.73120805,17.0964706 C8.86471101,17.9786073 9.55592056,18.6709786 10.4365772,18.8047059 C10.541309,18.823448 10.6473283,18.8340678 10.7536913,18.8364706 C10.8587951,18.8352357 10.963643,18.8257953 11.0672819,18.8082353 C11.4067647,18.7550494 11.7276703,18.6179804 12.0010067,18.4094118 C12.3293677,18.162575 12.575118,17.8216388 12.7057047,17.4317647 C12.7431541,17.3165394 12.7714305,17.1985231 12.7902685,17.0788235 C12.8077908,16.982133 12.8172196,16.8841452 12.8184564,16.7858824 C12.8065629,15.7992892 12.0914747,14.9626268 11.1201342,14.7988235 L11.1201342,14.7988235 Z" id="Shape" fill="#FBB040"></path>
        </g>
    </g>
</svg>