<svg xmlns="http://www.w3.org/2000/svg" width="25" height="25" viewBox="0 0 25 25">
    <g fill="none" fill-rule="evenodd">
        <path fill="#FBB040" stroke="#FFF" d="M20.865 20.383l-2.902.026-1.06 2.709-2.662-1.16L12.174 24l-1.96-2.146-2.717 1.023-.922-2.76-2.897-.173.279-2.898-2.577-1.34 1.43-2.533L1 10.898l2.333-1.73-.73-2.818 2.833-.63.475-2.87 2.844.58L10.353 1l2.363 1.69 2.446-1.567 1.473 2.508 2.87-.434.327 2.892 2.8.773-.875 2.776L24 11.486l-1.924 2.18 1.3 2.603-2.642 1.207z"/>
        <path fill="#FFF" stroke="#FFF" d="M20.167 12.5A7.667 7.667 0 1 1 12.5 4.833a7.666 7.666 0 0 1 7.666 7.667z"/>
        <text fill="#FBB040" font-family="Montserrat-Bold, Montserrat" font-size="12" font-weight="bold" transform="translate(1 1)">
            <tspan x="9.411" y="15.733">1</tspan>
        </text>
    </g>
</svg>
