<?xml version="1.0" encoding="UTF-8"?>
<svg width="22px" height="30px" viewBox="0 0 22 30" version="1.1" xmlns="http://www.w3.org/2000/svg" xmlns:xlink="http://www.w3.org/1999/xlink">
    <!-- Generator: Sketch 45.2 (43514) - http://www.bohemiancoding.com/sketch -->
    <title>N</title>
    <desc>Created with Sketch.</desc>
    <defs></defs>
    <g id="Symbols" stroke="none" stroke-width="1" fill="none" fill-rule="evenodd">
        <g id="N" fill-rule="nonzero">
            <path d="M10.7572148,4.51058824 C13.6117194,4.50740123 16.3770502,5.50649173 18.5723154,7.33411765 L21.510906,4.39058824 C15.3479736,-0.993627073 6.16293249,-0.993627073 0,4.39058824 L2.9385906,7.33411765 C5.1347863,5.505715 7.90149999,4.50657534 10.7572148,4.51058824 Z" id="Shape" fill="#FBB040"></path>
            <path d="M10.7572148,11.6047059 C11.7328826,11.6050029 12.6884048,11.8828394 13.5125839,12.4058824 L16.4828859,9.43058824 C13.1211503,6.78931629 8.39327923,6.78931629 5.03154362,9.43058824 L8.00184564,12.4058824 C8.82594427,11.8826608 9.78151938,11.604809 10.7572148,11.6047059 Z" id="Shape" fill="#FBB040"></path>
            <path d="M15.390604,14.4705882 C15.7533037,15.1896309 15.9427632,15.9837972 15.9437919,16.7894118 L15.9437919,29.6117647 L20.0838926,29.6117647 L20.0838926,16.8 C20.0847384,14.8876669 19.4965834,13.0216349 18.3996644,11.4564706 L15.390604,14.4705882 Z" id="Shape" fill="#FFFFFF"></path>
            <path d="M1.40939597,16.8 L1.40939597,29.5870588 L5.56711409,29.5870588 L5.56711409,16.8 C5.5664878,15.9908071 5.75599239,15.1928247 6.12030201,14.4705882 L3.10419463,11.46 C2.00421491,13.0229345 1.41237021,14.8877287 1.40939597,16.8 Z" id="Shape" fill="#FFFFFF"></path>
            <path d="M11.1201342,14.7988235 C10.879451,14.7500534 10.631455,14.7500534 10.3907718,14.7988235 C9.41703281,14.9666176 8.70399667,15.8103071 8.69949664,16.8 C8.70269237,16.8994759 8.71329226,16.9985745 8.73120805,17.0964706 C8.86471101,17.9786073 9.55592056,18.6709786 10.4365772,18.8047059 C10.541309,18.823448 10.6473283,18.8340678 10.7536913,18.8364706 C10.8587951,18.8352357 10.963643,18.8257953 11.0672819,18.8082353 C11.4067647,18.7550494 11.7276703,18.6179804 12.0010067,18.4094118 C12.3293677,18.162575 12.575118,17.8216388 12.7057047,17.4317647 C12.7431541,17.3165394 12.7714305,17.1985231 12.7902685,17.0788235 C12.8077908,16.982133 12.8172196,16.8841452 12.8184564,16.7858824 C12.8065629,15.7992892 12.0914747,14.9626268 11.1201342,14.7988235 L11.1201342,14.7988235 Z" id="Shape" fill="#FBB040"></path>
        </g>
    </g>
</svg>