<?xml version="1.0" encoding="UTF-8"?>
<svg width="77px" height="86px" viewBox="0 0 77 86" version="1.1" xmlns="http://www.w3.org/2000/svg" xmlns:xlink="http://www.w3.org/1999/xlink">
    <!-- Generator: Sketch 43.1 (39012) - http://www.bohemiancoding.com/sketch -->
    <title>Group 11 Copy 2</title>
    <desc>Created with Sketch.</desc>
    <defs>
        <rect id="path-1" x="0" y="0" width="76" height="76"></rect>
        <rect id="path-3" x="0" y="0" width="76" height="76"></rect>
    </defs>
    <g id="Welcome" stroke="none" stroke-width="1" fill="none" fill-rule="evenodd">
        <g id="Desktop-HD" transform="translate(-285.000000, -1263.000000)">
            <g id="Group-11" transform="translate(285.000000, 1258.000000)">
                <g id="111-copy-3" transform="translate(39.500000, 85.500000) rotate(-90.000000) translate(-39.500000, -85.500000) translate(36.000000, 49.000000)" stroke-width="3" stroke="#221E22">
                    <polyline id="Path-2" points="0.142811975 34.9100324 0.142811975 18 6.9474405 18"></polyline>
                    <polyline id="Path-2-Copy-4" points="0.142811975 16.9100324 0.142811975 0 6.9474405 0"></polyline>
                    <polyline id="Path-2-Copy" points="0.142811975 52.9100324 0.142811975 36 6.9474405 36"></polyline>
                    <polyline id="Path-2-Copy-2" points="0.142811975 72.9100324 0.142811975 54 6.9474405 54"></polyline>
                    <path d="M0.142811975,72 L6.9474405,72" id="Path-2-Copy-3"></path>
                </g>
                <g id="Group-6">
                    <mask id="mask-2" fill="white">
                        <use xlink:href="#path-1"></use>
                    </mask>
                    <g id="Rectangle-2"></g>
                    <g id="Group-7" mask="url(#mask-2)">
                        <g transform="translate(42.000000, 37.500000) rotate(60.000000) translate(-42.000000, -37.500000) translate(28.000000, -22.000000)">
                            <g id="noun_693946" transform="translate(14.000000, 91.500000) rotate(-90.000000) translate(-14.000000, -91.500000) translate(-13.000000, 78.000000)">
                                <path d="M53.6317827,13.4822508 L53.6317827,13.4822508 C53.5739898,11.1375115 53.1116469,9.49619403 52.4181324,8.03073199 C48.1414601,6.50665147 49.9908319,4.63086005 49.9908319,4.57224157 C48.8349745,3.39987194 47.5057385,2.63783168 46.407674,2.28612079 C43.4602377,1.2896066 38.6634295,2.52059471 38.6634295,2.52059471 L32.8263497,2.52059471 C32.8263497,2.52059471 32.7685569,1.87579141 32.1328353,0.879277225 C31.4971138,-0.117236963 30.2256706,0.410329372 30.2256706,0.410329372 L30.7458065,2.40335775 C30.7458065,2.40335775 22.4236333,2.46197623 16.0664177,1.87579141 C9.70920204,1.2896066 4.97018676,2.98954257 3.12081494,3.39987194 C1.27144312,3.81020131 1.15585739,4.57224157 0.635721562,7.32731021 C0.231171477,9.613431 0.173378608,12.6029736 0.173378608,13.4822508 C0.173378608,14.361528 0.173378608,17.3510706 0.577928693,19.6371914 C1.04027165,22.39226 1.21365025,23.1543003 3.06302207,23.5646296 C4.91239389,24.0335775 9.65140917,25.7335135 16.0086248,25.1473286 C22.3658404,24.5611438 30.6880136,24.6783808 30.6880136,24.6783808 L30.1678778,26.6714092 C30.1678778,26.6714092 31.4393209,27.257594 32.0750424,26.2610798 C32.710764,25.2645656 32.7685569,24.6197623 32.7685569,24.6197623 L38.6056367,24.6197623 C38.6056367,24.6197623 43.344652,25.9093689 46.3498812,24.8542362 C47.4479457,24.5025253 48.7193888,23.7404851 49.8752462,22.6853524 C49.5862818,22.275023 48.6615959,20.7509425 52.2447538,19.4613359 C52.9960611,17.9372554 53.5161969,16.2959379 53.5739898,13.9511986 L53.5739898,13.9511986 L53.5739898,13.6581062 C53.6317827,13.6581062 53.6317827,13.4822508 53.6317827,13.4822508 Z M32.0750424,3.81020131 C32.0750424,3.81020131 30.3412564,6.15494058 22.3080475,6.0963221 C14.2748387,6.0963221 11.6163667,3.75158283 11.6163667,3.75158283 L32.0750424,3.81020131 Z M10.7494737,19.7544283 C10.0559593,19.6958098 8.14879457,19.5199544 6.81955857,19.226862 C5.49032258,18.9337696 4.21887946,15.8269901 4.16108659,13.4822508 L4.16108659,13.4822508 L4.16108659,13.1891584 C4.16108659,13.1891584 4.16108659,13.4822508 4.16108659,12.896066 L4.16108659,12.896066 C4.21887946,10.5513267 5.49032258,7.50316566 6.81955857,7.21007325 C8.20658744,6.91698084 10.1137521,6.74112539 10.8072666,6.68250691 C11.500781,6.62388843 12.7144312,6.74112539 12.7144312,8.3238244 L12.7144312,13.0719214 L12.7144312,13.4236323 L12.7144312,18.1131108 C12.7144312,19.7544283 11.4429881,19.8130468 10.7494737,19.7544283 Z M11.5585739,23.2129187 C11.5585739,23.2129187 14.2170458,20.8681795 22.2502547,20.926798 C30.2834635,20.926798 32.0172496,23.2715372 32.0172496,23.2715372 L11.5585739,23.2129187 Z M40.1082513,13.4822508 C40.1082513,18.8751511 38.027708,21.1026534 36.7562649,21.8060752 C35.4848217,22.5681154 32.0750424,21.5716013 30.9769779,21.2785089 C29.9367063,21.0440349 29.5321562,19.8130468 29.5321562,18.7579141 L29.5321562,13.8339617 L29.5321562,13.0133029 L29.5321562,8.08935047 C29.5321562,7.0342178 29.8789134,5.80322969 30.9769779,5.56875576 C32.0172496,5.33428183 35.4270289,4.33776764 36.7562649,5.09980791 C38.0855008,5.86184817 40.1082513,8.08935047 40.1082513,13.4822508 L39.9348727,13.4822508 L40.1082513,13.4822508 Z" id="Shape" fill="#000000" fill-rule="nonzero"></path>
                            </g>
                            <g id="noun_693946-copy" transform="translate(14.500000, 27.500000) rotate(-90.000000) translate(-14.500000, -27.500000) translate(-13.000000, 14.000000)">
                                <path d="M54.6249638,13.4822508 L54.6249638,13.4822508 C54.5661007,11.1375115 54.0951959,9.49619403 53.3888386,8.03073199 C49.0329686,6.50665147 50.9165881,4.63086005 50.9165881,4.57224157 C49.7393259,3.39987194 48.3854744,2.63783168 47.2670754,2.28612079 C44.2650569,1.2896066 39.379419,2.52059471 39.379419,2.52059471 L33.4342451,2.52059471 C33.4342451,2.52059471 33.375382,1.87579141 32.7278878,0.879277225 C32.0803936,-0.117236963 30.7854053,0.410329372 30.7854053,0.410329372 L31.3151732,2.40335775 C31.3151732,2.40335775 22.8388857,2.46197623 16.3639439,1.87579141 C9.88900208,1.2896066 5.06222725,2.98954257 3.17860781,3.39987194 C1.29498837,3.81020131 1.17726215,4.57224157 0.647494183,7.32731021 C0.23545243,9.613431 0.176589323,12.6029736 0.176589323,13.4822508 C0.176589323,14.361528 0.176589323,17.3510706 0.588631076,19.6371914 C1.05953594,22.39226 1.23612526,23.1543003 3.1197447,23.5646296 C5.00336415,24.0335775 9.83013897,25.7335135 16.3050808,25.1473286 C22.7800226,24.5611438 31.2563101,24.6783808 31.2563101,24.6783808 L30.7265422,26.6714092 C30.7265422,26.6714092 32.0215305,27.257594 32.6690247,26.2610798 C33.3165189,25.2645656 33.375382,24.6197623 33.375382,24.6197623 L39.3205559,24.6197623 C39.3205559,24.6197623 44.1473307,25.9093689 47.2082123,24.8542362 C48.3266113,24.5025253 49.6215997,23.7404851 50.7988618,22.6853524 C50.5045463,22.275023 49.5627366,20.7509425 53.2122493,19.4613359 C53.9774697,17.9372554 54.5072376,16.2959379 54.5661007,13.9511986 L54.5661007,13.9511986 L54.5661007,13.6581062 C54.6249638,13.6581062 54.6249638,13.4822508 54.6249638,13.4822508 Z M32.6690247,3.81020131 C32.6690247,3.81020131 30.9031315,6.15494058 22.7211595,6.0963221 C14.5391876,6.0963221 11.8314846,3.75158283 11.8314846,3.75158283 L32.6690247,3.81020131 Z M10.948538,19.7544283 C10.2421807,19.6958098 8.29969817,19.5199544 6.9458467,19.226862 C5.59199522,18.9337696 4.29700685,15.8269901 4.23814375,13.4822508 L4.23814375,13.4822508 L4.23814375,13.1891584 C4.23814375,13.1891584 4.23814375,13.4822508 4.23814375,12.896066 L4.23814375,12.896066 C4.29700685,10.5513267 5.59199522,7.50316566 6.9458467,7.21007325 C8.35856128,6.91698084 10.3010438,6.74112539 11.0074011,6.68250691 C11.7137584,6.62388843 12.9498837,6.74112539 12.9498837,8.3238244 L12.9498837,13.0719214 L12.9498837,13.4236323 L12.9498837,18.1131108 C12.9498837,19.7544283 11.6548953,19.8130468 10.948538,19.7544283 Z M11.7726215,23.2129187 C11.7726215,23.2129187 14.4803245,20.8681795 22.6622964,20.926798 C30.8442684,20.926798 32.6101616,23.2715372 32.6101616,23.2715372 L11.7726215,23.2129187 Z M40.8509967,13.4822508 C40.8509967,18.8751511 38.7319248,21.1026534 37.4369364,21.8060752 C36.1419481,22.5681154 32.6690247,21.5716013 31.5506257,21.2785089 C30.4910897,21.0440349 30.079048,19.8130468 30.079048,18.7579141 L30.079048,13.8339617 L30.079048,13.0133029 L30.079048,8.08935047 C30.079048,7.0342178 30.4322266,5.80322969 31.5506257,5.56875576 C32.6101616,5.33428183 36.083085,4.33776764 37.4369364,5.09980791 C38.7907879,5.86184817 40.8509967,8.08935047 40.8509967,13.4822508 L40.6744073,13.4822508 L40.8509967,13.4822508 Z" id="Shape" fill="#000000" fill-rule="nonzero"></path>
                            </g>
                        </g>
                    </g>
                </g>
            </g>
            <g id="Group-11-Copy-2" transform="translate(285.000000, 1258.000000)">
                <g id="111-copy-3" transform="translate(39.500000, 85.500000) rotate(-90.000000) translate(-39.500000, -85.500000) translate(36.000000, 49.000000)" stroke-width="3" stroke="#221E22">
                    <polyline id="Path-2" points="0.142811975 34.9100324 0.142811975 18 6.9474405 18"></polyline>
                    <polyline id="Path-2-Copy-4" points="0.142811975 16.9100324 0.142811975 0 6.9474405 0"></polyline>
                    <polyline id="Path-2-Copy" points="0.142811975 52.9100324 0.142811975 36 6.9474405 36"></polyline>
                    <polyline id="Path-2-Copy-2" points="0.142811975 72.9100324 0.142811975 54 6.9474405 54"></polyline>
                    <path d="M0.142811975,72 L6.9474405,72" id="Path-2-Copy-3"></path>
                </g>
                <g id="Group-6">
                    <mask id="mask-4" fill="white">
                        <use xlink:href="#path-3"></use>
                    </mask>
                    <g id="Rectangle-2"></g>
                    <g id="Group-7" mask="url(#mask-4)">
                        <g transform="translate(42.000000, 37.500000) rotate(60.000000) translate(-42.000000, -37.500000) translate(28.000000, -22.000000)">
                            <g id="noun_693946" transform="translate(14.000000, 91.500000) rotate(-90.000000) translate(-14.000000, -91.500000) translate(-13.000000, 78.000000)">
                                <path d="M53.6317827,13.4822508 L53.6317827,13.4822508 C53.5739898,11.1375115 53.1116469,9.49619403 52.4181324,8.03073199 C48.1414601,6.50665147 49.9908319,4.63086005 49.9908319,4.57224157 C48.8349745,3.39987194 47.5057385,2.63783168 46.407674,2.28612079 C43.4602377,1.2896066 38.6634295,2.52059471 38.6634295,2.52059471 L32.8263497,2.52059471 C32.8263497,2.52059471 32.7685569,1.87579141 32.1328353,0.879277225 C31.4971138,-0.117236963 30.2256706,0.410329372 30.2256706,0.410329372 L30.7458065,2.40335775 C30.7458065,2.40335775 22.4236333,2.46197623 16.0664177,1.87579141 C9.70920204,1.2896066 4.97018676,2.98954257 3.12081494,3.39987194 C1.27144312,3.81020131 1.15585739,4.57224157 0.635721562,7.32731021 C0.231171477,9.613431 0.173378608,12.6029736 0.173378608,13.4822508 C0.173378608,14.361528 0.173378608,17.3510706 0.577928693,19.6371914 C1.04027165,22.39226 1.21365025,23.1543003 3.06302207,23.5646296 C4.91239389,24.0335775 9.65140917,25.7335135 16.0086248,25.1473286 C22.3658404,24.5611438 30.6880136,24.6783808 30.6880136,24.6783808 L30.1678778,26.6714092 C30.1678778,26.6714092 31.4393209,27.257594 32.0750424,26.2610798 C32.710764,25.2645656 32.7685569,24.6197623 32.7685569,24.6197623 L38.6056367,24.6197623 C38.6056367,24.6197623 43.344652,25.9093689 46.3498812,24.8542362 C47.4479457,24.5025253 48.7193888,23.7404851 49.8752462,22.6853524 C49.5862818,22.275023 48.6615959,20.7509425 52.2447538,19.4613359 C52.9960611,17.9372554 53.5161969,16.2959379 53.5739898,13.9511986 L53.5739898,13.9511986 L53.5739898,13.6581062 C53.6317827,13.6581062 53.6317827,13.4822508 53.6317827,13.4822508 Z M32.0750424,3.81020131 C32.0750424,3.81020131 30.3412564,6.15494058 22.3080475,6.0963221 C14.2748387,6.0963221 11.6163667,3.75158283 11.6163667,3.75158283 L32.0750424,3.81020131 Z M10.7494737,19.7544283 C10.0559593,19.6958098 8.14879457,19.5199544 6.81955857,19.226862 C5.49032258,18.9337696 4.21887946,15.8269901 4.16108659,13.4822508 L4.16108659,13.4822508 L4.16108659,13.1891584 C4.16108659,13.1891584 4.16108659,13.4822508 4.16108659,12.896066 L4.16108659,12.896066 C4.21887946,10.5513267 5.49032258,7.50316566 6.81955857,7.21007325 C8.20658744,6.91698084 10.1137521,6.74112539 10.8072666,6.68250691 C11.500781,6.62388843 12.7144312,6.74112539 12.7144312,8.3238244 L12.7144312,13.0719214 L12.7144312,13.4236323 L12.7144312,18.1131108 C12.7144312,19.7544283 11.4429881,19.8130468 10.7494737,19.7544283 Z M11.5585739,23.2129187 C11.5585739,23.2129187 14.2170458,20.8681795 22.2502547,20.926798 C30.2834635,20.926798 32.0172496,23.2715372 32.0172496,23.2715372 L11.5585739,23.2129187 Z M40.1082513,13.4822508 C40.1082513,18.8751511 38.027708,21.1026534 36.7562649,21.8060752 C35.4848217,22.5681154 32.0750424,21.5716013 30.9769779,21.2785089 C29.9367063,21.0440349 29.5321562,19.8130468 29.5321562,18.7579141 L29.5321562,13.8339617 L29.5321562,13.0133029 L29.5321562,8.08935047 C29.5321562,7.0342178 29.8789134,5.80322969 30.9769779,5.56875576 C32.0172496,5.33428183 35.4270289,4.33776764 36.7562649,5.09980791 C38.0855008,5.86184817 40.1082513,8.08935047 40.1082513,13.4822508 L39.9348727,13.4822508 L40.1082513,13.4822508 Z" id="Shape" fill="#000000" fill-rule="nonzero"></path>
                            </g>
                            <g id="noun_693946-copy" transform="translate(14.500000, 27.500000) rotate(-90.000000) translate(-14.500000, -27.500000) translate(-13.000000, 14.000000)">
                                <path d="M54.6249638,13.4822508 L54.6249638,13.4822508 C54.5661007,11.1375115 54.0951959,9.49619403 53.3888386,8.03073199 C49.0329686,6.50665147 50.9165881,4.63086005 50.9165881,4.57224157 C49.7393259,3.39987194 48.3854744,2.63783168 47.2670754,2.28612079 C44.2650569,1.2896066 39.379419,2.52059471 39.379419,2.52059471 L33.4342451,2.52059471 C33.4342451,2.52059471 33.375382,1.87579141 32.7278878,0.879277225 C32.0803936,-0.117236963 30.7854053,0.410329372 30.7854053,0.410329372 L31.3151732,2.40335775 C31.3151732,2.40335775 22.8388857,2.46197623 16.3639439,1.87579141 C9.88900208,1.2896066 5.06222725,2.98954257 3.17860781,3.39987194 C1.29498837,3.81020131 1.17726215,4.57224157 0.647494183,7.32731021 C0.23545243,9.613431 0.176589323,12.6029736 0.176589323,13.4822508 C0.176589323,14.361528 0.176589323,17.3510706 0.588631076,19.6371914 C1.05953594,22.39226 1.23612526,23.1543003 3.1197447,23.5646296 C5.00336415,24.0335775 9.83013897,25.7335135 16.3050808,25.1473286 C22.7800226,24.5611438 31.2563101,24.6783808 31.2563101,24.6783808 L30.7265422,26.6714092 C30.7265422,26.6714092 32.0215305,27.257594 32.6690247,26.2610798 C33.3165189,25.2645656 33.375382,24.6197623 33.375382,24.6197623 L39.3205559,24.6197623 C39.3205559,24.6197623 44.1473307,25.9093689 47.2082123,24.8542362 C48.3266113,24.5025253 49.6215997,23.7404851 50.7988618,22.6853524 C50.5045463,22.275023 49.5627366,20.7509425 53.2122493,19.4613359 C53.9774697,17.9372554 54.5072376,16.2959379 54.5661007,13.9511986 L54.5661007,13.9511986 L54.5661007,13.6581062 C54.6249638,13.6581062 54.6249638,13.4822508 54.6249638,13.4822508 Z M32.6690247,3.81020131 C32.6690247,3.81020131 30.9031315,6.15494058 22.7211595,6.0963221 C14.5391876,6.0963221 11.8314846,3.75158283 11.8314846,3.75158283 L32.6690247,3.81020131 Z M10.948538,19.7544283 C10.2421807,19.6958098 8.29969817,19.5199544 6.9458467,19.226862 C5.59199522,18.9337696 4.29700685,15.8269901 4.23814375,13.4822508 L4.23814375,13.4822508 L4.23814375,13.1891584 C4.23814375,13.1891584 4.23814375,13.4822508 4.23814375,12.896066 L4.23814375,12.896066 C4.29700685,10.5513267 5.59199522,7.50316566 6.9458467,7.21007325 C8.35856128,6.91698084 10.3010438,6.74112539 11.0074011,6.68250691 C11.7137584,6.62388843 12.9498837,6.74112539 12.9498837,8.3238244 L12.9498837,13.0719214 L12.9498837,13.4236323 L12.9498837,18.1131108 C12.9498837,19.7544283 11.6548953,19.8130468 10.948538,19.7544283 Z M11.7726215,23.2129187 C11.7726215,23.2129187 14.4803245,20.8681795 22.6622964,20.926798 C30.8442684,20.926798 32.6101616,23.2715372 32.6101616,23.2715372 L11.7726215,23.2129187 Z M40.8509967,13.4822508 C40.8509967,18.8751511 38.7319248,21.1026534 37.4369364,21.8060752 C36.1419481,22.5681154 32.6690247,21.5716013 31.5506257,21.2785089 C30.4910897,21.0440349 30.079048,19.8130468 30.079048,18.7579141 L30.079048,13.8339617 L30.079048,13.0133029 L30.079048,8.08935047 C30.079048,7.0342178 30.4322266,5.80322969 31.5506257,5.56875576 C32.6101616,5.33428183 36.083085,4.33776764 37.4369364,5.09980791 C38.7907879,5.86184817 40.8509967,8.08935047 40.8509967,13.4822508 L40.6744073,13.4822508 L40.8509967,13.4822508 Z" id="Shape" fill="#000000" fill-rule="nonzero"></path>
                            </g>
                        </g>
                    </g>
                </g>
            </g>
        </g>
    </g>
</svg>