<?xml version="1.0" encoding="UTF-8"?>
<svg width="81px" height="74px" viewBox="0 0 81 74" version="1.1" xmlns="http://www.w3.org/2000/svg" xmlns:xlink="http://www.w3.org/1999/xlink">
    <!-- Generator: Sketch 43.1 (39012) - http://www.bohemiancoding.com/sketch -->
    <title>111</title>
    <desc>Created with Sketch.</desc>
    <defs></defs>
    <g id="Welcome" stroke="none" stroke-width="1" fill="none" fill-rule="evenodd">
        <g id="Desktop-HD" transform="translate(-282.000000, -1030.000000)" stroke="#221E22" stroke-width="3">
            <g id="Group-2" transform="translate(282.000000, 1022.000000)">
                <g id="111" transform="translate(2.000000, 10.000000)">
                    <ellipse id="Oval-2" cx="39.2479126" cy="34.2172038" rx="7.79291287" ry="7.71746323"></ellipse>
                    <path d="M38.5553322,49.8138072 C55.0536421,49.8138072 68.4281649,34.3788808 68.4281649,34.3788808 C68.4281649,34.3788808 55.0536421,18.9439543 38.5553322,18.9439543 C22.0570223,18.9439543 8.68249953,34.3788808 8.68249953,34.3788808 C8.68249953,34.3788808 22.0570223,49.8138072 38.5553322,49.8138072 Z" id="Oval-3"></path>
                    <polyline id="Path-2" points="0.142811975 16.9100324 0.142811975 0 16.9474405 0"></polyline>
                    <polyline id="Path-2" transform="translate(68.322939, 8.455016) rotate(-270.000000) translate(-68.322939, -8.455016) " points="59.9206249 16.9100324 59.9206249 -1.42108547e-14 76.7252534 -1.42108547e-14"></polyline>
                    <polyline id="Path-2" transform="translate(8.545126, 61.454497) rotate(-90.000000) translate(-8.545126, -61.454497) " points="0.142811975 69.9095134 0.142811975 52.9994811 16.9474405 52.9994811"></polyline>
                    <polyline id="Path-2" transform="translate(68.322939, 61.454497) rotate(-180.000000) translate(-68.322939, -61.454497) " points="59.9206249 69.9095134 59.9206249 52.9994811 76.7252534 52.9994811"></polyline>
                </g>
            </g>
        </g>
    </g>
</svg>