<?xml version="1.0" encoding="UTF-8"?>
<svg width="97px" height="49px" viewBox="0 0 97 49" version="1.1" xmlns="http://www.w3.org/2000/svg" xmlns:xlink="http://www.w3.org/1999/xlink">
    <!-- Generator: Sketch 43.1 (39012) - http://www.bohemiancoding.com/sketch -->
    <title>Page 1</title>
    <desc>Created with Sketch.</desc>
    <defs></defs>
    <g id="Welcome" stroke="none" stroke-width="1" fill="none" fill-rule="evenodd">
        <g id="Desktop-HD" transform="translate(-277.000000, -1958.000000)" fill="#221E22">
            <g id="B3" transform="translate(277.000000, 1721.000000)">
                <g id="Page-1" transform="translate(0.000000, 237.000000)">
                    <polygon id="Fill-1" points="41 0 41 26.5821699 43.2456221 24.3394073 43.2456221 2.24824323 93.7954706 2.24824323 93.7954706 45.2484267 43.2456221 45.2484267 43.2456221 31.7306111 41 33.9762332 41 47.4995294 96.0310846 47.4995294 96.0310846 0"></polygon>
                    <g id="Group-8" transform="translate(0.000000, 10.486000)">
                        <path d="M11.700077,12.4025368 C14.8502386,12.4025368 17.4001539,9.84404317 17.4001539,6.70174498 C17.4001539,3.55063015 14.8502386,1 11.700077,1 C8.5515833,1 6,3.54872385 6,6.70174498 C6,9.84404317 8.5515833,12.4025368 11.700077,12.4025368" id="Fill-2"></path>
                        <path d="M7.34497607,14 C3.30838463,14 0,17.2735946 0,21.2994631 L0,30.0641565 L0,32.4706227 L0,37.5768871 L0.0733925716,37.5768871 L19.9441931,37.5768871 L22.8391487,37.5768871 L22.8391487,32.4706227 L22.8391487,30.0641565 L22.8391487,26.9559335 C23.2089711,27.5039949 23.5883249,28.0668301 23.9633895,28.6237082 C24.4649848,29.3771735 25.645938,29.7398472 26.5409461,29.7398472 L34.4332688,29.7398472 C35.7574328,29.7398472 36.8316332,28.671604 36.8316332,27.3421976 C36.8316332,26.9008891 36.5049409,26.2024682 36.2969159,25.8579044 L45.9284994,16.2253676 C46.3104744,15.8433926 46.3088064,15.225513 45.9258783,14.845206 C45.5465245,14.4625162 44.9284065,14.4625162 44.5483378,14.845206 L34.4244521,24.9681386 L27.2586683,24.9707597 L22.5341407,17.8433402 C21.7246778,16.6266439 20.5463457,15.6608644 19.1530783,15.1066075 C17.9802269,14.4081866 16.6227026,14 15.2056064,14 L7.34497607,14" id="Fill-4"></path>
                        <path d="M65.4838703,19.8847368 C64.8761245,20.2641958 64.3838809,19.9890286 64.3838809,19.2739336 L64.3838809,7.66629406 C64.3838809,6.94916078 64.8795216,6.67773042 65.4838703,7.05549082 L74.6459189,12.7827054 C75.2536647,13.1621644 75.2502676,13.7797619 74.6459189,14.1575223 L65.4838703,19.8847368 M68.3975852,25.4988271 C61.7144194,25.4988271 56.296683,20.0810907 56.296683,13.3975852 C56.296683,6.71441938 61.7144194,1.29668296 68.3975852,1.29668296 C75.080751,1.29668296 80.4988271,6.71441938 80.4988271,13.3975852 C80.4988271,20.0810907 75.080751,25.4988271 68.3975852,25.4988271 M68.3975852,26.7951704 C75.7965254,26.7951704 81.7951704,20.7972049 81.7951704,13.3975852 C81.7951704,5.99864495 75.7968652,0 68.3975852,0 C60.9986449,0 55,5.99830523 55,13.3975852 C55,20.7965254 60.9983052,26.7951704 68.3975852,26.7951704" id="Fill-6"></path>
                    </g>
                </g>
            </g>
        </g>
    </g>
</svg>