<?xml version="1.0" encoding="UTF-8"?>
<svg width="105px" height="112px" viewBox="0 0 105 112" version="1.1" xmlns="http://www.w3.org/2000/svg" xmlns:xlink="http://www.w3.org/1999/xlink">
    <!-- Generator: Sketch 43.1 (39012) - http://www.bohemiancoding.com/sketch -->
    <title>Group 15</title>
    <desc>Created with Sketch.</desc>
    <defs></defs>
    <g id="Welcome" stroke="none" stroke-width="1" fill="none" fill-rule="evenodd">
        <g id="Desktop-HD" transform="translate(-267.000000, -1485.000000)">
            <g id="Group-15" transform="translate(262.000000, 1480.000000)">
                <g id="Group-14" transform="translate(5.000000, 18.000000)">
                    <g id="Group-13" transform="translate(25.967742, 0.000000)">
                        <g id="Group-12" transform="translate(11.803519, 13.275694)" stroke="#000000">
                            <ellipse id="Oval-Copy" cx="33.0498534" cy="32.7987728" rx="33.0498534" ry="32.7987728"></ellipse>
                            <ellipse id="Oval-Copy-2" cx="33.3475998" cy="33.0942573" rx="25.0106998" ry="24.820693"></ellipse>
                            <ellipse id="Oval-Copy-3" cx="33.6453462" cy="33.3897417" rx="16.9715463" ry="16.8426131"></ellipse>
                        </g>
                        <rect id="Rectangle-4" fill="#FFFFFF" x="0" y="0" width="55.8699902" height="78.8732394"></rect>
                    </g>
                    <g id="Group-13-Copy" transform="translate(39.532258, 49.500000) scale(-1, 1) translate(-39.532258, -49.500000) translate(0.032258, 0.000000)">
                        <g id="Group-12" transform="translate(11.803519, 13.275694)" stroke="#000000">
                            <ellipse id="Oval-Copy" cx="33.0498534" cy="32.7987728" rx="33.0498534" ry="32.7987728"></ellipse>
                            <ellipse id="Oval-Copy-2" cx="33.3475998" cy="33.0942573" rx="25.0106998" ry="24.820693"></ellipse>
                            <ellipse id="Oval-Copy-3" cx="33.6453462" cy="33.3897417" rx="16.9715463" ry="16.8426131"></ellipse>
                        </g>
                        <rect id="Rectangle-4" fill="#FFFFFF" x="0" y="0" width="55.8699902" height="98.8700027"></rect>
                    </g>
                </g>
                <g id="Group-11-Copy" transform="translate(36.000000, 17.000000)" fill-rule="nonzero" fill="#000000">
                    <path d="M65.1274288,43.5297823 L65.1274288,43.5297823 C65.0343181,39.7087257 64.2894322,37.0339861 63.1721034,34.6458258 C56.2819091,32.162139 59.2614526,29.1052937 59.2614526,29.0097673 C57.3992379,27.099239 55.257691,25.8573956 53.4885871,25.2842371 C48.7399396,23.6602881 41.0117487,25.6663428 41.0117487,25.6663428 L31.6075646,25.6663428 C31.6075646,25.6663428 31.5144539,24.6155522 30.4902358,22.9916032 C29.4660177,21.3676541 27.4175816,22.2273919 27.4175816,22.2273919 L28.2555782,25.47529 C28.2555782,25.47529 14.8476325,25.5708164 4.6054518,24.6155522 C-5.63672892,23.6602881 -13.2718091,26.4305541 -16.2513526,27.099239 C-19.2308961,27.7679239 -19.4171175,29.0097673 -20.2551141,33.4995088 C-20.9068893,37.2250389 -21,42.0968861 -21,43.5297823 C-21,44.9626785 -21,49.8345257 -20.3482249,53.5600558 C-19.603339,58.0497973 -19.3240068,59.2916407 -16.3444633,59.9603256 C-13.3649198,60.7245369 -5.72983965,63.494803 4.51234107,62.5395388 C14.7545218,61.5842747 28.1624675,61.7753275 28.1624675,61.7753275 L27.3244709,65.0232256 C27.3244709,65.0232256 29.372907,65.9784897 30.3971251,64.3545407 C31.4213431,62.7305916 31.5144539,61.6798011 31.5144539,61.6798011 L40.918638,61.6798011 C40.918638,61.6798011 48.5537182,63.7813822 53.3954763,62.0619067 C55.1645803,61.4887483 57.2130164,60.2469049 59.0752311,58.5274294 C58.6096774,57.8587445 57.1199057,55.3750577 62.8927712,53.2734766 C64.1032107,50.7897898 64.9412073,48.1150502 65.0343181,44.2939936 L65.0343181,44.2939936 L65.0343181,43.8163616 C65.1274288,43.8163616 65.1274288,43.5297823 65.1274288,43.5297823 Z M30.3971251,27.7679239 C30.3971251,27.7679239 27.6038031,31.5889805 14.6614111,31.4934541 C1.71901905,31.4934541 -2.5640747,27.6723975 -2.5640747,27.6723975 L30.3971251,27.7679239 Z M-3.96073571,53.7511087 C-5.07806452,53.6555823 -8.15071873,53.369003 -10.2922656,52.8913709 C-12.4338125,52.4137389 -14.4822486,47.3508389 -14.5753594,43.5297823 L-14.5753594,43.5297823 L-14.5753594,43.0521502 C-14.5753594,43.0521502 -14.5753594,43.5297823 -14.5753594,42.5745182 L-14.5753594,42.5745182 C-14.4822486,38.7534616 -12.4338125,33.786088 -10.2922656,33.308456 C-8.057608,32.8308239 -4.98495378,32.5442446 -3.86762498,32.4487182 C-2.75029617,32.3531918 -0.79497076,32.5442446 -0.79497076,35.1234578 L-0.79497076,42.8610974 L-0.79497076,43.4342559 L-0.79497076,51.0763691 C-0.79497076,53.7511087 -2.8434069,53.8466351 -3.96073571,53.7511087 Z M-2.65718544,59.3871671 C-2.65718544,59.3871671 1.62590832,55.5661106 14.5683003,55.661637 C27.5106923,55.661637 30.3040143,59.4826936 30.3040143,59.4826936 L-2.65718544,59.3871671 Z M43.3395171,43.5297823 C43.3395171,52.3182125 39.9875307,55.9482162 37.9390945,57.0945332 C35.8906584,58.3363766 30.3971251,56.7124275 28.6280211,56.2347955 C26.9520279,55.8526898 26.3002528,53.8466351 26.3002528,52.1271596 L26.3002528,44.1029408 L26.3002528,42.765571 L26.3002528,34.7413522 C26.3002528,33.0218767 26.8589172,31.015822 28.6280211,30.6337163 C30.3040143,30.2516107 35.7975476,28.6276616 37.9390945,29.869505 C40.0806414,31.1113484 43.3395171,34.7413522 43.3395171,43.5297823 L43.0601849,43.5297823 L43.3395171,43.5297823 Z" id="Shape" transform="translate(22.063714, 43.651169) scale(1, -1) rotate(90.000000) translate(-22.063714, -43.651169) "></path>
                </g>
                <g id="Group-17" transform="translate(27.587213, 29.601087) rotate(-13.000000) translate(-27.587213, -29.601087) translate(5.587213, 5.101087)">
                    <path d="M39.0265419,35.6757178 C39.0411002,35.6590889 39.0556343,35.6424604 39.070144,35.6258325 C42.617829,31.5602592 43.7942228,27.8007581 43.7942228,21.9241542 C43.7942228,9.22180774 34.9264069,2.25597319e-13 22.5,2.25597319e-13 C10.0735931,2.25597319e-13 -1.91180405e-13,10.2972863 -1.91180405e-13,22.9996327 C-1.91180405e-13,35.7019791 9.76510229,45.1204238 22.1915092,45.1204238 C24.7242187,45.1204238 27.1710469,44.4338568 29.4576284,43.32387 L38.9458729,48.9884735 L39.0265418,35.6757188 Z" id="Oval" fill="#FFFFFF"></path>
                    <path d="M35.3351252,34.2546144 C38.233801,31.1482146 40,27.0246368 40,22.5 C40,12.8350169 31.9411255,5 22,5 C12.0588745,5 4,12.8350169 4,22.5 C4,32.1649831 12.0588745,40 22,40 C24.2447665,40 26.3935601,39.6005052 28.3752663,38.8706545 L35.2734007,42.3854296 L35.3351252,34.2546144 Z" id="Oval" stroke="#000000" stroke-width="3" fill="#FFFFFF"></path>
                    <text id="!" transform="translate(22.500000, 21.000000) rotate(12.000000) translate(-22.500000, -21.000000) " font-family="Georgia-Bold, Georgia" font-size="28" font-weight="bold" letter-spacing="0.0303333364" fill="#221E22">
                        <tspan x="17" y="31">!</tspan>
                    </text>
                </g>
            </g>
        </g>
    </g>
</svg>