<?xml version="1.0" encoding="UTF-8"?>
<svg width="79px" height="93px" viewBox="0 0 79 93" version="1.1" xmlns="http://www.w3.org/2000/svg" xmlns:xlink="http://www.w3.org/1999/xlink">
    <!-- Generator: Sketch 43.1 (39012) - http://www.bohemiancoding.com/sketch -->
    <title>Group 8</title>
    <desc>Created with Sketch.</desc>
    <defs></defs>
    <g id="Welcome" stroke="none" stroke-width="1" fill="none" fill-rule="evenodd">
        <g id="Desktop-HD" transform="translate(-284.000000, -1731.000000)">
            <g id="B3" transform="translate(277.000000, 1721.000000)"></g>
            <g id="Group-8" transform="translate(284.000000, 1731.000000)">
                <g id="noun_954222" transform="translate(3.000000, 0.000000)" fill="#000000">
                    <path d="M-6.16062835e-07,14.2226954 L-6.16062835e-07,16.3392722 L1.17608177,16.3392722 C3.23863722,16.3392722 5.22426146,17.0408512 6.74006435,18.2990537 L16.594783,26.4805694 C18.5300612,28.0873214 21.0358529,29.0296133 23.6656291,29.1432899 L32.886312,29.7384722 C32.8957371,29.7385741 32.9051631,29.7385741 32.9145881,29.7384722 C36.2329812,29.8800679 38.8227618,32.323035 38.8227618,35.3112658 L38.8227618,41.6325171 L41.175162,41.6325171 L41.175162,35.3112658 C41.175162,31.2143481 37.5777472,27.8206094 33.029397,27.6258952 L23.8040085,27.030713 C23.7945835,27.030611 23.7851575,27.030611 23.7757324,27.030713 C21.6967086,26.9419156 19.7230825,26.1959379 18.1938692,24.9263758 L8.33444533,16.7406202 C6.38481646,15.1222685 3.8293839,14.2229354 1.17631705,14.2229354 L-6.16062835e-07,14.2226954 Z" id="Shape"></path>
                    <path d="M-6.16062835e-07,18.4438494 L-6.16062835e-07,20.5604262 L1.52074285,20.5604262 C1.83105508,20.5604262 2.12842877,20.6684229 2.34792942,20.866017 L9.02329721,26.8771976 L-6.16062834e-07,26.8771976 L-6.16062834e-07,28.9940144 L11.8626925,28.9940144 C12.3383073,28.9938294 12.7669951,28.7359261 12.9489593,28.3405043 C13.1309234,27.9450825 13.0303512,27.4899657 12.694116,27.1872683 L4.01100918,19.3695817 C3.3510952,18.7759994 2.45403506,18.4436094 1.52074463,18.4436094 L-6.16062835e-07,18.4438494 Z" id="Shape"></path>
                    <path d="M35.3210544,40.5909481 C34.8957567,40.5839461 34.4993928,40.7841094 34.2844659,41.1144239 C34.0695391,41.4447384 34.0695391,41.8537347 34.2844659,42.1840492 C34.4993928,42.5143637 34.8957567,42.714527 35.3210544,42.707525 L39.9983292,42.707525 C40.6575354,42.707525 41.165236,43.1651113 41.165236,43.7575736 C41.165236,44.3503559 40.6575381,44.8076223 39.9983292,44.8076223 L34.1543832,44.8076223 C33.7290855,44.8006203 33.3327216,45.0007835 33.1177948,45.331098 C32.9028679,45.6614125 32.9028679,46.0704088 33.1177948,46.4007233 C33.3327216,46.7310379 33.7290855,46.9312011 34.1543832,46.9241991 L39.9983292,46.9241991 C41.6047086,46.9241991 42.7535,45.8396714 43.1685049,44.5060313 C43.3907937,44.3080967 43.516341,44.0386572 43.5174033,43.7572536 C43.5174033,42.0201855 41.9284342,40.5906282 39.9983319,40.5906282 L35.3210544,40.5909481 Z" id="Shape"></path>
                    <path d="M22.7603348,34.3852134 C17.5927713,34.3852134 13.3784959,38.1779802 13.3787307,42.8273614 C13.3784959,47.4766626 17.5927713,51.2651895 22.7603348,51.2651895 C27.9278982,51.2651895 32.1419388,47.4766626 32.1419388,42.8273614 C32.1419388,38.1779802 27.9278982,34.3852134 22.7603348,34.3852134 Z M22.7603348,36.5018702 C26.6572395,36.5018702 29.7897742,39.322266 29.7897742,42.8273614 C29.7897742,46.3324567 26.6572395,49.1485327 22.7603348,49.1485327 C18.86343,49.1485327 15.7306605,46.3324567 15.7308953,42.8273614 C15.7306605,39.322266 18.86343,36.5018702 22.7603348,36.5018702 Z" id="Shape" fill-rule="nonzero"></path>
                    <path d="M22.7603348,38.6021275 C20.1825519,38.6021275 18.0649454,40.5079106 18.0649454,42.8273614 C18.0649454,45.1468921 20.1825519,47.0482754 22.7603348,47.0482754 C25.3383523,47.0482754 27.4510194,45.1468921 27.4510194,42.8273614 C27.4510194,40.5079106 25.3383523,38.6021275 22.7603348,38.6021275 Z M22.7603348,40.7189443 C24.0674589,40.7189443 25.0988539,41.6521965 25.0988539,42.8273614 C25.0988539,44.0024463 24.0674589,44.9316186 22.7603348,44.9316186 C21.453681,44.9316186 20.4173448,44.0024463 20.4173448,42.8273614 C20.4173448,41.6521965 21.453681,40.7189443 22.7603348,40.7189443 Z" id="Shape" fill-rule="nonzero"></path>
                    <polygon id="Shape" points="-6.16062835e-07 44.8076223 -6.16062835e-07 46.9241991 10.7047256 46.9241991 10.7047256 44.8076223"></polygon>
                    <polygon id="Shape" points="-6.16062835e-07 40.5909481 -6.16062835e-07 42.707525 9.53334794 42.707525 9.53334794 40.5909481"></polygon>
                    <path d="M75.2751547,16.0266415 L67.345362,20.5039479 C66.564053,20.9503345 65.7074575,21.2823246 64.8092215,21.4839186 L51.7198645,24.4315106 C48.2939566,25.2010876 45.8742708,27.9810046 45.8759176,31.1578698 L45.8759176,36.8466599 C45.8759176,40.661426 49.3401734,43.7753331 53.5805632,43.7753331 L56.0341269,43.7753331 L57.2607905,43.7753331 C57.6860905,43.7823383 58.0824581,43.5821758 58.2973871,43.25186 C58.5123162,42.9215441 58.5123162,42.5125452 58.2973871,42.1822294 C58.0824581,41.8519136 57.6860905,41.6517511 57.2607905,41.6587563 L56.0341269,41.6587563 L53.5805632,41.6587563 C50.6108321,41.6587563 48.237729,39.5167402 48.237729,36.8466599 L48.237729,31.1578698 C48.2365526,28.9428159 49.8993952,27.0228732 52.289672,26.4863292 L65.3834998,23.5384973 C66.5247634,23.2825049 67.6112097,22.8609175 68.6042577,22.2941344 L75.2843302,18.523607 L75.2751547,16.0266415 Z" id="Shape"></path>
                    <path d="M65.8643782,34.331455 C60.6817582,34.331455 56.4552485,38.1347815 56.4552485,42.7983222 C56.4552485,47.461863 60.6817582,51.2651895 65.8643782,51.2651895 C71.0469991,51.2651895 75.2735079,47.461863 75.2735079,42.7983222 C75.2735079,38.1347815 71.0469991,34.331455 65.8643782,34.331455 L65.8643782,34.331455 Z M65.8643782,36.4481118 C69.7756344,36.4481118 72.9211076,39.2785873 72.9211076,42.7983222 C72.9211076,46.3180572 69.7756344,49.1485327 65.8643782,49.1485327 C61.9528872,49.1485327 58.8074131,46.3180572 58.8074131,42.7983222 C58.8074131,39.2785873 61.9528872,36.4481118 65.8643782,36.4481118 Z" id="Shape" fill-rule="nonzero"></path>
                    <path d="M65.8643782,38.5649286 C63.2800083,38.5649286 61.1598133,40.4727917 61.1598133,42.7983222 C61.1598133,45.1240128 63.2800083,47.0317159 65.8643782,47.0317159 C68.4487481,47.0317159 70.568943,45.1240128 70.568943,42.7983222 C70.568943,40.4727917 68.4487481,38.5649286 65.8643782,38.5649286 Z M65.8643782,40.6817454 C67.1773843,40.6817454 68.2165428,41.6168375 68.2165428,42.7983222 C68.2165428,43.979807 67.1773843,44.915139 65.8643782,44.915139 C64.551373,44.915139 63.511978,43.979807 63.511978,42.7983222 C63.511978,41.6168375 64.551373,40.6817454 65.8643782,40.6817454 Z" id="Shape" fill-rule="nonzero"></path>
                    <path d="M38.753079,0.468146023 C38.2293302,0.492991404 37.7871402,0.826862948 37.6689847,1.28668159 L34.4943391,13.6480725 L27.6349954,10.1215378 C27.1765399,9.88796428 26.6014038,9.95719115 26.2272859,10.2909783 C25.853168,10.6247654 25.7713263,11.1416926 26.0269692,11.556215 L31.9078511,21.0771307 C32.1022392,21.4241243 32.4922965,21.6473684 32.9239504,21.6586817 C33.3556042,21.6699951 33.7594399,21.4675582 33.9759422,21.1313338 C34.1924445,20.7951094 34.1867975,20.3791661 33.9612318,20.0478015 L30.1297292,13.8423067 L34.701135,16.1904766 C35.0237683,16.3574334 35.415176,16.3771407 35.7564936,16.2436138 C36.0978112,16.110087 36.3487655,15.8390813 36.4331456,15.5128969 L39.0243382,5.42111815 L41.2296984,11.3787003 C41.3593204,11.7251306 41.6784134,11.9868578 42.0737284,12.0709928 C42.4690434,12.1551277 42.8846232,12.0497609 43.1729748,11.7922879 L47.0458832,8.31127187 L47.0458832,13.1564072 C47.0439998,13.5422557 47.2756004,13.8984567 47.6503199,14.0860291 C48.0250394,14.2736014 48.4835018,14.2628234 48.846826,14.0579003 L54.7093578,10.7629587 L50.6985849,17.9729834 C50.5071328,18.3116083 50.5320471,18.7165907 50.7638659,19.0341306 C50.9956847,19.3516706 51.3988455,19.5330551 51.82024,19.5094 C52.2416345,19.4857448 52.6166177,19.2606788 52.8027825,18.9196751 L58.6834296,8.34431088 C58.9186333,7.92079056 58.8126656,7.40822765 58.4239378,7.08915668 C58.0352101,6.77008572 57.4582858,6.72212519 57.0111767,6.97171186 L49.3982834,11.2506241 L49.3982834,5.75630814 C49.4001367,5.32751349 49.1143079,4.94007782 48.6744429,4.77515571 C48.2345778,4.6102336 47.7275945,4.70041387 47.3905446,5.00353062 L42.8560755,9.0839688 L39.9293969,1.18756455 C39.7609665,0.737533654 39.2800723,0.443524014 38.753079,0.468386016 L38.753079,0.468146023 Z" id="Shape"></path>
                </g>
                <path d="M13,78.5 L32.6934112,78.5 C36.7287288,78.5 41.1215156,75.4158321 42.5010931,71.6219939 L43.4989069,68.8780061 C44.8802225,65.0793882 47.2150278,65.0375695 48.719598,68.7989951 L52.1445313,77.3613281 C53.1692783,79.9231959 56.1214158,81.2575045 58.714395,80.3499618 L74,75" id="Line" stroke="#000000" stroke-width="2" stroke-linecap="square"></path>
                <g id="Group-10" transform="translate(2.000000, 89.000000)" stroke="#000000" stroke-width="2" stroke-linecap="square">
                    <path d="M1,0 L1,3" id="Line"></path>
                    <path d="M13,0 L13,3" id="Line-Copy"></path>
                    <path d="M25,0 L25,3" id="Line-Copy-2"></path>
                    <path d="M37,0 L37,3" id="Line-Copy-3"></path>
                    <path d="M50,0 L50,3" id="Line-Copy-4"></path>
                    <path d="M62,0 L62,3" id="Line-Copy-5"></path>
                    <path d="M74,0 L74,3" id="Line-Copy-6"></path>
                    <path d="M1,3 L75,3" id="Line"></path>
                </g>
                <g id="Group-10-Copy" transform="translate(0.000000, 58.000000)" stroke="#000000" stroke-width="2" stroke-linecap="square">
                    <path d="M-14.5,18.5 L19.5,18.5 L-14.5,18.5 Z M10.1666667,15.5 L10.1666667,18.5 L10.1666667,15.5 Z M-2.16666667,15.5 L-2.16666667,18.5 L-2.16666667,15.5 Z M-14.5,15.5 L-14.5,18.5 L-14.5,15.5 Z" id="Line-Copy-6" transform="translate(2.000000, 17.500000) rotate(270.000000) translate(-2.000000, -17.500000) "></path>
                </g>
            </g>
        </g>
    </g>
</svg>