<?xml version="1.0" encoding="UTF-8"?>
<svg width="20px" height="20px" viewBox="0 0 20 20" version="1.1" xmlns="http://www.w3.org/2000/svg" xmlns:xlink="http://www.w3.org/1999/xlink">
    <!-- Generator: Sketch 45.2 (43514) - http://www.bohemiancoding.com/sketch -->
    <title></title>
    <desc>Created with Sketch.</desc>
    <defs></defs>
    <g id="Page-1" stroke="none" stroke-width="1" fill="none" fill-rule="evenodd">
        <g id="Press-Kit" transform="translate(-783.000000, -2977.000000)" fill="#FFFFFF">
            <g id="assets" transform="translate(467.000000, 2853.000000)">
                <g id="social-icons" transform="translate(0.315728, 105.334805)">
                    <g id="photo" transform="translate(284.000000, 0.000000)">
                        <path d="M41.375,28.625 C40.0729102,28.625 38.9661504,28.1692754 38.0546875,27.2578125 C37.1432246,26.3463496 36.6875,25.2395898 36.6875,23.9375 C36.6875,22.6354102 37.1432246,21.5286504 38.0546875,20.6171875 C38.9661504,19.7057246 40.0729102,19.25 41.375,19.25 C42.6770898,19.25 43.7838496,19.7057246 44.6953125,20.6171875 C45.6067754,21.5286504 46.0625,22.6354102 46.0625,23.9375 C46.0625,25.2395898 45.6067754,26.3463496 44.6953125,27.2578125 C43.7838496,28.1692754 42.6770898,28.625 41.375,28.625 Z M41.375,30.96875 C43.3281348,30.96875 45.3788955,31.4000608 47.5273438,32.2626953 C49.675792,33.1253298 50.75,34.2565034 50.75,35.65625 L50.75,38 L32,38 L32,35.65625 C32,34.2565034 33.074208,33.1253298 35.2226562,32.2626953 C37.3711045,31.4000608 39.4218652,30.96875 41.375,30.96875 Z" id=""></path>
                    </g>
                </g>
            </g>
        </g>
    </g>
</svg>