<?xml version="1.0" encoding="UTF-8"?>
<svg width="12px" height="24px" viewBox="0 0 12 24" version="1.1" xmlns="http://www.w3.org/2000/svg" xmlns:xlink="http://www.w3.org/1999/xlink">
    <!-- Generator: Sketch 45.2 (43514) - http://www.bohemiancoding.com/sketch -->
    <title></title>
    <desc>Created with Sketch.</desc>
    <defs></defs>
    <g id="Page-1" stroke="none" stroke-width="1" fill="none" fill-rule="evenodd">
        <g id="Press-Kit" transform="translate(-638.000000, -1106.000000)" fill="#FFFFFF">
            <g id="social" transform="translate(466.000000, 994.000000)">
                <g id="social-icons" transform="translate(0.315728, 95.334805)">
                    <g id="facebook" transform="translate(145.000000, 0.000000)">
                        <path d="M34.5,25 L38.25,25 L37.78125,28.75 L34.5,28.75 L34.5,40 L29.6367188,40 L29.6367188,28.75 L27,28.75 L27,25 L29.6367188,25 L29.6367188,22.4804688 C29.6367188,20.8398355 30.0468709,19.5996136 30.8671875,18.7597656 C31.6875041,17.9199177 33.0546779,17.5 34.96875,17.5 L38.25,17.5 L38.25,21.25 L36.2578125,21.25 C35.5156213,21.25 35.0371104,21.3671863 34.8222656,21.6015625 C34.6074208,21.8359387 34.5,22.2265598 34.5,22.7734375 L34.5,25 Z" id=""></path>
                    </g>
                </g>
            </g>
        </g>
    </g>
</svg>