<?xml version="1.0" encoding="UTF-8"?>
<svg width="20px" height="20px" viewBox="0 0 20 20" version="1.1" xmlns="http://www.w3.org/2000/svg" xmlns:xlink="http://www.w3.org/1999/xlink">
    <!-- Generator: Sketch 45.2 (43514) - http://www.bohemiancoding.com/sketch -->
    <title></title>
    <desc>Created with Sketch.</desc>
    <defs></defs>
    <g id="Page-1" stroke="none" stroke-width="1" fill="none" fill-rule="evenodd">
        <g id="Press-Kit" transform="translate(-931.000000, -2977.000000)" fill="#FFFFFF">
            <g id="assets" transform="translate(467.000000, 2853.000000)">
                <g id="social-icons" transform="translate(0.315728, 105.334805)">
                    <g id="gifs" transform="translate(426.000000, 0.000000)">
                        <path d="M56.75,35.9003906 C56.75,36.4537788 56.5384136,36.9420552 56.1152344,37.3652344 C55.6920552,37.7884136 55.2037788,38 54.6503906,38 L40.0996094,38 C39.5462212,38 39.0579448,37.7884136 38.6347656,37.3652344 C38.2115864,36.9420552 38,36.4537788 38,35.9003906 L38,21.3496094 C38,20.7962212 38.2115864,20.3079448 38.6347656,19.8847656 C39.0579448,19.4615864 39.5462212,19.25 40.0996094,19.25 L54.6503906,19.25 C55.2037788,19.25 55.6920552,19.4615864 56.1152344,19.8847656 C56.5384136,20.3079448 56.75,20.7962212 56.75,21.3496094 L56.75,35.9003906 Z M43.7128906,30.1875 L40.0996094,34.875 L54.6503906,34.875 L49.9628906,28.625 L46.3496094,33.3125 L43.7128906,30.1875 Z" id=""></path>
                    </g>
                </g>
            </g>
        </g>
    </g>
</svg>