<?xml version="1.0" encoding="UTF-8"?>
<svg width="20px" height="20px" viewBox="0 0 20 20" version="1.1" xmlns="http://www.w3.org/2000/svg" xmlns:xlink="http://www.w3.org/1999/xlink">
    <!-- Generator: Sketch 45.2 (43514) - http://www.bohemiancoding.com/sketch -->
    <title></title>
    <desc>Created with Sketch.</desc>
    <defs></defs>
    <g id="Page-1" stroke="none" stroke-width="1" fill="none" fill-rule="evenodd">
        <g id="Press-Kit" transform="translate(-931.000000, -1108.000000)" fill="#FFFFFF">
            <g id="social" transform="translate(466.000000, 994.000000)">
                <g id="social-icons" transform="translate(0.315728, 95.334805)">
                    <g id="insta" transform="translate(440.000000, 0.000000)">
                        <path d="M30.46875,28.625 C30.46875,26.0208203 31.7708203,24.71875 34.375,24.71875 C36.9791797,24.71875 38.28125,26.0208203 38.28125,28.625 C38.28125,31.2291797 36.9791797,32.53125 34.375,32.53125 C31.7708203,32.53125 30.46875,31.2291797 30.46875,28.625 Z M30.5175781,24.7675781 C29.833981,25.4511753 29.3782563,26.2161416 29.1503906,27.0625 L25,27.0625 L25,21.59375 C25,20.9101528 25.2278623,20.3567729 25.6835938,19.9335938 C26.2044297,19.4778623 26.7740854,19.25 27.3925781,19.25 L41.4550781,19.25 C42.0735708,19.25 42.6106748,19.4778623 43.0664062,19.9335938 C43.5221377,20.3893252 43.75,20.9427051 43.75,21.59375 L43.75,27.0625 L39.6484375,27.0625 C39.4205718,26.2161416 38.9648472,25.4511753 38.28125,24.7675781 C37.2070259,23.693354 35.9049556,23.15625 34.375,23.15625 C32.8775967,23.15625 31.5918022,23.693354 30.5175781,24.7675781 Z M42.1875,23.3515625 L42.1875,21.4472656 C42.1875,21.2845044 42.1223965,21.1380215 41.9921875,21.0078125 C41.8619785,20.8776035 41.7154956,20.8125 41.5527344,20.8125 L39.6972656,20.8125 C39.5345044,20.8125 39.3880215,20.8776035 39.2578125,21.0078125 C39.1276035,21.1380215 39.0625,21.2845044 39.0625,21.4472656 L39.0625,23.3515625 C39.0625,23.5143237 39.1276035,23.6608066 39.2578125,23.7910156 C39.3554692,23.8886724 39.5019521,23.9375 39.6972656,23.9375 L41.5527344,23.9375 C41.7480479,23.9375 41.8945308,23.8886724 41.9921875,23.7910156 C42.1223965,23.6608066 42.1875,23.5143237 42.1875,23.3515625 Z M38.28125,32.4824219 C39.3229219,31.44075 39.84375,30.1549556 39.84375,28.625 L43.75,28.625 L43.75,35.65625 C43.75,36.2421904 43.5221377,36.7955703 43.0664062,37.3164062 C42.6432271,37.7721377 42.106123,38 41.4550781,38 L27.3925781,38 C26.7415332,38 26.1881533,37.7721377 25.7324219,37.3164062 C25.2441382,36.8281226 25,36.2747427 25,35.65625 L25,28.625 L28.9550781,28.625 C28.9550781,30.1549556 29.4759063,31.44075 30.5175781,32.4824219 C31.5918022,33.556646 32.8775967,34.09375 34.375,34.09375 C35.9049556,34.09375 37.2070259,33.556646 38.28125,32.4824219 Z" id=""></path>
                    </g>
                </g>
            </g>
        </g>
    </g>
</svg>