<?xml version="1.0" encoding="UTF-8"?>
<svg width="1047px" height="240px" viewBox="0 0 1047 240" version="1.1" xmlns="http://www.w3.org/2000/svg" xmlns:xlink="http://www.w3.org/1999/xlink">
    <!-- Generator: Sketch 46 (44423) - http://www.bohemiancoding.com/sketch -->
    <title>be connected copy</title>
    <desc>Created with Sketch.</desc>
    <defs>
        <rect id="path-1" x="0" y="0" width="203" height="2"></rect>
        <rect id="path-2" x="0" y="0" width="201" height="2"></rect>
    </defs>
    <g id="Symbols" stroke="none" stroke-width="1" fill="none" fill-rule="evenodd">
        <g id="be-connected" transform="translate(1.000000, 1.000000)">
            <g id="be-connected-copy">
                <g id="line-2-3" transform="translate(628.000000, 118.000000)">
                    <g>
                        <use fill="#FFFFFF" fill-rule="evenodd" xlink:href="#path-1"></use>
                        <rect stroke="#000000" stroke-width="2" x="1" y="1" width="201" height="1"></rect>
                    </g>
                </g>
                <g id="line-1-2" transform="translate(214.000000, 118.000000)">
                    <g>
                        <use fill="#FFFFFF" fill-rule="evenodd" xlink:href="#path-2"></use>
                        <rect stroke="#000000" stroke-width="2" x="1" y="1" width="199" height="1"></rect>
                    </g>
                </g>
                <g id="wi-fi-sign-2" transform="translate(696.000000, 43.000000)" fill-rule="nonzero" fill="#FBB040">
                    <path d="M33.5,13.0938972 C42.3922597,13.0874711 51.0054226,16.238882 57.841388,22 L67,12.722015 C47.805207,-4.24067165 19.194793,-4.24067165 0,12.722015 L9.15861197,22 C15.9945774,16.238882 24.6077403,13.0874711 33.5,13.0938972 L33.5,13.0938972 Z" id="Shape"></path>
                    <path d="M33.5046186,34.5630108 C36.4842196,34.5610863 39.4028814,35.3999624 41.9197677,36.9816768 L51,27.9941341 C40.72478,20.0019553 26.27522,20.0019553 16,27.9941341 L25.0802323,37 C27.5978041,35.4101656 30.5200494,34.5648245 33.5046186,34.5630108 Z" id="Shape"></path>
                    <path d="M34.6583211,45.116134 C33.8970018,44.9612887 33.1125711,44.9612887 32.3512518,45.116134 C29.2696859,45.6528486 27.0144676,48.335256 27,51.4810334 C27.0075705,51.8039852 27.0395726,52.1258886 27.095729,52.4439532 C27.5098222,55.2617559 29.7045702,57.4772254 32.5044183,57.903708 C32.8207359,57.9593738 33.140696,57.991558 33.4617084,58 C33.7825127,57.9952732 34.1025104,57.966304 34.4189985,57.9133372 C35.4947373,57.7436443 36.5114222,57.3067782 37.377025,56.6422832 C38.4372465,55.8524041 39.2295065,54.7528575 39.6458027,53.4935357 C39.7622753,53.1414223 39.8518823,52.7808869 39.9138439,52.4150656 C39.9702758,52.0972137 39.9991032,51.7750252 40,51.4521459 C39.9725256,48.3203499 37.7254894,45.6550366 34.6583211,45.116134 L34.6583211,45.116134 Z" id="Shape"></path>
                </g>
                <g id="wi-fi-sign-1" transform="translate(281.000000, 43.000000)" fill-rule="nonzero" fill="#FBB040">
                    <path d="M33.5,13.0938972 C42.3922597,13.0874711 51.0054226,16.238882 57.841388,22 L67,12.722015 C47.805207,-4.24067165 19.194793,-4.24067165 0,12.722015 L9.15861197,22 C15.9945774,16.238882 24.6077403,13.0874711 33.5,13.0938972 L33.5,13.0938972 Z" id="Shape"></path>
                    <path d="M33.5046186,34.5630108 C36.4842196,34.5610863 39.4028814,35.3999624 41.9197677,36.9816768 L51,27.9941341 C40.72478,20.0019553 26.27522,20.0019553 16,27.9941341 L25.0802323,37 C27.5978041,35.4101656 30.5200494,34.5648245 33.5046186,34.5630108 Z" id="Shape"></path>
                    <path d="M34.6583211,45.116134 C33.8970018,44.9612887 33.1125711,44.9612887 32.3512518,45.116134 C29.2696859,45.6528486 27.0144676,48.335256 27,51.4810334 C27.0075705,51.8039852 27.0395726,52.1258886 27.095729,52.4439532 C27.5098222,55.2617559 29.7045702,57.4772254 32.5044183,57.903708 C32.8207359,57.9593738 33.140696,57.991558 33.4617084,58 C33.7825127,57.9952732 34.1025104,57.966304 34.4189985,57.9133372 C35.4947373,57.7436443 36.5114222,57.3067782 37.377025,56.6422832 C38.4372465,55.8524041 39.2295065,54.7528575 39.6458027,53.4935357 C39.7622753,53.1414223 39.8518823,52.7808869 39.9138439,52.4150656 C39.9702758,52.0972137 39.9991032,51.7750252 40,51.4521459 C39.9725256,48.3203499 37.7254894,45.6550366 34.6583211,45.116134 L34.6583211,45.116134 Z" id="Shape"></path>
                </g>
                <g id="van-3" transform="translate(830.000000, 0.000000)">
                    <g id="headlights" transform="translate(17.000000, 126.000000)" fill="#FBB040">
                        <path d="M4.00339808,0.312102366 L4.29511195,1.18724395 L4.58682581,2.06238554 L5.75368126,3.22924099 L7.50396443,4.6878103 L12.4631001,6.72980734 L20.3393744,9.3552321 L30.2576457,12.5640846 L33.4664982,14.8977955 L33.758212,17.5232202 L33.758212,21.0237866 L32.5913566,23.9409252 L29.0907902,28.3166331 L25.0067962,32.1089134 L21.214516,32.1089134 L17.1305219,30.9420579 L11.2962446,29.7752025 L5.4619674,28.9000609 L2.10725798,26.8580638 L0.502831737,25.6912084 L0.211117874,23.6492113 L0.211117874,17.8149341 L1.08625946,10.8138014 L4.00339808,0.312102366 Z M175.822863,0.312102366 L178.740002,10.8138014 L179.615143,17.8149341 L179.615143,23.6492113 L179.323429,25.6912084 L177.719003,26.8580638 L174.364294,28.9000609 L168.530016,29.7752025 L162.695739,30.9420579 L158.611745,32.1089134 L154.819465,32.1089134 L150.735471,28.3166331 L147.234904,23.9409252 L146.068049,21.0237866 L146.068049,17.5232202 L146.359763,14.8977955 L149.568615,12.5640846 L159.486887,9.3552321 L167.363161,6.72980734 L172.322297,4.6878103 L174.07258,3.22924099 L175.239435,2.06238554 L175.531149,1.18724395 L175.822863,0.312102366 Z"></path>
                    </g>
                    <g id="body" transform="translate(0.000000, 54.000000)" stroke-width="2">
                        <path d="M106.777191,0.550492246 C64.5206853,1.30777728 42.2943694,2.25438358 40.0982428,3.39031114 C36.8040529,5.09420248 34.8729761,7.47965035 33.509863,12.0233606 C32.1467499,16.5670708 26.3535194,40.3079568 26.0127411,40.8759206 C25.6719628,41.4438844 23.286515,44.5108888 22.4913657,47.2371149 C21.6962164,49.9633411 20.1059178,54.9614223 19.992325,56.6653136 C19.8787323,58.369205 20.1059178,60.1866891 19.1971757,60.4138746 C18.2884337,60.6410601 16.4709496,60.9818384 16.3573568,59.1643543 C16.2437641,57.3468702 14.7670583,46.1011874 14.0855017,44.6244815 C13.4039452,43.1477757 13.6311307,42.6934047 9.76897701,42.5798119 C5.90682331,42.4662192 2.61263339,42.5798119 1.93107685,44.6244815 C1.24952031,46.6691511 4.44983488e-16,53.5983092 0,57.6876485 C0,61.7769877 -1.85228899e-16,67.683811 0.681556535,68.8197385 C1.36311307,69.9556661 2.49904063,72.9090777 8.17867842,73.3634488 C13.8583162,73.8178198 15.1078365,73.5906343 15.335022,73.3634488 C15.5622076,73.1362633 15.6758003,71.8867429 15.9029858,71.8867429 C16.1301713,71.8867429 17.9476554,71.7731502 17.9476554,73.0226705 C17.9476554,74.2721908 18.8563975,78.1343445 18.8563975,78.7023083 C18.8563975,79.2702721 17.4932844,86.5402084 17.3796916,87.9033215 C17.2660989,89.2664346 16.8117279,96.536371 17.2660989,97.445113 C17.7204699,98.3538551 19.537954,100.057746 24.4224425,101.193674 C29.306931,102.329602 35.7817181,103.806307 36.2360891,103.9199 C36.6904601,104.033493 40.0982428,105.055828 42.4836907,104.033493 C44.0739893,103.351936 46.6108942,100.322796 50.0944053,94.9460724 C51.5332469,90.0237196 51.0410116,86.8431225 48.6176995,85.4042809 C44.9827313,83.2460185 34.8729761,80.7469779 33.2826775,80.0654214 C31.6923789,79.3838648 25.5583701,77.452788 24.4224425,76.6576387 C23.286515,75.8624894 20.7874743,74.1585981 20.9010671,71.5459647" id="Path-3" stroke="#000000"></path>
                        <path d="M214.122345,0.550492246 C213.452558,0.555719662 213.045147,0.559642759 212.900112,0.562261535 C171.068424,1.31757742 149.060198,2.26026063 146.875433,3.39031114 C143.581243,5.09420248 141.650167,7.47965035 140.287054,12.0233606 C138.92394,16.5670708 133.13071,40.3079568 132.789932,40.8759206 C132.449153,41.4438844 130.063705,44.5108888 129.268556,47.2371149 C128.473407,49.9633411 126.883108,54.9614223 126.769516,56.6653136 C126.655923,58.369205 126.883108,60.1866891 125.974366,60.4138746 C125.065624,60.6410601 123.24814,60.9818384 123.134547,59.1643543 C123.020955,57.3468702 121.544249,46.1011874 120.862692,44.6244815 C120.181136,43.1477757 120.408321,42.6934047 116.546168,42.5798119 C112.684014,42.4662192 109.389824,42.5798119 108.708267,44.6244815 C108.026711,46.6691511 106.777191,53.5983092 106.777191,57.6876485 C106.777191,61.7769877 106.777191,67.683811 107.458747,68.8197385 C108.140304,69.9556661 109.276231,72.9090777 114.955869,73.3634488 C120.635507,73.8178198 121.885027,73.5906343 122.112213,73.3634488 C122.339398,73.1362633 122.452991,71.8867429 122.680176,71.8867429 C122.907362,71.8867429 124.724846,71.7731502 124.724846,73.0226705 C124.724846,74.2721908 125.633588,78.1343445 125.633588,78.7023083 C125.633588,79.2702721 124.270475,86.5402084 124.156882,87.9033215 C124.043289,89.2664346 123.588918,96.536371 124.043289,97.445113 C124.49766,98.3538551 126.315145,100.057746 131.199633,101.193674 C136.084122,102.329602 142.558909,103.806307 143.01328,103.9199 C143.467651,104.033493 146.875433,105.055828 149.260881,104.033493 C150.85118,103.351936 153.388085,100.322796 156.871596,94.9460724 C158.310437,90.0237196 157.818202,86.8431225 155.39489,85.4042809 C151.759922,83.2460185 141.650167,80.7469779 140.059868,80.0654214 C138.469569,79.3838648 132.335561,77.452788 131.199633,76.6576387 C130.063705,75.8624894 127.564665,74.1585981 127.678258,71.5459647" id="Path-3-Copy" stroke="#000000" transform="translate(160.449768, 52.517131) scale(-1, 1) translate(-160.449768, -52.517131) "></path>
                        <path d="M20.9010671,71.5459647 C19.7651395,76.4683174 18.9699902,79.6867788 18.5156192,81.2013489" id="Path-4" stroke="#000000"></path>
                        <path d="M17.0389134,93.4693666 C16.4330853,93.6208236 15.9029858,95.4383077 15.4486148,98.9218188 C14.7670583,104.147086 13.971909,108.577203 13.7447235,109.145167 C13.5175379,109.713131 12.7223887,114.711212 12.6087959,119.141329 C12.4952031,123.571447 12.0408321,130.046234 12.7223887,134.81713 C13.4039452,139.588025 14.3126872,144.245328 14.1990945,146.744369 C14.0855017,149.24341 13.971909,162.192984 14.0855017,165.259988 C14.1990945,168.326993 14.9942438,177.073635 15.6758003,179.004712 C16.3573568,180.935789 17.0389134,182.412494 18.9699902,182.980458 C20.9010671,183.548422 32.3739354,183.548422 34.9865688,182.980458 C37.5992022,182.412494 39.4166863,177.755191 39.530279,175.824115 C39.6060075,174.53673 39.7574646,171.924097 39.9846501,167.986214 C46.0429304,168.289128 49.3749846,168.440585 49.9808126,168.440585 C50.8895546,168.440585 52.1390749,168.894956 52.3662605,169.122142 C52.593446,169.349327 53.7293735,170.598848 61.3400882,170.598848 C68.9508028,170.598848 102.347073,170.598848 103.596593,170.598848 C104.846114,170.598848 135.629751,170.598848 137.333642,170.598848 C139.037533,170.598848 146.193877,170.826033 150.510402,170.826033 C154.826926,170.826033 159.370636,170.598848 160.052193,170.371662 C160.73375,170.144477 162.324048,168.781364 162.892012,168.781364 C163.459976,168.781364 172.660989,168.440585 172.888174,168.2134 C173.039631,168.061943 173.266817,169.955156 173.569731,173.893038 C174.099831,177.073635 174.554202,178.928983 174.932844,179.459083 C175.500808,180.254232 176.068772,182.412494 179.476554,183.321236 C182.884337,184.229978 194.697984,184.116386 195.606726,182.980458 C196.515468,181.844531 199.128101,179.459083 199.468879,170.371662 C199.809658,161.284242 199.696065,148.561853 199.809658,146.517184 C199.92325,144.472514 201.627142,138.224912 201.854327,133.908388 C202.081513,129.591863 201.854327,128.796714 201.854327,124.93456 C201.854327,121.072406 201.286363,115.506361 201.286363,114.824805 C201.286363,114.143248 198.105766,94.9460724 197.083431,92.9014028" id="Path-5" stroke="#000000"></path>
                        <path d="" id="Path-6" stroke="#000000"></path>
                        <path d="M193.33487,71.5459647 C194.470798,76.3168604 195.152355,79.0430866 195.37954,79.7246431" id="Path-7" stroke="#000000"></path>
                        <path d="M108.253896,86.3130229 C83.7935896,86.4644799 70.7682869,86.6916655 69.1779883,86.9945795 C66.7925405,87.4489505 62.7032012,87.9033215 59.2954186,93.6965521 C55.8876359,99.4897826 51.7982967,109.599538 51.5711112,110.849058 C51.3439257,112.098579 50.6623691,114.824805 52.593446,117.778216 C54.5245228,120.731628 57.4779345,124.707374 60.6585316,125.275338 C63.8391288,125.843302 100.756774,126.865637 110.07138,126.865637 C119.385986,126.865637 148.920103,126.070487 151.191958,125.956895 C153.463813,125.843302 155.508483,125.729709 157.666745,123.344261 C159.825008,120.958813 162.664826,117.551031 162.892012,116.528696 C163.119197,115.506361 163.573568,113.120913 162.551234,110.281094 C161.528899,107.441276 157.893931,98.1266695 156.190039,95.5140362 C154.486148,92.9014028 153.009442,89.0392491 147.216212,87.676136 C143.354058,86.767394 130.366619,86.3130229 108.253896,86.3130229 Z" id="Path-8" stroke="#000000"></path>
                        <path d="M109.162638,7.13887209 C68.1935178,7.82042862 46.0807946,8.3883924 42.824469,8.84276342 C37.9399805,9.52431996 38.9623153,8.84276342 36.1224964,22.3603014 C33.2826775,35.8778393 32.8283064,38.831251 32.4875282,40.8759206 C32.1467499,42.9205902 31.2380079,50.1905266 31.4651934,53.0303455 C31.6923789,55.8701644 31.0108224,57.0060919 35.5545326,58.1420195 C40.0982428,59.277947 40.6662066,59.8459108 46.3458444,59.8459108 C50.1322696,59.8459108 91.5936255,59.8459108 170.729912,59.8459108 C176.863921,59.1643543 180.385296,58.4449335 181.294038,57.6876485 C182.657151,56.5517209 183.452301,56.8924992 182.657151,49.6225628 C181.862002,42.3526264 180.498889,34.173948 180.044518,31.9020929 C179.590147,29.6302377 176.182364,14.0680302 175.955179,13.5000664 C175.727993,12.9321026 175.727993,8.72917067 171.297876,8.50198516 C166.867758,8.27479965 138.92394,7.3660576 137.106456,7.3660576 C135.8948,7.3660576 126.580194,7.29032909 109.162638,7.13887209 Z" id="Path-9" stroke="#000000"></path>
                        <path d="M60.7721244,148.561853 C63.8012645,154.544405 65.6566129,157.838595 66.3381694,158.444423 C67.3605042,159.353165 69.7459521,162.420169 77.3566668,162.420169 C82.4304765,162.420169 102.460666,162.420169 137.447235,162.420169 C143.202601,163.101726 147.329804,161.132785 149.828845,156.513346 C152.327886,151.893907 153.842456,149.432731 154.372555,149.129817 C146.875433,149.659916 142.521044,149.924966 141.309388,149.924966 C139.491904,149.924966 137.333642,150.265744 136.765678,149.924966 C136.197714,149.584188 135.970529,149.129817 135.175379,149.129817 C134.808972,149.129817 124.117914,149.692729 107,149.584188 C105.152569,149.572474 99.7852772,149.657019 97,149.584188 C93.7325789,149.49875 88.3964572,149.2337 80.9916349,148.789039 C79.7799789,148.789039 78.9848296,148.940496 78.6061871,149.24341 C78.0382233,149.697781 79.0605581,149.584188 75.4255899,149.584188 C73.0022778,149.584188 68.1177893,149.24341 60.7721244,148.561853 Z" id="Path-10" stroke="#000000"></path>
                        <path d="" id="Path-11" stroke="#979797"></path>
                        <path d="M12.8359814,115.279176 C14.729194,117.172388 15.9029858,118.308316 16.3573568,118.686958 C17.0389134,119.254922 20.5602888,121.185999 27.1486687,122.321927 C33.7370485,123.457854 43.6196183,125.275338 45.6642879,125.388931 C47.7089575,125.502524 51.5711112,126.070487 53.2750025,126.752044 C54.9788938,127.433601 57.250749,129.137492 58.2730838,129.47827 C59.2954186,129.819048 66.3381694,130.614198 69.0643956,130.614198 C70.8818797,130.614198 97.3489918,130.614198 148.465732,130.614198 C152.706528,130.462741 155.12984,130.235555 155.735668,129.932641 C156.64441,129.47827 160.847342,126.752044 161.642492,126.752044 C162.437641,126.752044 186.405712,123.457854 191.971757,121.64037 C197.537802,119.822886 199.014508,118.34618 201.399956,115.279176" id="Path-12" stroke="#000000"></path>
                        <path d="M202.195105,130.159827 C195.682454,132.886053 190.419323,134.55208 186.405712,135.157908 C180.385296,136.06665 176.182364,136.407428 172.888174,141.973473 C169.593985,147.539518 162.096863,158.785201 161.528899,159.353165 C160.960935,159.921129 158.575487,163.215319 148.465732,163.66969 C141.725895,163.972604 117.606367,164.124061 76.1071464,164.124061 C66.2624409,164.124061 59.4468756,163.13959 55.6604504,161.170649 C49.9808126,158.217237 45.3235096,146.971555 43.5060255,143.790957 C41.6885414,140.61036 42.0293197,137.884134 34.418605,136.06665 C26.8078904,134.249166 14.5398728,132.545275 12.3816104,129.705456" id="Path-13" stroke="#000000"></path>
                        <rect id="Rectangle-2" stroke="#000000" x="91.3062409" y="132.977311" width="32.418605" height="16.7428047" rx="3"></rect>
                    </g>
                    <g id="top" transform="translate(10.793413, 0.000000)" stroke="#000000" stroke-width="2">
                        <path d="M1.33064304,168.485754 L1.20967551,128.994796 C1.15554735,128.990757 1.09663581,128.986293 1.03203294,128.981354 L1.02706827,128.980975 C1.01792469,128.980276 1.0089028,128.979587 1,128.978908 C1,143.819935 1,144.332892 1,168.318899 C1,168.41105 1.07470373,168.485754 1.16685545,168.485754 L1.33064304,168.485754 Z" id="Path"></path>
                        <path d="M191.489152,129.305733 L191.489152,168.485754 L191.656008,168.485754 C191.748159,168.485754 191.822863,168.41105 191.822863,168.318899 C191.822863,143.403925 191.822863,142.825869 191.822863,129.279824 C191.794562,129.28202 191.76506,129.284325 191.734271,129.286742 L191.724425,129.287515 C191.636659,129.294406 191.558922,129.30044 191.489152,129.305733 Z" id="Path"></path>
                        <polyline id="Path-17" points="30.0465278 57.4676309 11.9602684 12.8354099 0.875141587 0.291713862"></polyline>
                        <polyline id="Path-17-Copy" transform="translate(177.070314, 28.879672) scale(-1, 1) translate(-177.070314, -28.879672) " points="191.656008 57.4676309 173.569748 12.8354099 162.484621 0.291713862"></polyline>
                        <path d="M29.754814,56.8842031 L12.2519822,52.8002091" id="Path-18"></path>
                        <path d="M162.776335,57.4676309 L182.612878,51.6333536" id="Path-19"></path>
                        <path d="M12.5436961,12 L180.862595,12" id="Path-20"></path>
                        <polyline id="Path-2" points="1.2065871 97 1.2065871 1 192.206587 1 192.206587 96"></polyline>
                    </g>
                </g>
                <g id="van-2" transform="translate(415.000000, 0.000000)">
                    <g id="headlights" transform="translate(17.000000, 126.000000)" fill="#FBB040">
                        <path d="M4.00339808,0.312102366 L4.29511195,1.18724395 L4.58682581,2.06238554 L5.75368126,3.22924099 L7.50396443,4.6878103 L12.4631001,6.72980734 L20.3393744,9.3552321 L30.2576457,12.5640846 L33.4664982,14.8977955 L33.758212,17.5232202 L33.758212,21.0237866 L32.5913566,23.9409252 L29.0907902,28.3166331 L25.0067962,32.1089134 L21.214516,32.1089134 L17.1305219,30.9420579 L11.2962446,29.7752025 L5.4619674,28.9000609 L2.10725798,26.8580638 L0.502831737,25.6912084 L0.211117874,23.6492113 L0.211117874,17.8149341 L1.08625946,10.8138014 L4.00339808,0.312102366 Z M175.822863,0.312102366 L178.740002,10.8138014 L179.615143,17.8149341 L179.615143,23.6492113 L179.323429,25.6912084 L177.719003,26.8580638 L174.364294,28.9000609 L168.530016,29.7752025 L162.695739,30.9420579 L158.611745,32.1089134 L154.819465,32.1089134 L150.735471,28.3166331 L147.234904,23.9409252 L146.068049,21.0237866 L146.068049,17.5232202 L146.359763,14.8977955 L149.568615,12.5640846 L159.486887,9.3552321 L167.363161,6.72980734 L172.322297,4.6878103 L174.07258,3.22924099 L175.239435,2.06238554 L175.531149,1.18724395 L175.822863,0.312102366 Z"></path>
                    </g>
                    <g id="body" transform="translate(0.000000, 54.000000)" stroke-width="2">
                        <path d="M106.777191,0.550492246 C64.5206853,1.30777728 42.2943694,2.25438358 40.0982428,3.39031114 C36.8040529,5.09420248 34.8729761,7.47965035 33.509863,12.0233606 C32.1467499,16.5670708 26.3535194,40.3079568 26.0127411,40.8759206 C25.6719628,41.4438844 23.286515,44.5108888 22.4913657,47.2371149 C21.6962164,49.9633411 20.1059178,54.9614223 19.992325,56.6653136 C19.8787323,58.369205 20.1059178,60.1866891 19.1971757,60.4138746 C18.2884337,60.6410601 16.4709496,60.9818384 16.3573568,59.1643543 C16.2437641,57.3468702 14.7670583,46.1011874 14.0855017,44.6244815 C13.4039452,43.1477757 13.6311307,42.6934047 9.76897701,42.5798119 C5.90682331,42.4662192 2.61263339,42.5798119 1.93107685,44.6244815 C1.24952031,46.6691511 4.44983488e-16,53.5983092 0,57.6876485 C0,61.7769877 -1.85228899e-16,67.683811 0.681556535,68.8197385 C1.36311307,69.9556661 2.49904063,72.9090777 8.17867842,73.3634488 C13.8583162,73.8178198 15.1078365,73.5906343 15.335022,73.3634488 C15.5622076,73.1362633 15.6758003,71.8867429 15.9029858,71.8867429 C16.1301713,71.8867429 17.9476554,71.7731502 17.9476554,73.0226705 C17.9476554,74.2721908 18.8563975,78.1343445 18.8563975,78.7023083 C18.8563975,79.2702721 17.4932844,86.5402084 17.3796916,87.9033215 C17.2660989,89.2664346 16.8117279,96.536371 17.2660989,97.445113 C17.7204699,98.3538551 19.537954,100.057746 24.4224425,101.193674 C29.306931,102.329602 35.7817181,103.806307 36.2360891,103.9199 C36.6904601,104.033493 40.0982428,105.055828 42.4836907,104.033493 C44.0739893,103.351936 46.6108942,100.322796 50.0944053,94.9460724 C51.5332469,90.0237196 51.0410116,86.8431225 48.6176995,85.4042809 C44.9827313,83.2460185 34.8729761,80.7469779 33.2826775,80.0654214 C31.6923789,79.3838648 25.5583701,77.452788 24.4224425,76.6576387 C23.286515,75.8624894 20.7874743,74.1585981 20.9010671,71.5459647" id="Path-3" stroke="#000000"></path>
                        <path d="M214.122345,0.550492246 C213.452558,0.555719662 213.045147,0.559642759 212.900112,0.562261535 C171.068424,1.31757742 149.060198,2.26026063 146.875433,3.39031114 C143.581243,5.09420248 141.650167,7.47965035 140.287054,12.0233606 C138.92394,16.5670708 133.13071,40.3079568 132.789932,40.8759206 C132.449153,41.4438844 130.063705,44.5108888 129.268556,47.2371149 C128.473407,49.9633411 126.883108,54.9614223 126.769516,56.6653136 C126.655923,58.369205 126.883108,60.1866891 125.974366,60.4138746 C125.065624,60.6410601 123.24814,60.9818384 123.134547,59.1643543 C123.020955,57.3468702 121.544249,46.1011874 120.862692,44.6244815 C120.181136,43.1477757 120.408321,42.6934047 116.546168,42.5798119 C112.684014,42.4662192 109.389824,42.5798119 108.708267,44.6244815 C108.026711,46.6691511 106.777191,53.5983092 106.777191,57.6876485 C106.777191,61.7769877 106.777191,67.683811 107.458747,68.8197385 C108.140304,69.9556661 109.276231,72.9090777 114.955869,73.3634488 C120.635507,73.8178198 121.885027,73.5906343 122.112213,73.3634488 C122.339398,73.1362633 122.452991,71.8867429 122.680176,71.8867429 C122.907362,71.8867429 124.724846,71.7731502 124.724846,73.0226705 C124.724846,74.2721908 125.633588,78.1343445 125.633588,78.7023083 C125.633588,79.2702721 124.270475,86.5402084 124.156882,87.9033215 C124.043289,89.2664346 123.588918,96.536371 124.043289,97.445113 C124.49766,98.3538551 126.315145,100.057746 131.199633,101.193674 C136.084122,102.329602 142.558909,103.806307 143.01328,103.9199 C143.467651,104.033493 146.875433,105.055828 149.260881,104.033493 C150.85118,103.351936 153.388085,100.322796 156.871596,94.9460724 C158.310437,90.0237196 157.818202,86.8431225 155.39489,85.4042809 C151.759922,83.2460185 141.650167,80.7469779 140.059868,80.0654214 C138.469569,79.3838648 132.335561,77.452788 131.199633,76.6576387 C130.063705,75.8624894 127.564665,74.1585981 127.678258,71.5459647" id="Path-3-Copy" stroke="#000000" transform="translate(160.449768, 52.517131) scale(-1, 1) translate(-160.449768, -52.517131) "></path>
                        <path d="M20.9010671,71.5459647 C19.7651395,76.4683174 18.9699902,79.6867788 18.5156192,81.2013489" id="Path-4" stroke="#000000"></path>
                        <path d="M17.0389134,93.4693666 C16.4330853,93.6208236 15.9029858,95.4383077 15.4486148,98.9218188 C14.7670583,104.147086 13.971909,108.577203 13.7447235,109.145167 C13.5175379,109.713131 12.7223887,114.711212 12.6087959,119.141329 C12.4952031,123.571447 12.0408321,130.046234 12.7223887,134.81713 C13.4039452,139.588025 14.3126872,144.245328 14.1990945,146.744369 C14.0855017,149.24341 13.971909,162.192984 14.0855017,165.259988 C14.1990945,168.326993 14.9942438,177.073635 15.6758003,179.004712 C16.3573568,180.935789 17.0389134,182.412494 18.9699902,182.980458 C20.9010671,183.548422 32.3739354,183.548422 34.9865688,182.980458 C37.5992022,182.412494 39.4166863,177.755191 39.530279,175.824115 C39.6060075,174.53673 39.7574646,171.924097 39.9846501,167.986214 C46.0429304,168.289128 49.3749846,168.440585 49.9808126,168.440585 C50.8895546,168.440585 52.1390749,168.894956 52.3662605,169.122142 C52.593446,169.349327 53.7293735,170.598848 61.3400882,170.598848 C68.9508028,170.598848 102.347073,170.598848 103.596593,170.598848 C104.846114,170.598848 135.629751,170.598848 137.333642,170.598848 C139.037533,170.598848 146.193877,170.826033 150.510402,170.826033 C154.826926,170.826033 159.370636,170.598848 160.052193,170.371662 C160.73375,170.144477 162.324048,168.781364 162.892012,168.781364 C163.459976,168.781364 172.660989,168.440585 172.888174,168.2134 C173.039631,168.061943 173.266817,169.955156 173.569731,173.893038 C174.099831,177.073635 174.554202,178.928983 174.932844,179.459083 C175.500808,180.254232 176.068772,182.412494 179.476554,183.321236 C182.884337,184.229978 194.697984,184.116386 195.606726,182.980458 C196.515468,181.844531 199.128101,179.459083 199.468879,170.371662 C199.809658,161.284242 199.696065,148.561853 199.809658,146.517184 C199.92325,144.472514 201.627142,138.224912 201.854327,133.908388 C202.081513,129.591863 201.854327,128.796714 201.854327,124.93456 C201.854327,121.072406 201.286363,115.506361 201.286363,114.824805 C201.286363,114.143248 198.105766,94.9460724 197.083431,92.9014028" id="Path-5" stroke="#000000"></path>
                        <path d="" id="Path-6" stroke="#000000"></path>
                        <path d="M193.33487,71.5459647 C194.470798,76.3168604 195.152355,79.0430866 195.37954,79.7246431" id="Path-7" stroke="#000000"></path>
                        <path d="M108.253896,86.3130229 C83.7935896,86.4644799 70.7682869,86.6916655 69.1779883,86.9945795 C66.7925405,87.4489505 62.7032012,87.9033215 59.2954186,93.6965521 C55.8876359,99.4897826 51.7982967,109.599538 51.5711112,110.849058 C51.3439257,112.098579 50.6623691,114.824805 52.593446,117.778216 C54.5245228,120.731628 57.4779345,124.707374 60.6585316,125.275338 C63.8391288,125.843302 100.756774,126.865637 110.07138,126.865637 C119.385986,126.865637 148.920103,126.070487 151.191958,125.956895 C153.463813,125.843302 155.508483,125.729709 157.666745,123.344261 C159.825008,120.958813 162.664826,117.551031 162.892012,116.528696 C163.119197,115.506361 163.573568,113.120913 162.551234,110.281094 C161.528899,107.441276 157.893931,98.1266695 156.190039,95.5140362 C154.486148,92.9014028 153.009442,89.0392491 147.216212,87.676136 C143.354058,86.767394 130.366619,86.3130229 108.253896,86.3130229 Z" id="Path-8" stroke="#000000"></path>
                        <path d="M109.162638,7.13887209 C68.1935178,7.82042862 46.0807946,8.3883924 42.824469,8.84276342 C37.9399805,9.52431996 38.9623153,8.84276342 36.1224964,22.3603014 C33.2826775,35.8778393 32.8283064,38.831251 32.4875282,40.8759206 C32.1467499,42.9205902 31.2380079,50.1905266 31.4651934,53.0303455 C31.6923789,55.8701644 31.0108224,57.0060919 35.5545326,58.1420195 C40.0982428,59.277947 40.6662066,59.8459108 46.3458444,59.8459108 C50.1322696,59.8459108 91.5936255,59.8459108 170.729912,59.8459108 C176.863921,59.1643543 180.385296,58.4449335 181.294038,57.6876485 C182.657151,56.5517209 183.452301,56.8924992 182.657151,49.6225628 C181.862002,42.3526264 180.498889,34.173948 180.044518,31.9020929 C179.590147,29.6302377 176.182364,14.0680302 175.955179,13.5000664 C175.727993,12.9321026 175.727993,8.72917067 171.297876,8.50198516 C166.867758,8.27479965 138.92394,7.3660576 137.106456,7.3660576 C135.8948,7.3660576 126.580194,7.29032909 109.162638,7.13887209 Z" id="Path-9" stroke="#000000"></path>
                        <path d="M60.7721244,148.561853 C63.8012645,154.544405 65.6566129,157.838595 66.3381694,158.444423 C67.3605042,159.353165 69.7459521,162.420169 77.3566668,162.420169 C82.4304765,162.420169 102.460666,162.420169 137.447235,162.420169 C143.202601,163.101726 147.329804,161.132785 149.828845,156.513346 C152.327886,151.893907 153.842456,149.432731 154.372555,149.129817 C146.875433,149.659916 142.521044,149.924966 141.309388,149.924966 C139.491904,149.924966 137.333642,150.265744 136.765678,149.924966 C136.197714,149.584188 135.970529,149.129817 135.175379,149.129817 C134.808972,149.129817 124.117914,149.692729 107,149.584188 C105.152569,149.572474 99.7852772,149.657019 97,149.584188 C93.7325789,149.49875 88.3964572,149.2337 80.9916349,148.789039 C79.7799789,148.789039 78.9848296,148.940496 78.6061871,149.24341 C78.0382233,149.697781 79.0605581,149.584188 75.4255899,149.584188 C73.0022778,149.584188 68.1177893,149.24341 60.7721244,148.561853 Z" id="Path-10" stroke="#000000"></path>
                        <path d="" id="Path-11" stroke="#979797"></path>
                        <path d="M12.8359814,115.279176 C14.729194,117.172388 15.9029858,118.308316 16.3573568,118.686958 C17.0389134,119.254922 20.5602888,121.185999 27.1486687,122.321927 C33.7370485,123.457854 43.6196183,125.275338 45.6642879,125.388931 C47.7089575,125.502524 51.5711112,126.070487 53.2750025,126.752044 C54.9788938,127.433601 57.250749,129.137492 58.2730838,129.47827 C59.2954186,129.819048 66.3381694,130.614198 69.0643956,130.614198 C70.8818797,130.614198 97.3489918,130.614198 148.465732,130.614198 C152.706528,130.462741 155.12984,130.235555 155.735668,129.932641 C156.64441,129.47827 160.847342,126.752044 161.642492,126.752044 C162.437641,126.752044 186.405712,123.457854 191.971757,121.64037 C197.537802,119.822886 199.014508,118.34618 201.399956,115.279176" id="Path-12" stroke="#000000"></path>
                        <path d="M202.195105,130.159827 C195.682454,132.886053 190.419323,134.55208 186.405712,135.157908 C180.385296,136.06665 176.182364,136.407428 172.888174,141.973473 C169.593985,147.539518 162.096863,158.785201 161.528899,159.353165 C160.960935,159.921129 158.575487,163.215319 148.465732,163.66969 C141.725895,163.972604 117.606367,164.124061 76.1071464,164.124061 C66.2624409,164.124061 59.4468756,163.13959 55.6604504,161.170649 C49.9808126,158.217237 45.3235096,146.971555 43.5060255,143.790957 C41.6885414,140.61036 42.0293197,137.884134 34.418605,136.06665 C26.8078904,134.249166 14.5398728,132.545275 12.3816104,129.705456" id="Path-13" stroke="#000000"></path>
                        <rect id="Rectangle-2" stroke="#000000" x="91.3062409" y="132.977311" width="32.418605" height="16.7428047" rx="3"></rect>
                    </g>
                    <g id="top" transform="translate(10.793413, 0.000000)" stroke="#000000" stroke-width="2">
                        <path d="M1.33064304,168.485754 L1.20967551,128.994796 C1.15554735,128.990757 1.09663581,128.986293 1.03203294,128.981354 L1.02706827,128.980975 C1.01792469,128.980276 1.0089028,128.979587 1,128.978908 C1,143.819935 1,144.332892 1,168.318899 C1,168.41105 1.07470373,168.485754 1.16685545,168.485754 L1.33064304,168.485754 Z" id="Path"></path>
                        <path d="M191.489152,129.305733 L191.489152,168.485754 L191.656008,168.485754 C191.748159,168.485754 191.822863,168.41105 191.822863,168.318899 C191.822863,143.403925 191.822863,142.825869 191.822863,129.279824 C191.794562,129.28202 191.76506,129.284325 191.734271,129.286742 L191.724425,129.287515 C191.636659,129.294406 191.558922,129.30044 191.489152,129.305733 Z" id="Path"></path>
                        <polyline id="Path-17" points="30.0465278 57.4676309 11.9602684 12.8354099 0.875141587 0.291713862"></polyline>
                        <polyline id="Path-17-Copy" transform="translate(177.070314, 28.879672) scale(-1, 1) translate(-177.070314, -28.879672) " points="191.656008 57.4676309 173.569748 12.8354099 162.484621 0.291713862"></polyline>
                        <path d="M29.754814,56.8842031 L12.2519822,52.8002091" id="Path-18"></path>
                        <path d="M162.776335,57.4676309 L182.612878,51.6333536" id="Path-19"></path>
                        <path d="M12.5436961,12 L180.862595,12" id="Path-20"></path>
                        <polyline id="Path-2" points="1.2065871 97 1.2065871 1 192.206587 1 192.206587 96"></polyline>
                    </g>
                </g>
                <g id="van-1">
                    <g id="headlights" transform="translate(17.000000, 126.000000)" fill="#FBB040">
                        <path d="M4.00339808,0.312102366 L4.29511195,1.18724395 L4.58682581,2.06238554 L5.75368126,3.22924099 L7.50396443,4.6878103 L12.4631001,6.72980734 L20.3393744,9.3552321 L30.2576457,12.5640846 L33.4664982,14.8977955 L33.758212,17.5232202 L33.758212,21.0237866 L32.5913566,23.9409252 L29.0907902,28.3166331 L25.0067962,32.1089134 L21.214516,32.1089134 L17.1305219,30.9420579 L11.2962446,29.7752025 L5.4619674,28.9000609 L2.10725798,26.8580638 L0.502831737,25.6912084 L0.211117874,23.6492113 L0.211117874,17.8149341 L1.08625946,10.8138014 L4.00339808,0.312102366 Z M175.822863,0.312102366 L178.740002,10.8138014 L179.615143,17.8149341 L179.615143,23.6492113 L179.323429,25.6912084 L177.719003,26.8580638 L174.364294,28.9000609 L168.530016,29.7752025 L162.695739,30.9420579 L158.611745,32.1089134 L154.819465,32.1089134 L150.735471,28.3166331 L147.234904,23.9409252 L146.068049,21.0237866 L146.068049,17.5232202 L146.359763,14.8977955 L149.568615,12.5640846 L159.486887,9.3552321 L167.363161,6.72980734 L172.322297,4.6878103 L174.07258,3.22924099 L175.239435,2.06238554 L175.531149,1.18724395 L175.822863,0.312102366 Z"></path>
                    </g>
                    <g id="body" transform="translate(0.000000, 54.000000)" stroke-width="2">
                        <path d="M106.777191,0.550492246 C64.5206853,1.30777728 42.2943694,2.25438358 40.0982428,3.39031114 C36.8040529,5.09420248 34.8729761,7.47965035 33.509863,12.0233606 C32.1467499,16.5670708 26.3535194,40.3079568 26.0127411,40.8759206 C25.6719628,41.4438844 23.286515,44.5108888 22.4913657,47.2371149 C21.6962164,49.9633411 20.1059178,54.9614223 19.992325,56.6653136 C19.8787323,58.369205 20.1059178,60.1866891 19.1971757,60.4138746 C18.2884337,60.6410601 16.4709496,60.9818384 16.3573568,59.1643543 C16.2437641,57.3468702 14.7670583,46.1011874 14.0855017,44.6244815 C13.4039452,43.1477757 13.6311307,42.6934047 9.76897701,42.5798119 C5.90682331,42.4662192 2.61263339,42.5798119 1.93107685,44.6244815 C1.24952031,46.6691511 4.44983488e-16,53.5983092 0,57.6876485 C0,61.7769877 -1.85228899e-16,67.683811 0.681556535,68.8197385 C1.36311307,69.9556661 2.49904063,72.9090777 8.17867842,73.3634488 C13.8583162,73.8178198 15.1078365,73.5906343 15.335022,73.3634488 C15.5622076,73.1362633 15.6758003,71.8867429 15.9029858,71.8867429 C16.1301713,71.8867429 17.9476554,71.7731502 17.9476554,73.0226705 C17.9476554,74.2721908 18.8563975,78.1343445 18.8563975,78.7023083 C18.8563975,79.2702721 17.4932844,86.5402084 17.3796916,87.9033215 C17.2660989,89.2664346 16.8117279,96.536371 17.2660989,97.445113 C17.7204699,98.3538551 19.537954,100.057746 24.4224425,101.193674 C29.306931,102.329602 35.7817181,103.806307 36.2360891,103.9199 C36.6904601,104.033493 40.0982428,105.055828 42.4836907,104.033493 C44.0739893,103.351936 46.6108942,100.322796 50.0944053,94.9460724 C51.5332469,90.0237196 51.0410116,86.8431225 48.6176995,85.4042809 C44.9827313,83.2460185 34.8729761,80.7469779 33.2826775,80.0654214 C31.6923789,79.3838648 25.5583701,77.452788 24.4224425,76.6576387 C23.286515,75.8624894 20.7874743,74.1585981 20.9010671,71.5459647" id="Path-3" stroke="#000000"></path>
                        <path d="M214.122345,0.550492246 C213.452558,0.555719662 213.045147,0.559642759 212.900112,0.562261535 C171.068424,1.31757742 149.060198,2.26026063 146.875433,3.39031114 C143.581243,5.09420248 141.650167,7.47965035 140.287054,12.0233606 C138.92394,16.5670708 133.13071,40.3079568 132.789932,40.8759206 C132.449153,41.4438844 130.063705,44.5108888 129.268556,47.2371149 C128.473407,49.9633411 126.883108,54.9614223 126.769516,56.6653136 C126.655923,58.369205 126.883108,60.1866891 125.974366,60.4138746 C125.065624,60.6410601 123.24814,60.9818384 123.134547,59.1643543 C123.020955,57.3468702 121.544249,46.1011874 120.862692,44.6244815 C120.181136,43.1477757 120.408321,42.6934047 116.546168,42.5798119 C112.684014,42.4662192 109.389824,42.5798119 108.708267,44.6244815 C108.026711,46.6691511 106.777191,53.5983092 106.777191,57.6876485 C106.777191,61.7769877 106.777191,67.683811 107.458747,68.8197385 C108.140304,69.9556661 109.276231,72.9090777 114.955869,73.3634488 C120.635507,73.8178198 121.885027,73.5906343 122.112213,73.3634488 C122.339398,73.1362633 122.452991,71.8867429 122.680176,71.8867429 C122.907362,71.8867429 124.724846,71.7731502 124.724846,73.0226705 C124.724846,74.2721908 125.633588,78.1343445 125.633588,78.7023083 C125.633588,79.2702721 124.270475,86.5402084 124.156882,87.9033215 C124.043289,89.2664346 123.588918,96.536371 124.043289,97.445113 C124.49766,98.3538551 126.315145,100.057746 131.199633,101.193674 C136.084122,102.329602 142.558909,103.806307 143.01328,103.9199 C143.467651,104.033493 146.875433,105.055828 149.260881,104.033493 C150.85118,103.351936 153.388085,100.322796 156.871596,94.9460724 C158.310437,90.0237196 157.818202,86.8431225 155.39489,85.4042809 C151.759922,83.2460185 141.650167,80.7469779 140.059868,80.0654214 C138.469569,79.3838648 132.335561,77.452788 131.199633,76.6576387 C130.063705,75.8624894 127.564665,74.1585981 127.678258,71.5459647" id="Path-3-Copy" stroke="#000000" transform="translate(160.449768, 52.517131) scale(-1, 1) translate(-160.449768, -52.517131) "></path>
                        <path d="M20.9010671,71.5459647 C19.7651395,76.4683174 18.9699902,79.6867788 18.5156192,81.2013489" id="Path-4" stroke="#000000"></path>
                        <path d="M17.0389134,93.4693666 C16.4330853,93.6208236 15.9029858,95.4383077 15.4486148,98.9218188 C14.7670583,104.147086 13.971909,108.577203 13.7447235,109.145167 C13.5175379,109.713131 12.7223887,114.711212 12.6087959,119.141329 C12.4952031,123.571447 12.0408321,130.046234 12.7223887,134.81713 C13.4039452,139.588025 14.3126872,144.245328 14.1990945,146.744369 C14.0855017,149.24341 13.971909,162.192984 14.0855017,165.259988 C14.1990945,168.326993 14.9942438,177.073635 15.6758003,179.004712 C16.3573568,180.935789 17.0389134,182.412494 18.9699902,182.980458 C20.9010671,183.548422 32.3739354,183.548422 34.9865688,182.980458 C37.5992022,182.412494 39.4166863,177.755191 39.530279,175.824115 C39.6060075,174.53673 39.7574646,171.924097 39.9846501,167.986214 C46.0429304,168.289128 49.3749846,168.440585 49.9808126,168.440585 C50.8895546,168.440585 52.1390749,168.894956 52.3662605,169.122142 C52.593446,169.349327 53.7293735,170.598848 61.3400882,170.598848 C68.9508028,170.598848 102.347073,170.598848 103.596593,170.598848 C104.846114,170.598848 135.629751,170.598848 137.333642,170.598848 C139.037533,170.598848 146.193877,170.826033 150.510402,170.826033 C154.826926,170.826033 159.370636,170.598848 160.052193,170.371662 C160.73375,170.144477 162.324048,168.781364 162.892012,168.781364 C163.459976,168.781364 172.660989,168.440585 172.888174,168.2134 C173.039631,168.061943 173.266817,169.955156 173.569731,173.893038 C174.099831,177.073635 174.554202,178.928983 174.932844,179.459083 C175.500808,180.254232 176.068772,182.412494 179.476554,183.321236 C182.884337,184.229978 194.697984,184.116386 195.606726,182.980458 C196.515468,181.844531 199.128101,179.459083 199.468879,170.371662 C199.809658,161.284242 199.696065,148.561853 199.809658,146.517184 C199.92325,144.472514 201.627142,138.224912 201.854327,133.908388 C202.081513,129.591863 201.854327,128.796714 201.854327,124.93456 C201.854327,121.072406 201.286363,115.506361 201.286363,114.824805 C201.286363,114.143248 198.105766,94.9460724 197.083431,92.9014028" id="Path-5" stroke="#000000"></path>
                        <path d="" id="Path-6" stroke="#000000"></path>
                        <path d="M193.33487,71.5459647 C194.470798,76.3168604 195.152355,79.0430866 195.37954,79.7246431" id="Path-7" stroke="#000000"></path>
                        <path d="M108.253896,86.3130229 C83.7935896,86.4644799 70.7682869,86.6916655 69.1779883,86.9945795 C66.7925405,87.4489505 62.7032012,87.9033215 59.2954186,93.6965521 C55.8876359,99.4897826 51.7982967,109.599538 51.5711112,110.849058 C51.3439257,112.098579 50.6623691,114.824805 52.593446,117.778216 C54.5245228,120.731628 57.4779345,124.707374 60.6585316,125.275338 C63.8391288,125.843302 100.756774,126.865637 110.07138,126.865637 C119.385986,126.865637 148.920103,126.070487 151.191958,125.956895 C153.463813,125.843302 155.508483,125.729709 157.666745,123.344261 C159.825008,120.958813 162.664826,117.551031 162.892012,116.528696 C163.119197,115.506361 163.573568,113.120913 162.551234,110.281094 C161.528899,107.441276 157.893931,98.1266695 156.190039,95.5140362 C154.486148,92.9014028 153.009442,89.0392491 147.216212,87.676136 C143.354058,86.767394 130.366619,86.3130229 108.253896,86.3130229 Z" id="Path-8" stroke="#000000"></path>
                        <path d="M109.162638,7.13887209 C68.1935178,7.82042862 46.0807946,8.3883924 42.824469,8.84276342 C37.9399805,9.52431996 38.9623153,8.84276342 36.1224964,22.3603014 C33.2826775,35.8778393 32.8283064,38.831251 32.4875282,40.8759206 C32.1467499,42.9205902 31.2380079,50.1905266 31.4651934,53.0303455 C31.6923789,55.8701644 31.0108224,57.0060919 35.5545326,58.1420195 C40.0982428,59.277947 40.6662066,59.8459108 46.3458444,59.8459108 C50.1322696,59.8459108 91.5936255,59.8459108 170.729912,59.8459108 C176.863921,59.1643543 180.385296,58.4449335 181.294038,57.6876485 C182.657151,56.5517209 183.452301,56.8924992 182.657151,49.6225628 C181.862002,42.3526264 180.498889,34.173948 180.044518,31.9020929 C179.590147,29.6302377 176.182364,14.0680302 175.955179,13.5000664 C175.727993,12.9321026 175.727993,8.72917067 171.297876,8.50198516 C166.867758,8.27479965 138.92394,7.3660576 137.106456,7.3660576 C135.8948,7.3660576 126.580194,7.29032909 109.162638,7.13887209 Z" id="Path-9" stroke="#000000"></path>
                        <path d="M60.7721244,148.561853 C63.8012645,154.544405 65.6566129,157.838595 66.3381694,158.444423 C67.3605042,159.353165 69.7459521,162.420169 77.3566668,162.420169 C82.4304765,162.420169 102.460666,162.420169 137.447235,162.420169 C143.202601,163.101726 147.329804,161.132785 149.828845,156.513346 C152.327886,151.893907 153.842456,149.432731 154.372555,149.129817 C146.875433,149.659916 142.521044,149.924966 141.309388,149.924966 C139.491904,149.924966 137.333642,150.265744 136.765678,149.924966 C136.197714,149.584188 135.970529,149.129817 135.175379,149.129817 C134.808972,149.129817 124.117914,149.692729 107,149.584188 C105.152569,149.572474 99.7852772,149.657019 97,149.584188 C93.7325789,149.49875 88.3964572,149.2337 80.9916349,148.789039 C79.7799789,148.789039 78.9848296,148.940496 78.6061871,149.24341 C78.0382233,149.697781 79.0605581,149.584188 75.4255899,149.584188 C73.0022778,149.584188 68.1177893,149.24341 60.7721244,148.561853 Z" id="Path-10" stroke="#000000"></path>
                        <path d="" id="Path-11" stroke="#979797"></path>
                        <path d="M12.8359814,115.279176 C14.729194,117.172388 15.9029858,118.308316 16.3573568,118.686958 C17.0389134,119.254922 20.5602888,121.185999 27.1486687,122.321927 C33.7370485,123.457854 43.6196183,125.275338 45.6642879,125.388931 C47.7089575,125.502524 51.5711112,126.070487 53.2750025,126.752044 C54.9788938,127.433601 57.250749,129.137492 58.2730838,129.47827 C59.2954186,129.819048 66.3381694,130.614198 69.0643956,130.614198 C70.8818797,130.614198 97.3489918,130.614198 148.465732,130.614198 C152.706528,130.462741 155.12984,130.235555 155.735668,129.932641 C156.64441,129.47827 160.847342,126.752044 161.642492,126.752044 C162.437641,126.752044 186.405712,123.457854 191.971757,121.64037 C197.537802,119.822886 199.014508,118.34618 201.399956,115.279176" id="Path-12" stroke="#000000"></path>
                        <path d="M202.195105,130.159827 C195.682454,132.886053 190.419323,134.55208 186.405712,135.157908 C180.385296,136.06665 176.182364,136.407428 172.888174,141.973473 C169.593985,147.539518 162.096863,158.785201 161.528899,159.353165 C160.960935,159.921129 158.575487,163.215319 148.465732,163.66969 C141.725895,163.972604 117.606367,164.124061 76.1071464,164.124061 C66.2624409,164.124061 59.4468756,163.13959 55.6604504,161.170649 C49.9808126,158.217237 45.3235096,146.971555 43.5060255,143.790957 C41.6885414,140.61036 42.0293197,137.884134 34.418605,136.06665 C26.8078904,134.249166 14.5398728,132.545275 12.3816104,129.705456" id="Path-13" stroke="#000000"></path>
                        <rect id="Rectangle-2" stroke="#000000" x="91.3062409" y="132.977311" width="32.418605" height="16.7428047" rx="3"></rect>
                    </g>
                    <g id="top" transform="translate(10.793413, 0.000000)" stroke="#000000" stroke-width="2">
                        <path d="M1.33064304,168.485754 L1.20967551,128.994796 C1.15554735,128.990757 1.09663581,128.986293 1.03203294,128.981354 L1.02706827,128.980975 C1.01792469,128.980276 1.0089028,128.979587 1,128.978908 C1,143.819935 1,144.332892 1,168.318899 C1,168.41105 1.07470373,168.485754 1.16685545,168.485754 L1.33064304,168.485754 Z" id="Path"></path>
                        <path d="M191.489152,129.305733 L191.489152,168.485754 L191.656008,168.485754 C191.748159,168.485754 191.822863,168.41105 191.822863,168.318899 C191.822863,143.403925 191.822863,142.825869 191.822863,129.279824 C191.794562,129.28202 191.76506,129.284325 191.734271,129.286742 L191.724425,129.287515 C191.636659,129.294406 191.558922,129.30044 191.489152,129.305733 Z" id="Path"></path>
                        <polyline id="Path-17" points="30.0465278 57.4676309 11.9602684 12.8354099 0.875141587 0.291713862"></polyline>
                        <polyline id="Path-17-Copy" transform="translate(177.070314, 28.879672) scale(-1, 1) translate(-177.070314, -28.879672) " points="191.656008 57.4676309 173.569748 12.8354099 162.484621 0.291713862"></polyline>
                        <path d="M29.754814,56.8842031 L12.2519822,52.8002091" id="Path-18"></path>
                        <path d="M162.776335,57.4676309 L182.612878,51.6333536" id="Path-19"></path>
                        <path d="M12.5436961,12 L180.862595,12" id="Path-20"></path>
                        <polyline id="Path-2" points="1.2065871 97 1.2065871 1 192.206587 1 192.206587 96"></polyline>
                    </g>
                </g>
            </g>
        </g>
    </g>
</svg>