<?xml version="1.0" encoding="UTF-8"?>
<svg width="324px" height="340px" viewBox="0 0 324 340" version="1.1" xmlns="http://www.w3.org/2000/svg" xmlns:xlink="http://www.w3.org/1999/xlink">
    <!-- Generator: Sketch 46 (44423) - http://www.bohemiancoding.com/sketch -->
    <title>be protected</title>
    <desc>Created with Sketch.</desc>
    <defs></defs>
    <g id="Symbols" stroke="none" stroke-width="1" fill="none" fill-rule="evenodd">
        <g id="be-protected" transform="translate(1.000000, 2.000000)">
            <g>
                <g id="sheild" transform="translate(48.000000, 0.000000)" stroke="#FFFFFF" stroke-width="3" fill-rule="nonzero">
                    <path d="M0.461834421,50.8128962 L0.461834421,95.4812058 M69.0554103,295.167362 C87.8070473,312.128209 109.796745,325.79211 134.250852,335.020074 L136.518462,335.775945 L138.786073,335.020074 C218.908309,304.785268 272.57509,226.930642 272.57509,141.517315 L272.57509,50.8128962 L136.518462,0.169595785 L0.461834421,50.8128962" id="Shape"></path>
                </g>
                <g id="wi-fi-sign" transform="translate(166.000000, 113.000000)" fill-rule="nonzero" fill="#FBB040">
                    <path d="M8,67.9043788 C11.43698,66.5724036 15.1061057,65.8788097 18.8258909,65.8765306 C24.519994,65.8728223 30.0976408,67.4891766 34.9074831,70.5368383 L52.2600683,53.2195585 C37.3134011,41.4978775 17.7447648,38.6984776 0.590438142,44.8213588 L0.590438142,65 L8,65 L8,67.9043788 Z M0.590438142,26.8565168 C6.50040199,25.2975538 12.6269857,24.4942248 18.8258909,24.4986469 L18.8258909,24.4986469 C35.5024323,24.4867505 51.6555557,30.3208638 64.4757233,40.9862507 L81.6517817,23.8101923 C58.7476311,3.82992069 28.6949522,-3.43763631 0.590438142,2.00752132 L0.590438142,26.8565168 Z M20.9442126,84.5001088 L20.9442126,84.5001088 C26.6001514,85.4880493 30.743745,90.3742224 30.7944084,96.1155728 C30.7927547,96.7074899 30.7395962,97.2981404 30.6355343,97.8808408 C30.5212754,98.551481 30.356038,99.2124309 30.1412592,99.8579411 C29.3735982,102.166587 27.9126501,104.182325 25.9575739,105.630368 C24.3613796,106.84855 22.4865861,107.649433 20.5028955,107.960522 C19.9192832,108.057623 19.3291991,108.11073 18.7376275,108.119396 C18.1456722,108.103919 17.5556574,108.044918 16.9723594,107.942869 C11.8093663,107.161022 7.76219336,103.099522 6.99859475,97.9337989 C6.89504089,97.3507085 6.83602811,96.7605806 6.82206795,96.1685308 C6.84874656,90.4015491 11.0074282,85.4840382 16.6899165,84.5001088 C18.0938092,84.2162392 19.5403199,84.2162392 20.9442126,84.5001088 Z" id="Combined-Shape"></path>
                </g>
                <g id="van-1" transform="translate(0.000000, 98.000000)">
                    <g id="headlights" transform="translate(14.000000, 104.000000)" fill="#FBB040">
                        <path d="M3.29168287,0.255356481 L3.53153649,0.971381416 L3.77139011,1.68740635 L4.73080459,2.64210626 L6.16992631,3.83548115 L10.2474379,5.506206 L16.7234856,7.65428081 L24.8785087,10.2797056 L27.5168985,12.1891054 L27.7567521,14.3371802 L27.7567521,17.2012799 L26.7973376,19.5880297 L23.9190942,23.1681544 L20.5611435,26.2709291 L17.4430465,26.2709291 L14.0850958,25.3162292 L9.28802337,24.3615293 L4.49095097,23.6455043 L1.73263434,21.9747795 L0.413439428,21.0200796 L0.173585808,19.3493547 L0.173585808,14.5758552 L0.893146668,8.8476557 L3.29168287,0.255356481 Z M144.565465,0.255356481 L146.964001,8.8476557 L147.683562,14.5758552 L147.683562,19.3493547 L147.443709,21.0200796 L146.124514,21.9747795 L143.366197,23.6455043 L138.569125,24.3615293 L133.772052,25.3162292 L130.414102,26.2709291 L127.296004,26.2709291 L123.938054,23.1681544 L121.05981,19.5880297 L120.100396,17.2012799 L120.100396,14.3371802 L120.340249,12.1891054 L122.978639,10.2797056 L131.133662,7.65428081 L137.60971,5.506206 L141.687222,3.83548115 L143.126343,2.64210626 L144.085758,1.68740635 L144.325611,0.971381416 L144.565465,0.255356481 Z"></path>
                    </g>
                    <g id="body" transform="translate(0.000000, 44.000000)" stroke="#FFFFFF" stroke-width="2">
                        <path d="M87.4083048,0.451762658 C52.8169331,1.07323027 34.6223675,1.85006479 32.8246081,2.78226621 C30.1279689,4.18056834 28.5471804,6.13819132 27.4313297,9.86699701 C26.315479,13.5958027 21.5731135,33.0788124 21.2941509,33.5449131 C21.0151882,34.0110138 19.0624495,36.5279576 18.4115365,38.765241 C17.7606236,41.0025244 16.4587978,45.1042107 16.3658103,46.5025128 C16.2728227,47.900815 16.4587978,49.3923372 15.7148974,49.5787775 C14.9709969,49.7652178 13.483196,50.0448782 13.3902084,48.553356 C13.2972208,47.0618337 12.0883826,37.8330396 11.5304572,36.6211778 C10.9725319,35.4093159 11.158507,35.0364354 7.99693001,34.9432152 C4.83535303,34.8499951 2.13871384,34.9432152 1.58078849,36.6211778 C1.02286314,38.2991403 3.64265553e-16,43.985569 0,47.3414941 C0,50.6974192 -1.51629238e-16,55.5448666 0.55792535,56.477068 C1.1158507,57.4092695 2.04572628,59.8329931 6.6951042,60.2058737 C11.3444821,60.5787543 12.3673453,60.392314 12.5533204,60.2058737 C12.7392955,60.0194334 12.832283,58.9940119 13.0182582,58.9940119 C13.2042333,58.9940119 14.6920342,58.9007917 14.6920342,59.9262133 C14.6920342,60.9516348 15.4359347,64.1211197 15.4359347,64.5872204 C15.4359347,65.0533211 14.320084,71.0194102 14.2270964,72.1380519 C14.1341089,73.2566936 13.7621586,79.2227827 14.1341089,79.9685438 C14.5060591,80.714305 15.99386,82.1126071 19.992325,83.0448085 C23.99079,83.9770099 29.2910809,85.1888718 29.6630311,85.2820919 C30.0349813,85.3753121 32.8246081,86.2142933 34.7773468,85.3753121 C36.0791726,84.8159912 38.1558948,82.3301208 41.0075132,77.9177007 C42.1853556,73.8781612 41.7824095,71.2679972 39.798675,70.0872088 C36.8230731,68.3160261 28.5471804,66.2651829 27.2453546,65.7058621 C25.9435288,65.1465412 20.9222006,63.5617988 19.992325,62.9092578 C19.0624495,62.2567168 17.0167232,60.8584147 17.1097107,58.7143514" id="Path-3"></path>
                        <path d="M175.281547,0.451762658 C174.733257,0.456052549 174.399749,0.459272046 174.281022,0.461421151 C140.037407,1.08127278 122.021371,1.8548878 120.232913,2.78226621 C117.536274,4.18056834 115.955485,6.13819132 114.839634,9.86699701 C113.723784,13.5958027 108.981418,33.0788124 108.702456,33.5449131 C108.423493,34.0110138 106.470754,36.5279576 105.819841,38.765241 C105.168928,41.0025244 103.867103,45.1042107 103.774115,46.5025128 C103.681128,47.900815 103.867103,49.3923372 103.123202,49.5787775 C102.379302,49.7652178 100.891501,50.0448782 100.798513,48.553356 C100.705526,47.0618337 99.4966874,37.8330396 98.938762,36.6211778 C98.3808367,35.4093159 98.5668118,35.0364354 95.4052348,34.9432152 C92.2436578,34.8499951 89.5470186,34.9432152 88.9890933,36.6211778 C88.4311679,38.2991403 87.4083048,43.985569 87.4083048,47.3414941 C87.4083048,50.6974192 87.4083048,55.5448666 87.9662301,56.477068 C88.5241555,57.4092695 89.4540311,59.8329931 94.103409,60.2058737 C98.7527869,60.5787543 99.7756501,60.392314 99.9616252,60.2058737 C100.1476,60.0194334 100.240588,58.9940119 100.426563,58.9940119 C100.612538,58.9940119 102.100339,58.9007917 102.100339,59.9262133 C102.100339,60.9516348 102.844239,64.1211197 102.844239,64.5872204 C102.844239,65.0533211 101.728389,71.0194102 101.635401,72.1380519 C101.542414,73.2566936 101.170463,79.2227827 101.542414,79.9685438 C101.914364,80.714305 103.402165,82.1126071 107.40063,83.0448085 C111.399095,83.9770099 116.699386,85.1888718 117.071336,85.2820919 C117.443286,85.3753121 120.232913,86.2142933 122.185652,85.3753121 C123.487477,84.8159912 125.5642,82.3301208 128.415818,77.9177007 C129.59366,73.8781612 129.190714,71.2679972 127.20698,70.0872088 C124.231378,68.3160261 115.955485,66.2651829 114.653659,65.7058621 C113.351834,65.1465412 108.330505,63.5617988 107.40063,62.9092578 C106.470754,62.2567168 104.425028,60.8584147 104.518016,58.7143514" id="Path-3-Copy" transform="translate(131.344926, 43.098297) scale(-1, 1) translate(-131.344926, -43.098297) "></path>
                        <path d="M17.1097107,58.7143514 C16.1798351,62.7538909 15.5289222,65.3951283 15.156972,66.6380635" id="Path-4"></path>
                        <path d="M13.9481337,76.7058389 C13.4522001,76.8301324 13.0182582,78.3216547 12.6463079,81.1804057 C12.0883826,85.4685322 11.4374697,89.1041177 11.2514946,89.5702185 C11.0655194,90.0363192 10.4146065,94.1380054 10.321619,97.773591 C10.2286314,101.409176 9.85668118,106.722725 10.4146065,110.637971 C10.9725319,114.553217 11.7164323,118.375242 11.6234448,120.426085 C11.5304572,122.476929 11.4374697,133.104025 11.5304572,135.620969 C11.6234448,138.137912 12.2743577,145.315863 12.832283,146.900606 C13.3902084,148.485348 13.9481337,149.69721 15.5289222,150.163311 C17.1097107,150.629412 26.5014541,150.629412 28.640168,150.163311 C30.7788818,149.69721 32.2666827,145.875184 32.3596703,144.290442 C32.421662,143.233947 32.5456454,141.089884 32.7316205,137.858252 C37.690957,138.106839 40.418592,138.231133 40.9145257,138.231133 C41.6584261,138.231133 42.6812893,138.604013 42.8672644,138.790453 C43.0532395,138.976894 43.9831151,140.002315 50.2132815,140.002315 C56.4434479,140.002315 83.78179,140.002315 84.8046532,140.002315 C85.8275163,140.002315 111.027145,140.002315 112.421958,140.002315 C113.816771,140.002315 119.674988,140.188756 123.208515,140.188756 C126.742042,140.188756 130.461544,140.002315 131.01947,139.815875 C131.577395,139.629435 132.879221,138.510793 133.344159,138.510793 C133.809096,138.510793 141.341089,138.231133 141.527064,138.044692 C141.651047,137.920399 141.837022,139.474068 142.084989,142.705699 C142.518931,145.315863 142.890881,146.838459 143.20084,147.273486 C143.665778,147.926027 144.130715,149.69721 146.920342,150.442971 C149.709969,151.188732 159.380675,151.095512 160.124575,150.163311 C160.868476,149.231109 163.00719,147.273486 163.286152,139.815875 C163.565115,132.358264 163.472127,121.917608 163.565115,120.239645 C163.658103,118.561683 165.052916,113.434575 165.238891,109.892209 C165.424866,106.349844 165.238891,105.697303 165.238891,102.527818 C165.238891,99.3583334 164.773953,94.7905464 164.773953,94.2312256 C164.773953,93.6719047 162.170302,77.9177007 161.333414,76.2397381" id="Path-5"></path>
                        <path d="" id="Path-6"></path>
                        <path d="M158.264824,58.7143514 C159.1947,62.6295974 159.752625,64.8668808 159.9386,65.4262017" id="Path-7"></path>
                        <path d="M88.6171431,70.8329699 C68.5938222,70.9572634 57.9312488,71.1437037 56.629423,71.3922908 C54.6766843,71.7651713 51.3291322,72.1380519 48.5395054,76.8922791 C45.7498787,81.6465064 42.4023266,89.943099 42.2163515,90.9685206 C42.0303764,91.9939422 41.472451,94.2312256 43.0532395,96.6549493 C44.634028,99.0786729 47.0517045,102.341378 49.6553561,102.807479 C52.2590078,103.273579 82.4799642,104.112561 90.104944,104.112561 C97.7299238,104.112561 121.906689,103.46002 123.76644,103.366799 C125.626191,103.273579 127.299967,103.180359 129.066731,101.222736 C130.833495,99.2651132 133.158183,96.468509 133.344159,95.6295277 C133.530134,94.7905464 133.902084,92.8329234 133.065196,90.5024199 C132.228308,88.1719163 129.252706,80.5278647 127.857893,78.3838014 C126.463079,76.2397381 125.254241,73.0702533 120.511876,71.9516116 C117.350299,71.2058505 106.718721,70.8329699 88.6171431,70.8329699 Z" id="Path-8"></path>
                        <path d="M89.3610435,5.8585309 C55.8235308,6.41785175 37.7219528,6.88395246 35.0563095,7.25683303 C31.0578445,7.81615388 31.8947325,7.25683303 29.5700435,18.3500299 C27.2453546,29.4432268 26.8734043,31.8669505 26.5944417,33.5449131 C26.315479,35.2228756 25.5715785,41.1889647 25.7575536,43.5194683 C25.9435288,45.8499718 25.3856034,46.7821733 29.1051057,47.7143747 C32.8246081,48.6465761 33.2895459,49.1126768 37.9389238,49.1126768 C41.0385091,49.1126768 74.9789678,49.1126768 139.7603,49.1126768 C144.781628,48.553356 147.664243,47.9629617 148.408143,47.3414941 C149.523994,46.4092927 150.174907,46.6889531 149.523994,40.722864 C148.873081,34.7567749 147.75723,28.0449247 147.38528,26.1805219 C147.01333,24.316119 144.223703,11.5449596 144.037728,11.0788589 C143.851753,10.6127581 143.851753,7.16361289 140.225238,6.9771726 C136.598723,6.79073232 113.723784,6.04497118 112.235983,6.04497118 C111.244116,6.04497118 103.619136,5.98282442 89.3610435,5.8585309 Z" id="Path-9"></path>
                        <path d="M49.7483437,121.917608 C52.2280119,126.827202 53.7468087,129.530586 54.304734,130.02776 C55.1416221,130.773521 57.0943608,133.290465 63.3245272,133.290465 C67.4779715,133.290465 83.8747776,133.290465 112.514946,133.290465 C117.226315,133.849786 120.604863,132.23397 122.650589,128.443018 C124.696316,124.652065 125.93615,122.632296 126.370092,122.383708 C120.232913,122.818736 116.66839,123.036249 115.676523,123.036249 C114.188722,123.036249 112.421958,123.31591 111.95702,123.036249 C111.492082,122.756589 111.306107,122.383708 110.655194,122.383708 C110.355252,122.383708 101.603502,122.845664 87.5906977,122.756589 C86.0783818,122.746976 81.6846921,122.816358 79.4046512,122.756589 C76.7299251,122.686474 72.361751,122.46896 66.3001291,122.104048 C65.3082618,122.104048 64.6573489,122.228342 64.3473903,122.476929 C63.8824526,122.849809 64.7193406,122.756589 61.7437387,122.756589 C59.7600041,122.756589 55.7615391,122.476929 49.7483437,121.917608 Z" id="Path-10"></path>
                        <path d="" id="Path-11"></path>
                        <path d="M10.5075941,94.6041061 C12.0573867,96.1577752 13.0182582,97.0899766 13.3902084,97.4007104 C13.9481337,97.8668111 16.8307481,99.4515535 22.2240264,100.383755 C27.6173048,101.315956 35.7072224,102.807479 37.3809984,102.900699 C39.0547745,102.993919 42.2163515,103.46002 43.6111648,104.01934 C45.0059782,104.578661 46.8657294,105.976963 47.7026174,106.256624 C48.5395054,106.536284 54.304734,107.188825 56.5364354,107.188825 C58.0242364,107.188825 79.6903375,107.188825 121.534739,107.188825 C125.006274,107.064532 126.990009,106.878091 127.485942,106.629504 C128.229843,106.256624 131.670383,104.01934 132.321295,104.01934 C132.972208,104.01934 152.592583,101.315956 157.148974,99.8244341 C161.705364,98.3329118 162.914202,97.12105 164.866941,94.6041061" id="Path-12"></path>
                        <path d="M165.517854,106.815945 C160.186567,109.053228 155.878144,110.420457 152.592583,110.917631 C147.664243,111.663392 144.223703,111.943053 141.527064,116.51084 C138.830425,121.078626 132.693246,130.307421 132.228308,130.773521 C131.76337,131.239622 129.810631,133.943006 121.534739,134.315887 C116.017477,134.564474 96.2731187,134.688767 62.3016641,134.688767 C54.2427423,134.688767 48.6634888,133.880859 45.5639036,132.265044 C40.9145257,129.84132 37.1020358,120.612526 35.6142348,118.002362 C34.1264339,115.392198 34.4053966,113.154914 28.1752302,111.663392 C21.9450638,110.17187 11.9024075,108.773568 10.1356439,106.443064" id="Path-13"></path>
                        <rect id="Rectangle-2" x="74.9251088" y="109.307467" width="26.1752302" height="13.3813234" rx="3"></rect>
                    </g>
                    <g id="top" transform="translate(9.000000, 0.000000)" stroke="#FFFFFF" stroke-width="2">
                        <path d="M1,106.408726 C1,106.08195 1,105.746686 1,105.402321 C1,105.40025 0.999999202,105.401069 0.999997607,105.401887 C0.999510195,105.6519 0.92458763,105.848913 0.808250289,105.999133 C0.703141514,106.134854 0.564226643,106.232377 0.415858062,106.296279 C0.325275837,106.335293 0.260676177,106.34984 0.19991698,106.357327 C0.187520311,106.358854 0.213322006,106.358258 0.257551003,106.359351 C0.372440956,106.36219 0.506203871,106.370969 0.809453392,106.394236 C0.815089307,106.394669 0.820783763,106.395106 0.826537728,106.395549 L0.830601562,106.395861 C0.89310822,106.400668 0.949168071,106.404935 1,106.408726 C1.24052702,106.426663 1.36400073,106.433952 1.49955619,106.437497 C1.6329008,106.440984 1.74224007,106.438704 1.84778371,106.426105 C1.95779357,106.412973 2.05958457,106.390603 2.17520527,106.341789 C2.51808729,106.197029 2.80642881,105.899352 2.80642881,105.399431 L1.80642881,105.399431 L0.80643345,105.402476 L0.910503713,139.579548 L1.91049908,139.576503 L1.91049908,138.576503 L1,138.576503 L1,138.544439 C1,118.964416 1,118.430355 1,106.408726 Z" id="Path"></path>
                        <path d="M155.57028,106.593497 C155.688103,106.644221 155.792459,106.667574 155.905334,106.68126 C156.014552,106.694502 156.128319,106.696851 156.267296,106.693053 C156.420649,106.688863 156.558712,106.680056 156.854986,106.657017 C156.854986,117.614052 156.854986,118.213818 156.854986,138.540979 L155.944487,138.576503 L155.944487,139.576503 L156.944487,139.576503 L156.944487,106.650008 C156.953007,106.649337 156.961645,106.648656 156.970404,106.647964 L156.978463,106.647327 C157.309302,106.621201 157.456508,106.61123 157.581008,106.608174 C157.628778,106.607002 157.656989,106.607707 157.645275,106.6062 C157.583534,106.598256 157.517567,106.582805 157.425493,106.541654 C157.227292,106.453071 157.047227,106.302187 156.944487,106.08114 L156.944487,105.652343 L154.944487,105.652343 C154.944487,106.146463 155.229481,106.446777 155.57028,106.593497 Z" id="Path"></path>
                        <polyline id="Path-17" points="24.5976756 47.3262842 9.79130777 10.5703376 0.716437154 0.240234945"></polyline>
                        <polyline id="Path-17-Copy" transform="translate(144.959117, 23.783260) scale(-1, 1) translate(-144.959117, -23.783260) " points="156.899737 47.3262842 142.093369 10.5703376 133.018498 0.240234945"></polyline>
                        <path d="M24.3588632,46.8458144 L10.0301202,43.4825251" id="Path-18"></path>
                        <path d="M133.257311,47.3262842 L149.496553,42.5215853" id="Path-19"></path>
                        <path d="M10.2689325,9.88235294 L148.063678,9.88235294" id="Path-20"></path>
                        <polyline id="Path-2" points="0.987775964 79.8823529 0.987775964 0.823529412 157.35047 0.823529412 157.35047 79.0588235"></polyline>
                    </g>
                </g>
            </g>
        </g>
    </g>
</svg>