<?xml version="1.0" encoding="UTF-8"?>
<svg width="102px" height="158px" viewBox="0 0 802 1025" version="1.1" xmlns="http://www.w3.org/2000/svg" xmlns:xlink="http://www.w3.org/1999/xlink">
    <!-- Generator: Sketch 46.1 (44463) - http://www.bohemiancoding.com/sketch -->
    <title>van</title>
    <desc>Created with Sketch.</desc>
    <defs></defs>
    <g id="Symbols" stroke="none" stroke-width="1" fill="none" fill-rule="evenodd">
        <g id="van">
            <g id="van-copy">
                <g id="driver" transform="translate(474.000000, 245.000000)" stroke="#000000" stroke-width="3" fill="#979797" fill-opacity="0.238819067">
                    <path d="M88.0757109,35.657151 L88.1254526,35.7324596 C90.1648651,38.318054 91.6819891,41.330397 91.8312144,44.6690771 C91.9555688,47.2295687 91.2343131,49.6394431 89.9410272,51.8233917 C88.89645,53.5805918 87.5036805,55.1620719 85.9368148,56.5176262 C85.1160756,57.2205063 84.0963694,58.0237977 83.1512758,58.5760606 C82.9771796,58.676472 82.8030834,58.8270892 82.7035999,59.0028092 L82.6538581,59.1032206 C79.1719343,66.8851067 72.0837324,80.6665758 62.0110243,80.6665758 L61.861799,80.6665758 C61.6130901,80.6665758 61.3395104,80.641473 61.0908016,80.641473 C60.8420927,80.641473 60.5933839,80.6665758 60.3198042,80.6665758 L60.1705789,80.6665758 C50.0978708,80.6665758 43.0096688,66.9102095 39.527745,59.1032206 L39.4780033,59.0028092 C39.3785197,58.8270892 39.2044235,58.676472 39.0303274,58.5760606 C38.0852338,58.0237977 37.0655275,57.2456091 36.2447883,56.5176262 C34.7027935,55.1871747 33.310024,53.6056947 32.240576,51.8233917 C30.94729,49.6394431 30.2260344,47.2295687 30.3503888,44.6690771 C30.4996141,41.330397 32.0416089,38.318054 34.0561505,35.7324596 L34.1058923,35.657151 C34.2799885,35.4061225 34.3048594,35.1048882 34.2551176,34.8036539 C33.1110569,28.8793793 33.1110569,22.7040762 35.2748239,17.0057274 C36.9909149,12.46211 39.9505501,8.64647557 43.8801498,5.80985259 C47.1133647,3.47528678 50.8688682,1.94401243 54.7487261,1.1156181 C56.8130095,0.688869514 58.9270347,0.412738073 61.0410598,0.412738073 C63.155085,0.412738073 65.2691101,0.688869514 67.3333935,1.1156181 C71.2132514,1.94401243 74.9687549,3.47528678 78.2019699,5.80985259 C82.1315696,8.64647557 85.0663339,12.46211 86.8072958,17.0057274 C88.9710627,22.7040762 88.9710627,28.8793793 87.827002,34.8036539 C87.7772603,35.1048882 87.8021311,35.4061225 87.9762273,35.657151 L88.0757109,35.657151 Z M46.5164635,79.3949756 C49.8989037,83.7879758 54.5995008,88.1558731 60.4690295,88.1558731 L61.8120572,88.1558731 C61.9364116,88.1558731 62.0607661,88.1558731 62.1602496,88.1558731 L62.1851205,88.1558731 C67.8059403,88.1558731 72.5065374,83.5871529 75.7397523,79.3949756 L76.2122991,78.792507 L76.9335548,79.0686385 C83.0766632,81.3781014 89.2197715,83.8130787 95.0644293,86.8254217 C100.461411,89.6118389 105.734039,92.9254162 110.161056,97.1426964 C111.528955,98.448045 112.822241,99.8538051 114.016043,101.334874 C117.149774,105.276022 119.363283,109.669023 120.68144,114.513874 C122.223435,120.212223 122.422402,126.161601 121.825501,132.010566 L121.726017,132.964475 L0.530198723,132.964475 L0.430715187,132.010566 C-0.166186032,126.161601 0.0327810406,120.212223 1.57477586,114.513874 C2.89293272,109.64392 5.1064414,105.25092 8.2401728,101.334874 C9.43397524,99.8538051 10.7272612,98.448045 12.0951598,97.1426964 C16.5221772,92.9254162 21.7948047,89.6118389 27.1917865,86.8254217 C33.0364443,83.8130787 39.1795527,81.3781014 45.322661,79.0686385 L46.0439167,78.792507 L46.5164635,79.3949756 Z" id="Shape" transform="translate(61.128108, 66.688607) scale(-1, 1) translate(-61.128108, -66.688607) "></path>
                </g>
                <g id="wheel" transform="translate(469.000000, 338.000000)" stroke="#000000" stroke-width="2.5">
                    <path d="M129.247433,52.5839832 C123.077558,23.0272024 96.5996684,0.806623069 64.8714541,0.806623069 C33.166583,0.806623069 6.70431408,22.9945179 0.50912649,52.5187582" id="Oval-2" fill="#FFFFFF"></path>
                    <path d="M116.188951,52.6745473 C110.301715,30.0892986 89.5579674,13.4026093 64.8714541,13.4026093 C40.091516,13.4026093 19.2842426,30.2158372 13.4877561,52.931218" id="Oval-2-Copy" fill="#E6E6E6"></path>
                </g>
                <g id="hands-on-a-wheel" transform="translate(471.000000, 363.000000)" stroke="#000000" stroke-width="2.5" fill="#E6E6E6">
                    <path d="M11.8933909,0.2 C15.2267243,2.86666667 16.8933909,4.86666667 16.8933909,6.2 C16.8933909,8.2 11.8933909,17.2 10.8933909,17.2 C9.89339093,17.2 3.89339093,20.2 1.89339093,18.2 C-0.106609072,16.2 -1.10660907,7.2 1.89339093,3.2 C3.89339093,0.533333333 7.22672426,-0.466666667 11.8933909,0.2 Z" id="Path-22"></path>
                    <path d="M123.893391,0.2 C127.226724,2.86666667 128.893391,4.86666667 128.893391,6.2 C128.893391,8.2 123.893391,17.2 122.893391,17.2 C121.893391,17.2 115.893391,20.2 113.893391,18.2 C111.893391,16.2 110.893391,7.2 113.893391,3.2 C115.893391,0.533333333 119.226724,-0.466666667 123.893391,0.2 Z" id="Path-22-Copy" transform="translate(120.446695, 9.443750) scale(-1, 1) translate(-120.446695, -9.443750) "></path>
                </g>
                <g id="van-1" transform="translate(36.000000, 0.000000)">
                    <g id="headlights" transform="translate(58.000000, 432.000000)" fill="#FBB040">
                        <path d="M13.7005179,0.0687141618 L14.6988275,3.06541111 L15.6971372,6.06210806 L19.6903759,10.057704 L25.6802338,15.0521989 L42.6514981,22.0444918 L69.605859,31.0345826 L103.548387,42.0224714 L114.529794,50.0136633 L115.528103,59.0037542 L115.528103,70.990542 L111.534865,80.9795318 L99.5551488,95.9630165 L85.5788136,108.948703 L72.6007879,108.948703 L58.6244527,104.953107 L38.6582594,100.957511 L18.6920662,97.9608145 L7.21150508,90.9685216 L1.72080194,86.9729257 L0.722492281,79.9806328 L0.722492281,60.0026531 L3.71742127,36.0290775 L13.7005179,0.0687141618 Z M601.704909,0.0687141618 L611.688005,36.0290775 L614.682934,60.0026531 L614.682934,79.9806328 L613.684625,86.9729257 L608.193922,90.9685216 L596.713361,97.9608145 L576.747167,100.957511 L556.780974,104.953107 L542.804639,108.948703 L529.826613,108.948703 L515.850278,95.9630165 L503.870562,80.9795318 L499.877323,70.990542 L499.877323,59.0037542 L500.875633,50.0136633 L511.857039,42.0224714 L545.799568,31.0345826 L572.753929,22.0444918 L589.725193,15.0521989 L595.715051,10.057704 L599.708289,6.06210806 L600.706599,3.06541111 L601.704909,0.0687141618 Z"></path>
                    </g>
                    <g id="body" transform="translate(0.000000, 186.000000)" stroke-width="3">
                        <path d="M365.525638,0.884837581 C220.870811,3.4777157 144.784446,6.71881336 137.266543,10.6081305 C125.989688,16.4421063 119.379118,24.6096724 114.712833,40.1669411 C110.046549,55.7242099 90.2148384,137.010939 89.0482672,138.955598 C87.881696,140.900256 79.7156977,151.401413 76.9936983,160.735774 C74.2716988,170.070135 68.8277,187.183131 68.4388429,193.017107 C68.0499858,198.851082 68.8277,205.07399 65.7168435,205.851853 C62.605987,206.629717 56.384274,207.796512 55.9954169,201.573604 C55.6065599,195.350697 50.5514181,156.846457 48.2182757,151.790344 C45.8851333,146.734232 46.6628474,145.178505 33.4417073,144.789573 C20.2205672,144.400642 8.94371243,144.789573 6.61057005,151.790344 C4.27742768,158.791115 1.52329231e-15,182.51595 0,196.517492 C0,210.519034 -6.34085906e-16,230.743483 2.33314237,234.6328 C4.66628474,238.522118 8.55485536,248.634342 27.9977085,250.190069 C47.4405616,251.745796 51.7179892,250.967933 52.4957034,250.190069 C53.2734175,249.412206 53.6622746,245.133957 54.4399887,245.133957 C55.2177028,245.133957 61.4394158,244.745025 61.4394158,249.023274 C61.4394158,253.301523 64.5502723,266.525201 64.5502723,268.46986 C64.5502723,270.414518 59.8839875,295.306148 59.4951305,299.973329 C59.1062734,304.64051 57.5508452,329.53214 59.1062734,332.643593 C60.6617017,335.755047 66.8834147,341.589023 83.6042683,345.47834 C100.325122,349.367657 122.489975,354.42377 124.045403,354.812701 C125.600831,355.201633 137.266543,358.702019 145.432541,355.201633 C150.87654,352.868043 159.561014,342.49653 171.485964,324.087096 C176.411487,307.233388 174.72644,296.3433 166.430823,291.416831 C153.987397,284.027129 119.379118,275.470631 113.935119,273.137041 C108.49112,270.80345 87.4928389,264.191611 83.6042683,261.469089 C79.7156977,258.746567 71.1608423,252.912591 71.5496994,243.967162" id="Path-3" stroke="#000000"></path>
                        <path d="M732.995562,0.884837581 C730.702712,0.9027358 729.308039,0.916168141 728.811545,0.925134602 C585.610976,3.51127053 510.271188,6.73893584 502.792181,10.6081305 C491.515326,16.4421063 484.904756,24.6096724 480.238472,40.1669411 C475.572187,55.7242099 455.740477,137.010939 454.573905,138.955598 C453.407334,140.900256 445.241336,151.401413 442.519337,160.735774 C439.797337,170.070135 434.353338,187.183131 433.964481,193.017107 C433.575624,198.851082 434.353338,205.07399 431.242482,205.851853 C428.131625,206.629717 421.909912,207.796512 421.521055,201.573604 C421.132198,195.350697 416.077056,156.846457 413.743914,151.790344 C411.410772,146.734232 412.188486,145.178505 398.967346,144.789573 C385.746205,144.400642 374.469351,144.789573 372.136208,151.790344 C369.803066,158.791115 365.525638,182.51595 365.525638,196.517492 C365.525638,210.519034 365.525638,230.743483 367.858781,234.6328 C370.191923,238.522118 374.080494,248.634342 393.523347,250.190069 C412.9662,251.745796 417.243627,250.967933 418.021342,250.190069 C418.799056,249.412206 419.187913,245.133957 419.965627,245.133957 C420.743341,245.133957 426.965054,244.745025 426.965054,249.023274 C426.965054,253.301523 430.075911,266.525201 430.075911,268.46986 C430.075911,270.414518 425.409626,295.306148 425.020769,299.973329 C424.631912,304.64051 423.076483,329.53214 424.631912,332.643593 C426.18734,335.755047 432.409053,341.589023 449.129907,345.47834 C465.85076,349.367657 488.015613,354.42377 489.571041,354.812701 C491.126469,355.201633 502.792181,358.702019 510.958179,355.201633 C516.402178,352.868043 525.086653,342.49653 537.011603,324.087096 C541.937125,307.233388 540.252078,296.3433 531.956461,291.416831 C519.513035,284.027129 484.904756,275.470631 479.460757,273.137041 C474.016759,270.80345 453.018477,264.191611 449.129907,261.469089 C445.241336,258.746567 436.686481,252.912591 437.075338,243.967162" id="Path-3-Copy" stroke="#000000" transform="translate(549.260600, 178.814088) scale(-1, 1) translate(-549.260600, -178.814088) "></path>
                        <path d="M71.5496994,243.967162 C67.6611288,260.820869 64.9391293,271.840601 63.3837011,277.026358" id="Path-4" stroke="#000000"></path>
                        <path d="M58.3285593,319.030983 C56.254655,319.549559 54.4399887,325.772466 52.8845604,337.699706 C50.5514181,355.590565 47.8294186,370.758902 47.0517045,372.70356 C46.2739904,374.648219 43.5519909,391.761215 43.1631339,406.929552 C42.7742768,422.097889 41.2188486,444.266997 43.5519909,460.602129 C45.8851333,476.937261 48.9959898,492.883461 48.6071327,501.439959 C48.2182757,509.996457 47.8294186,554.334673 48.2182757,564.835829 C48.6071327,575.336986 51.3291322,605.284728 53.6622746,611.896567 C55.9954169,618.508407 58.3285593,623.564519 64.9391293,625.509177 C71.5496994,627.453836 110.824263,627.453836 119.767975,625.509177 C128.711688,623.564519 134.933401,607.618318 135.322258,601.006479 C135.581496,596.598586 136.099972,587.653157 136.877686,574.170191 C157.616729,575.207342 169.023203,575.725918 171.097107,575.725918 C174.207964,575.725918 178.485391,577.281644 179.263106,578.059508 C180.04082,578.837371 183.92939,583.11562 209.982813,583.11562 C236.036237,583.11562 350.360213,583.11562 354.637641,583.11562 C358.915068,583.11562 464.295332,583.11562 470.128188,583.11562 C475.961044,583.11562 500.459039,583.893484 515.235607,583.893484 C530.012175,583.893484 545.566458,583.11562 547.8996,582.337757 C550.232743,581.559893 555.676742,576.892713 557.621027,576.892713 C559.565312,576.892713 591.062734,575.725918 591.840448,574.948054 C592.358924,574.429478 593.136639,580.911674 594.173591,594.39464 C595.988257,605.284728 597.543685,611.63728 598.839875,613.452294 C600.784161,616.174816 602.728446,623.564519 614.394158,626.675973 C626.05987,629.787426 666.501004,629.398495 669.611861,625.509177 C672.722717,621.61986 681.66643,613.452294 682.833001,582.337757 C683.999572,551.223219 683.610715,507.662867 683.999572,500.662096 C684.388429,493.661325 690.221285,472.27008 690.998999,457.490675 C691.776713,442.71127 690.998999,439.988748 690.998999,426.765069 C690.998999,413.541391 689.054714,394.483737 689.054714,392.150146 C689.054714,389.816556 678.166716,324.087096 674.667003,317.086325" id="Path-5" stroke="#000000"></path>
                        <path d="" id="Path-6" stroke="#000000"></path>
                        <path d="M661.834719,243.967162 C665.72329,260.302294 668.056432,269.636655 668.834147,271.970245" id="Path-7" stroke="#000000"></path>
                        <path d="M370.58078,294.528285 C286.846893,295.046861 242.25795,295.824724 236.813951,296.861875 C228.647952,298.417602 214.649098,299.973329 202.983386,319.808847 C191.317674,339.644364 177.31882,374.259287 176.541106,378.537536 C175.763392,382.815785 173.43025,392.150146 180.04082,402.262371 C186.65139,412.374596 196.761673,425.987206 207.649671,427.931864 C218.537669,429.876523 344.916214,433.376909 376.802493,433.376909 C408.688772,433.376909 509.791608,430.654387 517.568749,430.265455 C525.345891,429.876523 532.345318,429.487591 539.733602,421.320025 C547.121886,413.152459 556.843313,401.484508 557.621027,397.984122 C558.398741,394.483737 559.954169,386.316171 556.454456,376.592878 C552.954742,366.869585 540.511316,334.977184 534.67846,326.031754 C528.845604,317.086325 523.790462,303.862646 503.958752,299.195466 C490.737612,296.084012 446.278288,294.528285 370.58078,294.528285 Z" id="Path-8" stroke="#000000"></path>
                        <path d="M373.691637,23.4428773 C233.443856,25.7764676 157.746348,27.7211262 146.599112,29.276853 C129.878259,31.6104433 133.377972,29.276853 123.656546,75.5597275 C113.935119,121.842602 112.379691,131.954827 111.21312,138.955598 C110.046549,145.956369 106.935692,170.847999 107.713406,180.571292 C108.49112,190.294584 106.157978,194.183902 121.71226,198.073219 C137.266543,201.962536 139.210828,203.907195 158.653681,203.907195 C171.615583,203.907195 313.548411,203.907195 584.452164,203.907195 C605.450445,201.573604 617.505014,199.11037 620.615871,196.517492 C625.282156,192.628175 628.004155,193.79497 625.282156,168.90334 C622.560156,144.01171 617.893871,116.008626 616.338443,108.229992 C614.783015,100.451358 603.117303,47.1677121 602.339589,45.2230535 C601.561875,43.2783949 601.561875,28.8879213 586.396449,28.1100579 C571.231024,27.3321944 475.572187,24.2207407 469.350474,24.2207407 C465.202665,24.2207407 433.316386,23.9614529 373.691637,23.4428773 Z" id="Path-9" stroke="#000000"></path>
                        <path d="M309.712238,510.250563 C303.658036,509.948982 292.838985,509.345704 277.255085,508.44073 C273.107277,508.44073 270.385277,508.959306 269.089087,509.996457 C267.144802,511.552184 270.644515,511.163252 258.201089,511.163252 C249.905472,511.163252 233.184618,509.996457 208.038528,507.662867 L208.038528,507.662867 C218.40805,528.146604 224.759382,539.425624 227.092524,541.499926 C230.592238,544.61138 238.758236,555.112536 264.811659,555.112536 C282.180608,555.112536 350.74907,555.112536 470.517045,555.112536 C490.219136,557.446127 504.347609,550.704644 512.902465,534.888087 C521.45732,519.071531 526.642081,510.644677 528.456747,509.607525 C502.792181,511.42254 487.885994,512.330047 483.738185,512.330047 C477.516472,512.330047 470.128188,513.496843 468.183903,512.330047 C466.239617,511.163252 465.461903,509.607525 462.739904,509.607525 C461.993025,509.607525 448.714505,510.290896 425.721417,510.765348" id="Path-10" stroke="#000000"></path>
                        <path d="" id="Path-11" stroke="#979797"></path>
                        <path d="M43.940848,393.705873 C50.421799,400.188069 54.4399887,404.077386 55.9954169,405.373825 C58.3285593,407.318483 70.3831282,413.930323 92.9368378,417.81964 C115.490547,421.708957 149.321112,427.931864 156.320539,428.320796 C163.319966,428.709728 176.541106,430.654387 182.373962,432.987977 C188.206818,435.321567 195.983959,441.155543 199.483673,442.322338 C202.983386,443.489133 227.092524,446.211655 236.425094,446.211655 C242.646807,446.211655 333.250502,446.211655 508.23618,446.211655 C522.75351,445.69308 531.049128,444.915216 533.123032,443.878065 C536.233888,442.322338 550.6216,432.987977 553.343599,432.987977 C556.065599,432.987977 638.114439,421.708957 657.168435,415.486049 C676.222431,409.263142 681.277573,404.20703 689.443571,393.705873" id="Path-12" stroke="#000000"></path>
                        <path d="M692.16557,444.655928 C669.871099,453.99029 651.854055,459.694621 638.114439,461.768924 C617.505014,464.880378 603.117303,466.047173 591.840448,485.104827 C580.563594,504.162481 554.899027,542.666721 552.954742,544.61138 C551.010457,546.556039 542.844459,557.835058 508.23618,559.390785 C485.163994,560.427937 402.596678,560.946512 260.534232,560.946512 C226.833286,560.946512 203.501862,557.575771 190.53996,550.834288 C171.097107,540.722063 155.153968,502.217823 148.932255,491.327735 C142.710542,480.437646 143.877113,471.103285 117.82369,464.880378 C91.7702666,458.65747 49.7737039,452.823494 42.3854198,443.100201" id="Path-13" stroke="#000000"></path>
                        <rect id="Rectangle-2" stroke="#000000" x="310.641364" y="452.378836" width="114.82369" height="61.1737336" rx="3"></rect>
                    </g>
                    <g id="top" transform="translate(41.000000, 0.000000)" stroke-width="3" stroke="#000000">
                        <polyline id="Path-17" points="98.9054657 196.742125 36.9623699 43.9424034 0 1"></polyline>
                        <polyline id="Path-17-Copy" transform="translate(603.244390, 98.871062) scale(-1, 1) translate(-603.244390, -98.871062) " points="654 196.742125 592.056904 43.9424034 552.488781 1"></polyline>
                        <path d="M97.9063835,194.744743 L37.961452,180.763069" id="Path-18"></path>
                        <path d="M553.487863,196.742125 L621.425452,176.768305" id="Path-19"></path>
                        <path d="M37.9605342,44.5 L615.430959,44.5" id="Path-20"></path>
                        <polyline id="Path-2" points="0.132404509 332.082353 0.132404509 0.998690987 654.282664 0.998690987 654.282664 328.633565"></polyline>
                        <path d="M-9.09494702e-13,437 L1,579" id="Path-14"></path>
                    </g>
                </g>
                <g id="web-cam" transform="translate(388.000000, 224.000000)">
                    <ellipse id="Oval-5" fill="#979797" cx="16.0589223" cy="16.0898962" rx="15.2741861" ry="15.8616548"></ellipse>
                    <path d="M16.0144491,25.6453943 C11.0272859,25.6453943 7,21.4632128 7,16.3226972 C7,11.1821815 11.0272859,7 16.0144491,7 C21.0016123,7 25.0288982,11.1821815 25.0288982,16.3226972 C25.0288982,21.4632128 21.0016123,25.6453943 16.0144491,25.6453943 Z M16.0144491,23.6453943 C19.879802,23.6453943 23.0288982,20.375179 23.0288982,16.3226972 C23.0288982,12.2702153 19.879802,9 16.0144491,9 C12.1490963,9 9,12.2702153 9,16.3226972 C9,20.375179 12.1490963,23.6453943 16.0144491,23.6453943 Z" id="Oval-5" fill="#221E22" fill-rule="nonzero"></path>
                </g>
                <g id="wi-fi-sign" transform="translate(349.000000, 66.000000)" fill-rule="nonzero" fill="#FBB040">
                    <path d="M54.7092844,21.3336161 C69.231349,21.3232566 83.2976171,26.4036489 94.4615208,35.6911524 L109.418569,20.7341044 C78.0713035,-6.61145776 31.3472653,-6.61145776 7.10542736e-15,20.7341044 L14.957048,35.6911524 C26.1209517,26.4036489 40.1872198,21.3232566 54.7092844,21.3336161 L54.7092844,21.3336161 Z" id="Shape"></path>
                    <path d="M54.7092844,57.3658057 C59.6677546,57.3625765 64.5248137,58.7701106 68.7132625,61.4240386 L83.8240314,46.3440139 C66.7246367,32.9340912 42.67856,32.9340912 25.5791653,46.3440139 L40.6899342,61.4547828 C44.8795238,58.7872303 49.7425462,57.3688488 54.7092844,57.3658057 Z" id="Shape"></path>
                    <path d="M56.5539357,73.5833654 C55.3314148,73.3361695 54.0717819,73.3361695 52.849261,73.5833654 C47.9009051,74.4401789 44.2794921,78.7223864 44.2562601,83.7443199 C44.2684167,84.2598815 44.3198055,84.7737696 44.4099811,85.2815293 C45.0749288,89.7798824 48.5992391,93.3166682 53.0952145,93.9975069 C53.603155,94.086372 54.1169446,94.137751 54.6324239,94.1512279 C55.1475692,94.143682 55.6614191,94.0974355 56.1696334,94.012879 C57.8970469,93.7419804 59.529632,93.0445654 60.9196106,91.9837625 C62.6221065,90.7227959 63.8943117,88.9674748 64.562797,86.9570876 C64.749828,86.3949722 64.8937181,85.8194118 64.9932156,85.235413 C65.0838336,84.7279929 65.1301244,84.2136497 65.1315645,83.6982036 C65.0874463,78.6985902 61.4791721,74.4436718 56.5539357,73.5833654 L56.5539357,73.5833654 Z" id="Shape"></path>
                </g>
                <g id="road" transform="translate(0.000000, 727.000000)" stroke="#000000" fill-rule="nonzero" stroke-width="0.5" fill="#221E22">
                    <path d="M427.558544,203 L380.205075,203 L360.469215,295.954779 L447.294404,295.954779 L427.558544,203 Z M378.585127,201 L429.178492,201 L449.763619,297.954779 L358,297.954779 L378.585127,201 Z" id="Rectangle-4"></path>
                    <path d="M378.237056,133.129591 L378.209154,133.364999 L379.776944,135.129591 L380.014,135.129591 L380.251056,133.129591 L378.237056,133.129591 Z M426.146009,133.129591 L418.409084,74 L387.259577,74 L380.251056,133.129591 L426.146009,133.129591 Z M378,135.129591 L385.482634,72 L420.164438,72 L428.424751,135.129591 L378,135.129591 Z" id="Rectangle-4-Copy"></path>
                    <polygon id="Line-2" points="1.45254351 88.6041555 84.0140898 1.37481538 82.5615462 0 0 87.2293401"></polygon>
                    <polygon id="Line-2-Copy" points="720.329882 3.97356409 800.369538 88.6041403 801.822615 87.2298882 721.782959 2.59931204"></polygon>
                </g>
            </g>
            <path d="M728,438 L725,580" id="Path-15" stroke="#000000" stroke-width="3"></path>
        </g>
    </g>
</svg>