<?xml version="1.0" encoding="UTF-8"?>
<svg width="154px" height="154px" viewBox="0 0 154 154" version="1.1" xmlns="http://www.w3.org/2000/svg" xmlns:xlink="http://www.w3.org/1999/xlink">
    <!-- Generator: Sketch 45.2 (43514) - http://www.bohemiancoding.com/sketch -->
    <title>drive</title>
    <desc>Created with Sketch.</desc>
    <defs>
        <polygon id="path-1" points="0 0.0810437501 26.9758046 2.09625044 30.0662807 21.0796872 0 20.5168149"></polygon>
    </defs>
    <g id="Design" stroke="none" stroke-width="1" fill="none" fill-rule="evenodd">
        <g id="drive">
            <g transform="translate(-1.000000, 0.000000)">
                <g transform="translate(-0.382460, 0.000000)">
                    <g id="wi-fi-sign" opacity="0.58129529" transform="translate(68.842875, 0.075436)" fill-rule="nonzero" fill="#FBB040">
                        <path d="M10.4620678,4.08121352 C13.2391252,4.0792317 15.9290206,5.05113283 18.0638962,6.82787263 L20.9241356,3.96652433 C14.9295915,-1.26480061 5.99454403,-1.26480061 7.10542736e-15,3.96652433 L2.86023938,6.82787263 C4.99511501,5.05113283 7.68501036,4.0792317 10.4620678,4.08121352 L10.4620678,4.08121352 Z" id="Shape"></path>
                        <path d="M10.4620678,10.974328 C11.4102771,10.9737103 12.3390935,11.2429777 13.1400514,11.7506857 L16.0296869,8.86581136 C12.7597661,6.30043485 8.16142987,6.30043485 4.89150907,8.86581136 L7.78114454,11.7565671 C8.58232063,11.2462528 9.51227741,10.9749102 10.4620678,10.974328 Z" id="Shape"></path>
                        <path d="M10.8148208,14.0768177 C10.5810379,14.0295281 10.340158,14.0295281 10.1063751,14.0768177 C9.1601,14.2407299 8.46757644,15.0599348 8.46313379,16.0206525 C8.4654585,16.1192817 8.47528559,16.2175907 8.49252988,16.3147273 C8.61968797,17.1752819 9.29364255,17.8518843 10.1534089,17.9821318 C10.2505424,17.999132 10.3487945,18.0089611 10.4473697,18.0115392 C10.5458811,18.0100957 10.6441447,18.0012485 10.7413306,17.9850725 C11.0716643,17.9332484 11.3838638,17.7998299 11.6496697,17.5968937 C11.9752384,17.3556653 12.2185224,17.0198647 12.346357,16.6352689 C12.382123,16.5277338 12.4096391,16.4176266 12.4286661,16.3059051 C12.445995,16.2088334 12.4548472,16.1104373 12.4551226,16.0118303 C12.4466858,15.0553825 11.7566748,14.2413981 10.8148208,14.0768177 L10.8148208,14.0768177 Z" id="Shape"></path>
                    </g>
                    <g id="men-in-the-car" transform="translate(13.577345, 28.886957)">
                        <g id="car" fill-rule="nonzero">
                            <path d="M92.5065724,50.4666781 C90.1321315,49.3508241 81.7875019,47.465916 65.5740013,47.465916 C49.3619512,47.465916 41.0158712,49.3522751 38.6399798,50.4666781 C35.2632551,52.0497687 30.1604554,56.1272066 30.1604554,58.6665362 C30.1604554,61.0622123 33.5574869,63.9657544 35.6911476,64.5186027 C38.2715571,65.1875347 43.9879112,65.5764149 65.5740013,65.5764149 C87.1600915,65.5764149 92.8764456,65.1875347 95.4568551,64.5186027 C97.5919663,63.9657544 100.987547,61.0622123 100.987547,58.6665362 C100.987547,56.1272066 95.8832971,52.0497687 92.5065724,50.4666781 Z" id="Shape"></path>
                            <path d="M107.395782,65.4051915 C103.830494,66.185854 102.188547,71.2804748 102.081212,71.9769766 C102.085563,72.0001933 102.084113,72.1003155 102.097167,72.1322385 C102.098617,72.1307874 102.100068,72.1293364 102.104419,72.1293364 C102.129078,72.1293364 102.237864,72.1598083 102.43803,72.1598083 C104.203268,72.1598083 110.098032,71.3936563 112.930826,71.0236397 L114.359551,70.840808 C115.592462,70.6855461 116.092879,71.0410523 116.470004,71.2804748 C116.683225,71.416873 116.771705,71.4734638 116.995079,71.4734638 C117.816053,71.4734638 118.950331,71.2703174 121.648229,69.7975063 C123.816702,68.6149042 124.800129,63.187994 124.800129,61.7050255 C124.800129,61.2697118 124.727605,61.1579813 124.724704,61.1536282 C124.601413,61.1841002 124.392543,61.2131211 124.012517,61.3553235 C122.573637,61.8893083 109.952984,64.846539 107.395782,65.4051915 Z" id="Shape"></path>
                            <path d="M23.7507703,65.4066426 C21.1906676,64.846539 8.56131086,61.8878572 7.13258496,61.3567746 C6.75255838,61.2145721 6.54368881,61.1870022 6.43635305,61.1870022 C6.41604629,61.1507261 6.3464231,61.2769671 6.3464231,61.7064765 C6.3464231,63.189445 7.32840019,68.6149042 9.49687249,69.7989573 C12.1962216,71.2732195 13.329049,71.4749149 14.1500224,71.4749149 C14.3733968,71.4749149 14.4618763,71.4183241 14.6765478,71.2819258 C14.9913026,71.0816815 15.4235466,70.8074339 16.2430696,70.8074339 C16.4040732,70.8074339 16.5839331,70.8175912 16.7870008,70.842259 L18.2215286,71.0265418 C21.0528717,71.3951074 26.9461847,72.1612594 28.7099722,72.1612594 C28.9420495,72.1612594 29.0508358,72.1206301 29.072593,72.1046686 C29.0653406,72.0988644 29.0638901,72.0001933 29.0638901,71.9465046 C28.9594553,71.2819258 27.3175084,66.187305 23.7507703,65.4066426 Z" id="Shape"></path>
                            <path d="M34.8977333,70.5564031 C35.182028,71.383499 35.5794604,72.4238986 35.9435317,73.0507503 C38.9170221,73.0797712 58.157681,73.265505 65.5754518,73.265505 C72.9932226,73.265505 92.2338815,73.0783201 95.207372,73.0507503 C95.5714433,72.4238986 95.9674251,71.38495 96.2531703,70.5564031 C91.0024213,70.7726088 73.9606949,70.8683778 65.5740013,70.8683778 C57.1873078,70.8683778 40.1455813,70.7726088 34.8977333,70.5564031 Z" id="Shape"></path>
                            <path d="M17.9923523,88.1166052 L5.62263201,88.1166052 C4.40512315,88.1166052 3.07561329,86.5454817 2.74097396,84.676107 C2.46009504,83.1000776 2.29557403,76.502075 2.29557403,70.3880818 C2.29557403,65.7105913 2.16955187,63.7955613 1.80791181,61.1274318 C1.43617421,58.3857531 1.31504742,56.5900837 1.31504742,52.1934222 C1.31504742,43.1805182 2.00604364,38.9583008 3.29838749,36.7185231 C3.60897382,36.1787301 4.97768318,35.0918047 7.27159804,33.4699795 C7.43442674,33.3548577 7.60147866,33.2373903 7.77294402,33.1174152 C8.86348036,32.3543622 11.8359784,30.3341957 12.0383775,30.1878926 C13.112505,29.411465 13.4613836,29.1131826 13.8295459,28.682222 C13.863174,28.6430999 14.018412,28.4850194 14.0492779,28.4514664 C14.1456031,28.3467551 14.2043704,28.2629524 14.2236471,28.2038671 C13.8071825,27.9814779 13.2566333,27.9127273 12.4108931,27.9127273 C8.28399345,27.9127273 4.39213322,27.8038443 2.86058883,27.5907655 C1.04483929,27.3383143 0.0154145239,26.4699717 0.0154145239,25.2213884 C0.0154145239,23.8215325 0.49648364,22.2234913 1.5854301,21.0091548 C2.20619064,20.3153912 3.80810653,19.754242 6.04582825,19.3160676 C7.74866543,18.9826305 9.72940974,18.7558801 10.696422,18.7558801 C11.6332084,18.7558801 12.1729738,19.8790057 12.500748,21.7609048 C12.6997739,22.9036022 12.7963713,24.2817884 12.7963713,25.0748328 C12.7963713,25.4122502 13.4253657,25.6454442 14.3472881,25.6454442 C14.6845833,25.6454442 14.9948086,25.5630099 15.2367793,25.4248808 C15.423509,25.318286 15.5400116,25.1919632 15.553636,25.1289641 C16.0520007,22.8174682 18.2616683,17.3734017 20.6461512,13.0497915 C23.9468661,7.06484427 27.3815212,3.24401468 30.665176,2.72248035 C30.8219288,2.69756412 32.6355604,2.40704697 33.2018527,2.31774958 C34.2300146,2.15562097 35.1234117,2.0197856 36.0276272,1.88968686 C44.1220593,0.725057983 52.8265891,0.11865169 65.5740013,0.11865169 C78.3065603,0.11865169 87.0063636,0.724245753 95.0992104,1.8871628 C96.0071691,2.01763365 96.9038886,2.15382683 97.937431,2.31663284 C98.4999219,2.40523771 100.300734,2.69335252 100.484308,2.72248526 C103.767298,3.24469176 107.201789,7.06586819 110.502754,13.0508727 C112.887369,17.3744352 115.097431,22.8183113 115.596055,25.1300773 C115.609254,25.1924972 115.725127,25.3184694 115.91148,25.4249237 C116.15319,25.5630005 116.46341,25.6454442 116.800715,25.6454442 C117.723026,25.6454442 118.353082,25.412095 118.353082,25.0748328 C118.353082,24.2807402 118.449325,22.9040394 118.648154,21.7614899 C118.975702,19.8792763 119.515627,18.7558801 120.453031,18.7558801 C121.420762,18.7558801 123.401774,18.9826107 125.104713,19.3160676 C127.342415,19.7542382 128.943992,20.3154019 129.564023,21.0091548 C130.651748,22.2247987 131.132588,23.8234109 131.132588,25.2213884 C131.132588,26.4701117 130.104413,27.3368971 128.28744,27.5893108 C126.755869,27.8023932 122.864009,27.9112763 118.73711,27.9112763 C117.890371,27.9112763 117.339824,27.9802564 117.058519,28.098212 C116.944989,28.2635171 117.003234,28.3469878 117.098811,28.4518113 C117.126427,28.4820986 117.28415,28.6446172 117.317576,28.6843377 C117.685351,29.1148469 118.034439,29.4131081 119.109625,30.1893436 C119.311321,30.3351384 122.283029,32.3551004 123.374339,33.1188367 C123.545793,33.2388258 123.712834,33.3563081 123.875654,33.4714452 C126.169054,35.0932109 127.537582,36.1801883 127.847887,36.7194927 C129.141593,38.9578875 129.832955,43.1803183 129.832955,52.1948733 C129.832955,56.5915348 129.711828,58.3872041 129.353565,61.0295037 C128.978451,63.7970123 128.852429,65.7120423 128.852429,70.3895328 C128.852429,76.5315667 128.688587,83.1023232 128.405539,84.677775 C128.071133,86.5458458 126.740704,88.1180563 125.525371,88.1180563 L113.157101,88.1180563 C111.239377,88.1180563 110.472677,85.4857067 110.449923,79.0940406 C110.165063,79.1040162 109.865679,79.1145238 109.540492,79.1259567 C101.693847,79.4020579 100.148113,79.4538636 99.46454,79.4538636 C98.6800873,79.4439508 98.6001413,79.4360265 96.8069126,79.2307181 C95.4889776,79.0798266 94.5436045,79.0112947 93.3681594,79.0112947 C92.4279495,79.0112947 83.0212134,79.1898795 83.4473041,79.1824748 C77.1035939,79.292717 71.3730119,79.3537415 65.5740013,79.3537415 C59.775013,79.3537415 54.0448073,79.2924602 47.7012213,79.1817489 C48.1330047,79.1892846 38.7206744,79.0098437 37.7798433,79.0098437 C36.6044016,79.0098437 35.6592604,79.078375 34.3418274,79.2292657 C32.5509335,79.4343837 32.4735301,79.4420678 31.828553,79.4513676 C31.0019801,79.4524125 29.4223114,79.3994925 21.9014586,79.1348916 C21.2871681,79.1132924 20.9843969,79.1026664 20.6966308,79.0925895 C20.673924,85.4859216 19.9086276,88.1166052 17.9923523,88.1166052 Z M118.73711,27.3373632 C122.833895,27.3373632 126.713755,27.2288159 128.208473,27.0208606 C129.770888,26.8038101 130.558898,26.139492 130.558898,25.2213884 C130.558898,23.9532778 130.118598,22.4894491 129.136456,21.3918045 C128.632621,20.8280626 127.103325,20.2922252 124.994512,19.8792927 C123.325326,19.552445 121.379951,19.3297932 120.453031,19.3297932 C119.940481,19.3297932 119.490836,20.2653489 119.213344,21.859922 C119.020796,22.9663785 118.926772,24.3113266 118.926772,25.0748328 C118.926772,25.8845321 118.022726,26.2193572 116.800715,26.2193572 C115.937934,26.2193572 115.144115,25.7658881 115.035028,25.2499903 C114.549726,23.0000016 112.360044,17.6063268 110.00045,13.3281283 C106.782054,7.49283164 103.439217,3.77362836 100.394323,3.28929435 C100.210216,3.26007709 98.4098601,2.97203527 97.8481964,2.8835607 C96.8170245,2.72112808 95.9227697,2.58530925 95.017642,2.4552452 C86.9521736,1.29626235 78.2796142,0.692564734 65.5740013,0.692564734 C52.8535633,0.692564734 44.1763111,1.29707073 36.1092975,2.4577546 C35.2079071,2.58744687 34.3169727,2.72290781 33.2911787,2.88466302 C32.7257194,2.97382906 30.9125838,3.26426676 30.7551664,3.28928864 C27.7095427,3.7730171 24.3665951,7.49182806 21.1484635,13.3270329 C18.7890052,17.6052678 16.5997196,22.9991183 16.1143925,25.2501435 C16.0027197,25.7665202 15.2094525,26.2193572 14.3472881,26.2193572 C13.125798,26.2193572 12.2226807,25.8845347 12.2226807,25.0748328 C12.2226807,24.3124119 12.128312,22.9660237 11.9355724,21.8594189 C11.6579074,20.2652191 11.208349,19.3297932 10.696422,19.3297932 C9.77022717,19.3297932 7.82511596,19.5524644 6.1560294,19.8792927 C4.0470546,20.2922568 2.51738655,20.8280977 2.01267762,21.3921614 C1.02954446,22.4885006 0.589105145,23.9515756 0.589105145,25.2213884 C0.589105145,26.1394522 1.37843045,26.8052656 2.93958726,27.0223197 C4.43424763,27.230267 8.31410796,27.3388143 12.4108931,27.3388143 C14.2297101,27.3388143 15.0039855,27.6617531 14.7690251,28.3819354 C14.7178725,28.5387246 14.6191429,28.6795139 14.4714177,28.8400998 C13.8621007,29.5274891 13.4822426,29.8522581 12.3743726,30.6530763 C12.1638659,30.8052399 9.18614279,32.8289576 8.10175512,33.5877083 C7.93103856,33.7071594 7.7647497,33.8240903 7.60270326,33.938659 C5.42275867,35.4799059 4.04218923,36.5762497 3.79541996,37.0051294 C2.56577655,39.1362406 1.88873804,43.2731717 1.88873804,52.1934222 C1.88873804,56.5642885 2.00812641,58.3341863 2.36292217,60.9509134 C2.74154794,63.744327 2.86926465,65.6851073 2.86926465,70.3880818 C2.86926465,76.4497924 3.03382978,83.0495643 3.30571972,84.5751565 C3.59670588,86.2006738 4.73234328,87.5426922 5.62263201,87.5426922 L17.9923523,87.5426922 C19.4267326,87.5426922 20.1234624,85.0534522 20.1234624,78.7954394 L20.1234624,78.4982801 C20.7964371,78.5218061 21.1921254,78.5356839 21.6372563,78.5513323 C29.4100275,78.8247925 31.0131878,78.8784995 31.6849131,78.8784995 C32.4368418,78.8686242 32.5131659,78.8610472 34.2765721,78.6590775 C35.6138221,78.505917 36.579031,78.4359306 37.7798433,78.4359306 C38.7270578,78.4359306 48.1543247,78.6156563 47.7112282,78.6079232 C54.0517455,78.7185809 59.7787944,78.7798284 65.5740013,78.7798284 C71.3692465,78.7798284 77.0966852,78.7188375 83.4373397,78.6086483 C82.9999918,78.6162486 92.4215928,78.4373817 93.3681594,78.4373817 C94.5689682,78.4373817 95.5343993,78.5073676 96.8721437,78.6605271 C98.6377834,78.8626768 98.7165889,78.8704881 99.334739,78.8790439 C100.1369,78.8799505 101.706327,78.8273508 109.225049,78.5627842 C109.960202,78.5369333 110.35286,78.5231612 110.726227,78.510109 L111.02309,78.7968905 C111.02309,85.0534597 111.721083,87.5441432 113.157101,87.5441432 L125.525371,87.5441432 C126.413484,87.5441432 127.550041,86.2010379 127.840864,84.5764297 C128.114841,83.0514693 128.278738,76.4784714 128.278738,70.3895328 C128.278738,65.6865583 128.406455,63.7457781 128.771602,61.0517698 C129.139876,58.3356373 129.259265,56.5657396 129.259265,52.1948733 C129.259265,43.2731153 128.581878,39.136041 127.350958,37.0062788 C127.104352,36.5776816 125.723988,35.4813038 123.544508,33.9400954 C123.38247,33.8255116 123.216191,33.708566 123.045487,33.5891011 C121.960313,32.8296595 118.983414,30.8061684 118.773766,30.6546256 C117.664878,29.8540583 117.284712,29.5292448 116.880103,29.0556068 C116.529039,28.6785386 116.431624,28.5389318 116.380533,28.3835774 C116.143115,27.6616542 116.916499,27.3373632 118.73711,27.3373632 Z M27.8246468,6.51172296 C27.7148968,6.66136969 27.5873924,6.83904314 27.4436126,7.04400859 C27.0320382,7.63072907 26.5730956,8.31782183 26.0786169,9.09940438 C24.6647973,11.334115 23.2506171,13.876407 21.9306696,16.6791265 C21.3497294,17.91267 20.7990698,19.1728069 20.2834044,20.4571797 C20.2687565,20.4889914 20.2549874,20.5188207 20.2350434,20.5643792 C20.2009185,20.6423314 20.1626494,20.7349574 20.1212532,20.8417238 C20.0020651,21.1491256 19.8825297,21.5067596 19.7707606,21.9103544 C19.4733723,22.9842144 19.2863214,24.1730832 19.2611784,25.4498566 C19.5490728,25.4416893 19.8591012,25.4329961 20.2126505,25.423204 C21.2227504,25.3952277 22.3790236,25.3640546 23.662864,25.3304839 C27.330935,25.2345687 31.2859899,25.1386539 35.3791887,25.049133 C40.4317163,24.938631 45.3409716,24.8457378 49.9736774,24.7761796 C55.8680294,24.6876783 61.123256,24.6398696 65.5740013,24.6398696 C70.0246468,24.6398696 75.2795499,24.6876687 81.1734148,24.776153 C85.8068068,24.8457139 90.7168025,24.9386167 95.770083,25.049133 C99.8633612,25.1386539 103.818467,25.2345687 107.486566,25.3304839 C108.770417,25.3640546 109.926696,25.3952277 110.9368,25.423204 C111.29035,25.4329961 111.60038,25.4416893 111.864562,25.4491837 C111.863093,24.1731198 111.675787,22.9842842 111.377995,21.910453 C111.266073,21.506868 111.146375,21.1492428 111.027025,20.8418489 C110.985572,20.7350856 110.947251,20.6424625 110.91308,20.5645132 C110.89311,20.5189569 110.879322,20.4891299 110.872739,20.475565 C110.346531,19.1657444 109.793014,17.8989109 109.208819,16.6590003 C107.890744,13.8614854 106.478571,11.3240953 105.066758,9.09383715 C104.572983,8.31381346 104.114693,7.62811213 103.703706,7.04259731 C103.560131,6.83805409 103.43281,6.66074953 103.323217,6.51141609 C103.303176,6.48410746 103.284507,6.45879836 103.267236,6.43550201 C102.086145,6.34677671 94.1607251,5.74039626 91.0390796,5.52058085 C85.8788348,5.15721439 81.2164796,4.87977759 76.7998847,4.68992575 C72.6993669,4.5136608 68.9504419,4.42030063 65.5740013,4.42030063 C62.1975608,4.42030063 58.4486357,4.5136608 54.348118,4.68992575 C49.9315231,4.87977759 45.2691679,5.15721439 40.1089231,5.52058085 C36.9873255,5.74039289 29.0621005,6.34675813 27.8808206,6.43549793 C27.8634937,6.45888517 27.8447601,6.48429795 27.8246468,6.51172296 Z M21.411693,16.4345237 C22.7422361,13.6093058 24.1678673,11.0464282 25.5938591,8.79247801 C26.0933144,8.00302928 26.5573105,7.3083709 26.9740144,6.714338 C27.1201321,6.50603977 27.2499855,6.3250931 27.3620958,6.17222796 C27.4014858,6.11851876 27.435885,6.07210436 27.4651085,6.03307606 C27.4769382,6.01727733 27.5152261,5.96694092 27.5799723,5.88206682 C28.1460397,5.84131047 36.7756744,5.17996356 40.0686411,4.94808432 C45.2337026,4.58437868 49.901046,4.30664505 54.3234896,4.1165418 C58.4316827,3.93994692 62.1886052,3.84638759 65.5740013,3.84638759 C68.9593975,3.84638759 72.71632,3.93994692 76.8245131,4.1165418 C81.2469567,4.30664505 85.9143001,4.58437868 91.0793615,4.94808432 C94.3723282,5.17996356 103.001963,5.84131047 103.439148,5.87278743 L103.646425,5.98470511 C103.711974,6.0718554 103.746326,6.11817566 103.785662,6.17177598 C103.897617,6.32432968 104.027291,6.50490936 104.173206,6.71278735 C104.58933,7.30561883 105.052679,7.99889033 105.551437,8.78678506 C106.975435,11.0362938 108.399073,13.5942821 109.727754,16.4143096 C110.31531,17.6613519 110.872115,18.935485 111.393378,20.2343651 C111.429853,20.3105875 111.488404,20.4450396 111.561792,20.6340562 C111.687891,20.9588307 111.813642,21.3345389 111.930806,21.7570296 C112.2647,22.9610398 112.46487,24.301619 112.46487,25.7452158 L112.46487,26.0406065 L112.169718,26.032052 C111.994101,26.0270107 111.940711,26.0254877 111.8483,26.0228661 C111.584245,26.0153754 111.274344,26.0066858 110.920923,25.9968973 C109.911108,25.968929 108.755124,25.9377638 107.471576,25.904201 C103.804254,25.8083061 99.8499543,25.7124109 95.7575441,25.622909 C90.7054969,25.5124196 85.7967852,25.4195411 81.1648063,25.3500014 C75.2735885,25.2615568 70.0214202,25.2137827 65.5740013,25.2137827 C61.1264831,25.2137827 55.8739915,25.2615665 49.9822868,25.350028 C45.3509939,25.419565 40.4430224,25.5124339 35.3917278,25.622909 C31.299397,25.7124108 27.3451486,25.8083061 23.6778543,25.904201 C22.394317,25.9377638 21.2383387,25.968929 20.2285275,25.9968973 C19.8751079,26.0066858 19.5652077,26.0153754 19.3011529,26.0228661 C18.9934803,26.0316536 18.9934803,26.0316536 18.9797354,26.032052 L18.6845831,26.0406065 L18.6845831,25.7452158 C18.6845831,24.3016559 18.8844712,22.9611097 19.2178945,21.7571282 C19.3348938,21.3346473 19.4604674,20.9589478 19.5863883,20.6341813 C19.6597082,20.4450798 19.7181971,20.3105944 19.7546158,20.2343956 C20.2734877,18.9425485 20.8274141,17.6751563 21.411693,16.4345237 Z M7.34314203,38.0579113 C7.25252399,38.3655624 7.16184539,38.7021255 7.0772392,39.0563264 C6.93015809,39.6720764 6.81747758,40.2741275 6.75281901,40.8364136 C6.71337001,41.1794714 6.69273822,41.5009212 6.69273822,41.7966812 C6.69273822,43.5557873 7.24022228,45.1601223 8.00955363,45.7932264 C8.72713971,46.3835259 12.3486983,47.6210752 13.9998738,47.8892785 C14.4734257,47.9656728 14.7580478,47.9188255 15.1360259,47.744464 C15.2078908,47.7113127 15.4905534,47.5713628 15.5582577,47.5394095 C16.1859738,47.243157 16.7892332,47.100603 17.7298148,47.100603 C18.0611467,47.100603 18.5072903,47.1533793 19.2018076,47.2658907 C19.4861308,47.3119509 20.8882008,47.5538591 21.3013875,47.6214798 C23.8669248,48.0413469 25.8769529,48.2188394 27.86609,48.1007254 C30.4143046,47.9494137 32.5501056,47.2930176 34.2267976,46.0167761 C27.1056625,40.4971046 19.3849456,37.8970969 7.40051183,37.8671611 C7.38245046,37.9259018 7.36326151,37.9896051 7.34314203,38.0579113 Z M7.19060429,37.2929864 C19.5841018,37.2929864 27.5235073,40.0034827 34.8677838,45.7894283 L35.1467176,46.0091771 L34.8733479,46.2358155 C33.0516744,47.7460832 30.7048774,48.5070828 27.9000824,48.6736301 C25.8598539,48.7947779 23.8125979,48.613998 21.2087668,48.1878639 C20.7921553,48.1196827 19.3906958,47.8778798 19.1101008,47.8324236 C18.4449862,47.7246754 18.0209648,47.674516 17.7298148,47.674516 C16.8762478,47.674516 16.3561399,47.7974209 15.8030354,48.0584602 C15.7427551,48.0869097 15.4570388,48.2283716 15.3762566,48.2656364 C14.8991445,48.4857284 14.5004245,48.5513557 13.9082346,48.4558222 C12.165114,48.1726843 8.45954558,46.9064274 7.64513831,46.236481 C6.72143161,45.4763372 6.1190476,43.7111246 6.1190476,41.7966812 C6.1190476,41.4775509 6.141064,41.1345284 6.18288709,40.770825 C6.25043486,40.1834137 6.36721037,39.559483 6.519258,38.9229409 C6.60630742,38.5585115 6.69954555,38.2124484 6.79284424,37.8956965 C6.82556184,37.7846192 6.85598474,37.6850368 6.88334758,37.5983265 C6.89991524,37.5458251 6.9118864,37.5089724 6.91849571,37.489149 L6.98389819,37.2929864 L7.19060429,37.2929864 Z M29.8933402,72.9324669 C29.9836911,72.8411475 30.0534982,72.7391297 30.1054591,72.6270567 C30.2042454,72.4139875 30.2290018,72.2231032 30.2289787,71.9141202 C30.2289784,71.7928699 30.0968861,71.2669875 29.9008316,70.6971834 C29.6279986,69.9042337 29.2606117,69.0736148 28.8123999,68.290212 C27.5957831,66.16376 25.9921455,64.7059903 24.0013596,64.2707573 C19.7228689,63.3350084 8.59214302,60.657681 7.54097604,60.2663665 C7.09393395,60.1013877 6.73289457,60.0229133 6.43780354,60.0229133 C5.67474265,60.0229133 5.18423575,60.4582365 5.18423575,61.7064765 C5.18423575,62.4989516 5.47020012,64.4072929 5.93428987,66.0144361 C6.61641519,68.3766367 7.61810281,70.0978569 8.94091619,70.8196163 C11.4433558,72.1853468 12.8447219,72.6390038 14.1514729,72.6390038 C14.6132651,72.6390038 14.8780989,72.5350356 15.3024118,72.2639088 C15.7290832,71.9946427 16.0144922,71.9274259 16.6480346,71.9985287 L18.0713621,72.1814126 C19.7415671,72.3984269 20.5318033,72.4999472 21.5924783,72.631735 C21.9743607,72.6791835 22.3434124,72.724412 22.7011354,72.7675525 C25.6668182,73.1252062 27.7476944,73.3267994 28.7099722,73.3267994 C29.2425568,73.3267994 29.6361616,73.1909253 29.8933402,72.9324669 Z M30.3005018,73.3367766 C29.9249437,73.7142054 29.3846633,73.9007125 28.7099722,73.9007125 C27.7150894,73.9007125 25.6248082,73.6982081 22.6324737,73.3373403 C22.2740419,73.2941143 21.904311,73.2488025 21.5217687,73.2012721 C20.4596914,73.06931 19.6687208,72.9676953 17.9978739,72.7505974 L16.5795292,72.5683166 C16.0811197,72.5124093 15.925995,72.5489427 15.6098667,72.7484414 C15.103081,73.0722729 14.7448245,73.2129169 14.1514729,73.2129169 C12.7337414,73.2129169 11.2455365,72.731148 8.66619311,71.3234465 C7.1745563,70.5095729 6.10396896,68.6699609 5.38313568,66.1737146 C4.90450809,64.5162268 4.61054513,62.5545082 4.61054513,61.7064765 C4.61054513,60.1249511 5.3721827,59.4490002 6.43780354,59.4490002 C6.80913971,59.4490002 7.23391801,59.5413287 7.74029335,59.7282055 C8.75429033,60.1056816 19.884742,62.782943 24.1238657,63.710082 C26.2985424,64.1855179 28.0206111,65.7509461 29.3103037,68.0051231 C30.1543377,69.4803599 30.802669,71.3646411 30.802669,71.9087775 C30.8026982,72.3006894 30.7691157,72.5596284 30.6258953,72.8685362 C30.5465744,73.039621 30.4390809,73.1967146 30.3005018,73.3367766 Z M95.962491,74.2047031 L95.736079,74.3200254 L95.8208152,74.2064245 L95.962491,74.2047031 Z M95.9498985,74.03337 C96.2985158,73.5693724 96.6876309,72.741113 97.081,71.6925891 C97.2256531,71.307017 97.3626244,70.9134881 97.4888527,70.5283142 C97.5726644,70.2725703 97.6393861,70.0586569 97.6870567,69.8994489 L97.8701261,69.2878125 L97.2339493,69.3377794 C94.4206243,69.5543676 78.3948618,69.7042889 65.5740013,69.7042889 C52.7523926,69.7042889 36.7263325,69.5543648 33.9150617,69.337745 L33.278739,69.2877664 L33.460946,69.8994489 C33.5083621,70.0578071 33.5752887,70.2723048 33.6591407,70.5280818 C33.7853541,70.9130751 33.9223341,71.3065114 34.0669958,71.6920267 C34.4603756,72.7403621 34.8495152,73.5688066 35.1975846,74.0326806 L35.3289335,74.2064106 L35.5469973,74.2090602 C36.0497993,74.2157225 42.6747061,74.2779971 47.638647,74.3196874 C55.7052241,74.3874355 62.0655639,74.4281429 65.5754518,74.4281429 C69.0853398,74.4281429 75.4456796,74.3874355 83.5122566,74.3196874 C88.4761975,74.2779971 95.1011044,74.2157225 95.6042216,74.2090562 L95.8208152,74.2064245 L95.9498985,74.03337 Z M98.2366308,70.0641008 C98.1876077,70.227826 98.1194372,70.4463843 98.0339943,70.7071053 C97.9053932,71.0995197 97.7658149,71.5005388 97.6181085,71.8942496 C97.206505,72.9913771 96.7994228,73.8578807 96.4090914,74.3773955 L96.111135,74.7768524 L95.6115043,74.782923 C95.1074022,74.7896024 88.4820559,74.8518812 83.5170728,74.8935802 C75.4488477,74.9613422 69.0875106,75.002056 65.5754518,75.002056 C62.063393,75.002056 55.7020559,74.9613422 47.6338308,74.8935802 C42.6688478,74.8518812 36.0435015,74.7896024 35.5397146,74.782927 L35.0409245,74.7768664 L34.9561514,74.6647404 L34.7394023,74.3780518 C34.3485429,73.8571549 33.9414694,72.9905307 33.529901,71.8937237 C33.3821885,71.5000779 33.2426027,71.0991576 33.1140176,70.7069295 C33.028531,70.4461665 32.960148,70.2270011 32.9112639,70.0637392 L32.4901863,68.6501521 L32.9069145,68.6828831 L33.9595422,68.7655598 C36.7477902,68.9804053 52.7788219,69.1303758 65.5740013,69.1303758 C78.3684786,69.1303758 94.3991827,68.9804083 97.1894879,68.7655927 L98.6598548,68.6501059 L98.2366308,70.0641008 Z M95.7488176,65.6454733 C98.710645,64.8791583 102.151185,61.4372842 102.151185,58.6665362 C102.151185,57.1359521 100.905653,55.2624113 98.7649525,53.3312045 C97.0012699,51.7401197 94.7236853,50.219623 93.001127,49.411786 C89.2625009,47.6559226 78.8340345,46.3003759 65.5740013,46.3003759 C52.3141999,46.3003759 41.8859553,47.6558405 38.1452806,49.4118539 C36.4230446,50.2195396 34.1457871,51.7400206 32.3823448,53.3311866 C30.2420975,55.2623463 28.9968175,57.1359131 28.9968175,58.6665362 C28.9968175,61.4358508 32.4371013,64.8774684 35.3991481,65.6454637 C38.463882,66.4413273 45.4270285,66.7405039 65.5740013,66.7405039 C85.7214686,66.7405039 92.6859771,66.4412811 95.7488176,65.6454733 Z M65.5740013,67.3144169 C45.363217,67.3144169 38.3887648,67.0147546 35.2551101,66.2009933 C33.8557185,65.838161 32.1592751,64.7906156 30.8230196,63.453842 C29.3228821,61.9531229 28.4231269,60.2596131 28.4231269,58.6665362 C28.4231269,56.9282532 29.7473937,54.935848 31.9981056,52.9050153 C33.8032516,51.2762199 36.1278445,49.7241339 37.90167,48.892254 C41.7391492,47.090797 52.2356309,45.7264629 65.5740013,45.7264629 C78.9126429,45.7264629 89.4093549,47.0908804 93.2447838,48.8922078 C95.0188664,49.7242084 97.3437735,51.2762971 99.149152,52.9049974 C101.400342,54.9358809 102.724876,56.9282568 102.724876,58.6665362 C102.724876,60.2602889 101.8251,61.9542315 100.324983,63.4549303 C98.9886763,64.7917552 97.2922468,65.8388962 95.8928936,66.200993 C92.7609156,67.0147188 85.7850387,67.3144169 65.5740013,67.3144169 Z M125.965217,61.7050255 C125.965217,60.457432 125.47544,60.0219367 124.71165,60.0200112 C124.41602,60.0200112 124.053454,60.0987458 123.608782,60.2633516 C122.547106,60.6565285 111.402253,63.3376651 107.148153,64.2678423 C105.156537,64.7038683 103.55273,66.1633518 102.337937,68.2921111 C101.889388,69.0781332 101.522004,69.9121469 101.250041,70.707995 C101.143297,71.0203599 101.056981,71.311447 100.996896,71.5539332 C100.948876,71.7477292 100.921925,71.8969677 100.92192,71.9396031 C100.919217,72.3694086 100.989196,72.66216 101.256113,72.9310158 C101.513524,73.1897079 101.905837,73.3253484 102.43803,73.3253484 C103.400218,73.3253484 105.482325,73.123755 108.448109,72.766287 C108.806544,72.7230844 109.17631,72.6777913 109.558857,72.630282 C110.621917,72.4982585 111.431351,72.3943038 113.081248,72.1799284 L114.502327,71.9966142 C115.138676,71.9234916 115.415202,71.9891882 115.848405,72.263324 C116.272502,72.5343183 116.535015,72.6375528 116.99653,72.6375528 C118.305546,72.6375528 119.707868,72.1842911 122.207161,70.8195756 C123.530562,70.0978252 124.532639,68.3763518 125.214985,66.0137009 C125.679205,64.4063197 125.965217,62.4976919 125.965217,61.7050255 Z M126.538908,61.7050255 C126.538908,62.553252 126.244895,64.5152647 125.766133,66.1729988 C125.045068,68.6697187 123.974059,70.5096103 122.48189,71.3234024 C119.905748,72.7300809 118.416416,73.2114658 116.99653,73.2114658 C116.403289,73.2114658 116.047529,73.0715612 115.540653,72.7476684 C115.217821,72.5433793 115.072297,72.5088059 114.571749,72.5662957 L113.154884,72.7490942 C111.504195,72.9635726 110.694004,73.0676245 109.629535,73.199823 C109.246326,73.2474145 108.875879,73.2927911 108.516733,73.3360792 C105.524315,73.6967575 103.432803,73.8992614 102.43803,73.8992614 C101.763668,73.8992614 101.224654,73.7128998 100.849295,73.3356727 C100.619939,73.1046506 100.478276,72.8312202 100.406142,72.5294525 C100.35756,72.3262151 100.34678,72.1682056 100.348235,71.9377984 C100.348235,71.378714 100.993509,69.4904409 101.839716,68.0075771 C103.127523,65.7508704 104.849874,64.1835105 107.025579,63.7071817 C111.241444,62.785365 122.385353,60.1044553 123.409654,59.7251199 C123.913138,59.5387431 124.33976,59.4460981 124.712372,59.446099 C125.778823,59.4487864 126.538908,60.1246304 126.538908,61.7050255 Z M96.9211677,46.0168057 C98.5980165,47.2934884 100.734393,47.9498806 103.283598,48.1008849 C105.271877,48.2186623 107.280977,48.0411698 109.845724,47.621479 C110.258526,47.5539288 111.660868,47.3120146 111.945667,47.2658889 C112.640324,47.1533828 113.086666,47.100603 113.418188,47.100603 C114.35934,47.100603 114.962847,47.2431792 115.590368,47.5394228 C115.658242,47.5714652 115.940838,47.711443 116.012612,47.7445661 C116.390258,47.9188455 116.674668,47.9656582 117.147866,47.8893211 C118.801878,47.6209136 122.421211,46.3846551 123.13967,45.7934157 C123.908026,45.1600124 124.455264,43.5552384 124.455264,41.7966812 C124.455264,41.5008996 124.43467,41.1794302 124.395291,40.8363538 C124.33075,40.2740459 124.218274,39.6719766 124.071461,39.0562098 C123.987009,38.7020011 123.896496,38.365431 123.806044,38.0577734 C123.785977,37.9895209 123.766838,37.925864 123.748823,37.8671614 C111.764133,37.8971168 104.041958,40.4974216 96.9211677,46.0168057 Z M124.266089,37.5984717 C124.293401,37.6851797 124.323767,37.7847597 124.356423,37.8958344 C124.449547,38.2125798 124.542611,38.5586359 124.629498,38.9230575 C124.78126,39.5595828 124.897817,40.1834953 124.965237,40.7708848 C125.006981,41.1345696 125.028955,41.4775724 125.028955,41.7966812 C125.028955,43.7104297 124.426907,45.4759315 123.504315,46.236481 C122.688819,46.9075751 118.985444,48.1725399 117.239462,48.4558718 C116.647656,48.5513431 116.249112,48.4857442 115.772301,48.2657011 C115.691601,48.2284589 115.405969,48.0869773 115.345534,48.058447 C114.792657,47.7974418 114.272328,47.674516 113.418188,47.674516 C113.126833,47.674516 112.702617,47.7246795 112.037351,47.8324254 C111.756283,47.8779469 110.35456,48.1197544 109.938335,48.1878647 C107.335322,48.6138173 105.289022,48.7945962 103.249687,48.6737944 C100.443847,48.5075881 98.0964466,47.7465901 96.2746254,46.2357912 L96.001323,46.0091472 L96.2802189,45.7894283 C103.624114,40.003783 111.565057,37.2929864 123.958849,37.2929864 L124.165676,37.2929864 L124.231008,37.4893001 C124.237604,37.5091216 124.249553,37.5459724 124.266089,37.5984717 Z" id="Tesla-Car" fill="#221E22"></path>
                            <path d="M123.56866,38.4188372 C123.608084,38.5130087 123.75444,39.0092717 123.860997,39.4582384 C124.034022,40.1872588 124.137965,40.8782181 124.137965,41.474707 C124.137965,42.7652164 123.343079,44.6974192 122.633658,45.2822383 C122.038133,45.7723121 118.602557,47.0027641 117.414953,47.1954843 C117.019304,47.2593113 116.692765,47.2071514 116.309793,47.0512132 C116.237608,47.0218211 116.165414,46.9899322 116.068303,46.9452307 C116.040241,46.9323134 116.008955,46.9178075 115.949642,46.8902893 C115.901554,46.8680174 115.865817,46.8516148 115.830307,46.8355875 C115.3179,46.6043116 114.913747,46.5004759 114.322025,46.5004759 C114.108865,46.5004759 113.711112,46.549908 112.97942,46.6630475 C112.837184,46.6850411 112.685755,46.7088339 112.468309,46.7432638 C112.40798,46.7528161 112.332142,46.7648386 112.19146,46.7871411 C112.077355,46.8052233 111.989029,46.8191947 111.901446,46.8330039 C111.413635,46.9099166 111.023228,46.9699094 110.624822,47.0284367 C108.829928,47.2921134 107.282556,47.4616141 105.79758,47.5305095 C102.292141,47.6931443 99.6787272,47.2554395 98.1551692,45.9919842 L97.8818669,45.7653402 L98.1607627,45.5456213 C103.007007,41.7276679 114.352266,38.2427301 123.304081,38.2427301 L123.494934,38.2427301 L123.56866,38.4188372 Z" id="Path" fill-opacity="0.5" fill="#FBB040"></path>
                            <path d="M7.30199735,39.5621562 C7.12897265,40.2911766 7.02502977,40.9821359 7.02502977,41.5786248 C7.02502977,42.8691341 7.81991548,44.801337 8.52933656,45.3861561 C9.12486127,45.8762298 12.5604378,47.1066819 13.7480413,47.2994021 C14.1436909,47.3632291 14.4702291,47.3110692 14.8532019,47.155131 C14.9253866,47.1257389 14.9975806,47.09385 15.0946917,47.0491485 C15.1227536,47.0362312 15.1540398,47.0217253 15.2133527,46.9942071 C15.2614405,46.9719352 15.2971778,46.9555326 15.3326874,46.9395053 C15.8450945,46.7082293 16.2492472,46.6043936 16.8409696,46.6043936 C17.0541295,46.6043936 17.4518826,46.6538258 18.1835746,46.7669653 C18.3258109,46.7889589 18.4772389,46.8127516 18.6946853,46.8471816 C18.7550144,46.8567339 18.8308521,46.8687564 18.9715347,46.8910589 C19.0856393,46.9091411 19.1739652,46.9231125 19.2615485,46.9369216 C19.7493593,47.0138344 20.1397667,47.0738272 20.5381723,47.1323544 C22.3330668,47.3960312 23.8804384,47.5655319 25.3654139,47.6344273 C28.8708532,47.7970621 31.4842672,47.3593573 33.0078252,46.095902 L33.2811275,45.869258 L33.0022317,45.6495391 C28.1559875,41.8315857 16.8107284,38.3466479 7.85891385,38.3466479 L7.66806014,38.3466479 L7.59433462,38.522755 C7.55491066,38.6169265 7.40855452,39.1131894 7.30199735,39.5621562 Z" id="Path" fill="#FBB040" opacity="0.495754076"></path>
                        </g>
                        <g id="man" transform="translate(76.068457, 4.252359)">
                            <mask id="mask-2" fill="white">
                                <use xlink:href="#path-1"></use>
                            </mask>
                            <g id="Mask"></g>
                            <g id="Group-7" mask="url(#mask-2)" fill-rule="nonzero">
                                <g transform="translate(1.041452, 0.148837)">
                                    <path d="M2.37387739,20.6943428 C3.38690347,20.0810862 5.03264253,19.7584224 7.23319716,18.7777115 C7.23319716,18.7777115 7.23319716,17.1614519 7.55658586,17.0801801 C7.55658586,17.0801801 8.20310119,17.4031699 8.2840794,16.0288905 C8.2840794,16.0288905 8.36479554,14.2694877 7.71828021,12.6524417 C7.71828021,12.6524417 7.4040638,13.0273405 7.05342029,12.6524417 C6.70251473,12.2783293 5.45508343,9.15696903 7.07150281,8.4294556 C7.07150281,8.4294556 6.01537925,3.98493842 8.96780802,2.00348023 C9.02415208,1.91748945 10.0160696,0.500476806 14.4423542,0 C14.4423542,0 13.3398451,0.930692855 14.4352784,1.75284857 C17.9068587,3.5775309 16.7540331,8.42971777 16.7540331,8.42971777 C18.3704524,9.15749336 17.1230211,12.2788537 16.7726397,12.6527038 C16.42121,13.0276026 16.1077798,12.6527038 16.1077798,12.6527038 C15.4610024,14.2697499 15.5419806,16.0291526 15.5419806,16.0291526 C15.6226967,17.4034321 16.2692121,17.0804423 16.2692121,17.0804423 C16.5920766,17.1617141 16.5920766,18.7779736 16.5920766,18.7779736 C18.9024044,19.8075081 20.545334,20.4598159 21.530882,21.0843718" id="Shape" fill="#221E22" opacity="0.681555707"></path>
                                    <path d="M23.6155996,20.6791728 C20.7054731,16.9180311 16.2282408,14.671317 11.3815841,14.671317 C6.64378951,14.671317 2.25620957,16.8176679 -0.660807909,20.4365409 L0.827812766,21.6373844 C3.38557835,18.4642019 7.22835853,16.5843605 11.3815841,16.5843605 C15.6301607,16.5843605 19.551651,18.5521985 22.1033808,21.8501367 L23.6155996,20.6791728 Z" id="Oval-3" fill="#979797"></path>
                                </g>
                            </g>
                        </g>
                        <g id="web-cam" transform="translate(44.939099, 6.695652)">
                            <ellipse id="Oval-5" fill="#979797" cx="3.07095103" cy="3.0780671" rx="2.92088576" ry="3.03440352"></ellipse>
                            <path d="M3.06244642,4.90607544 C2.10875017,4.90607544 1.33861145,4.10600593 1.33861145,3.12260294 C1.33861145,2.13919995 2.10875017,1.33913043 3.06244642,1.33913043 C4.01614267,1.33913043 4.78628139,2.13919995 4.78628139,3.12260294 C4.78628139,4.10600593 4.01614267,4.90607544 3.06244642,4.90607544 Z M3.06244642,4.52346674 C3.80161865,4.52346674 4.40382098,3.89786033 4.40382098,3.12260294 C4.40382098,2.34734554 3.80161865,1.72173913 3.06244642,1.72173913 C2.32327419,1.72173913 1.72107186,2.34734554 1.72107186,3.12260294 C1.72107186,3.89786033 2.32327419,4.52346674 3.06244642,4.52346674 Z" id="Oval-5" fill="#221E22" fill-rule="nonzero"></path>
                        </g>
                    </g>
                    <g id="road" transform="translate(0.000000, 96.991304)" fill-rule="nonzero" fill="#221E22">
                        <path d="M83.6896377,38.8419086 L74.634224,38.8419086 L70.8601315,56.6245619 L87.4637303,56.6245619 L83.6896377,38.8419086 Z M74.3244411,38.4592999 L83.9994207,38.4592999 L87.9359188,57.0071706 L70.387943,57.0071706 L74.3244411,38.4592999 Z" id="Rectangle-4"></path>
                        <path d="M74.3858995,25.4488125 L74.3805636,25.4938472 L74.6803724,25.8314212 L74.7257048,25.8314212 L74.7710371,25.4488125 L74.3858995,25.4488125 Z M83.5475384,25.4488125 L82.0680046,14.1370647 L76.111278,14.1370647 L74.7710371,25.4488125 L83.5475384,25.4488125 Z M74.3405671,25.8314212 L75.7714728,13.754456 L82.4036814,13.754456 L83.9833027,25.8314212 L74.3405671,25.8314212 Z" id="Rectangle-4-Copy"></path>
                        <polygon id="Line-2" points="0.393185116 17.3524863 16.3686025 0.289245202 16.0875396 0.0203126811 0.1121222 17.0835538"></polygon>
                        <polygon id="Line-2-Copy" points="142.068019 0.792685248 157.374019 17.7349637 157.651891 17.4598508 142.345891 0.517572376"></polygon>
                    </g>
                </g>
            </g>
        </g>
    </g>
</svg>