<svg xmlns="http://www.w3.org/2000/svg" width="205" height="74" viewBox="0 0 205 74">
    <path fill="#FFF" fill-rule="evenodd" d="M.092.237h203.922v73.526H.092V.237zm56.84 32.45l2.07-4.35c-2.19-1.41-5.31-2.37-8.4-2.37-5.07 0-8.4 2.49-8.4 6.42 0 7.44 11.07 5.28 11.07 8.85 0 1.11-1.02 1.71-2.64 1.71-2.19 0-5.46-1.32-7.62-3.18l-2.13 4.29c2.52 2.07 6.18 3.36 9.69 3.36 4.68 0 8.46-2.19 8.46-6.48 0-7.56-11.07-5.58-11.07-9.06 0-.96.87-1.44 2.19-1.44 1.74 0 4.56.99 6.78 2.25zm20.75 14.55h5.85l-8.82-21.03h-5.64l-9.03 21.03h5.64l1.47-3.72h9.09l1.44 3.72zm-8.88-7.92l2.94-7.5 2.88 7.5h-5.82zm17.12-13.11v21.03h5.49v-7.59h9.42v-4.38h-9.42v-4.68h10.2l.03-4.38h-15.72zm18.71 0v21.03h16.89v-4.38h-11.4v-3.96l10.02-.03v-4.35h-10.02v-3.93h11.1v-4.38h-16.59zm18.92 0v4.53h6.24v16.5h5.49v-16.5h6.3v-4.53h-18.03zm39.38 0h-5.49l-4.86 9.03-4.98-9.03h-5.49l7.74 14.46v6.57h5.49v-6.72l7.59-14.31z" opacity=".8"/>
</svg>
