<svg xmlns="http://www.w3.org/2000/svg" width="295" height="107" viewBox="0 0 295 107">
    <g fill="none" fill-rule="evenodd">
        <path fill="#FBB040" d="M45.577.899L.867 67.889v16.013l43.391.064v21.424H64.82V83.902h12.263V65.938h-12.45V.898H45.576zm-.94 26.953v38.473H21.241l23.396-38.474z"/>
        <path stroke="#242424" stroke-linecap="round" stroke-linejoin="round" stroke-width="2" d="M44.77 66.426H21.374L44.77 27.954v38.472zm19.995-.387V1H45.71L1 67.99v16.014l43.391.063v21.424h20.56V84.004h12.265V66.04h-12.45z"/>
        <path fill="#FBB040" d="M262.242.899l-44.709 66.99v16.013l43.391.027v21.46h20.56V83.903h12.264V65.938h-12.45V.898h-19.056zm-.94 27.54v37.886h-23.396l23.396-37.887z"/>
        <path stroke="#242424" stroke-linecap="round" stroke-linejoin="round" stroke-width="2" d="M261.078 66.714h-23.396l23.396-37.887v37.887zm19.995-.387V1.287h-19.055l-44.71 66.99v16.015l43.391.026v21.46h20.561V84.292h12.265V66.327h-12.452z"/>
        <path fill="#FBB040" d="M191.115 105.39h-87.611c-3.664 0-6.658-3.102-6.658-6.894V7.789C96.846 4 99.84.9 103.504.9h87.611c3.663 0 6.655 3.1 6.655 6.89v90.707c0 3.792-2.992 6.893-6.655 6.893"/>
        <path stroke="#242424" stroke-linecap="round" stroke-linejoin="round" stroke-width="2" d="M191.578 105.778h-87.612c-3.663 0-6.657-3.1-6.657-6.893V8.178c0-3.79 2.994-6.89 6.657-6.89h87.612c3.663 0 6.655 3.1 6.655 6.89v90.707c0 3.792-2.992 6.893-6.655 6.893z"/>
        <path fill="#FBB040" d="M189.874 53.144c0 24.337-19.058 44.07-42.567 44.07-23.503 0-42.562-19.733-42.562-44.07 0-24.34 19.059-44.072 42.562-44.072 23.509 0 42.567 19.732 42.567 44.072"/>
        <path stroke="#242424" stroke-linecap="round" stroke-linejoin="round" stroke-width="2" d="M189.874 53.144c0 24.337-19.058 44.07-42.567 44.07-23.503 0-42.562-19.733-42.562-44.07 0-24.34 19.059-44.072 42.562-44.072 23.509 0 42.567 19.732 42.567 44.072z"/>
        <path fill="#FBC61B" d="M177.494 53.144c0 17.261-13.507 31.257-30.19 31.257-16.672 0-30.18-13.996-30.18-31.257 0-17.273 13.508-31.256 30.18-31.256 16.683 0 30.19 13.983 30.19 31.256"/>
        <path stroke="#242424" stroke-linecap="round" stroke-linejoin="round" stroke-width="2" d="M177.494 53.144c0 17.261-13.507 31.257-30.19 31.257-16.672 0-30.18-13.996-30.18-31.257 0-17.273 13.508-31.256 30.18-31.256 16.683 0 30.19 13.983 30.19 31.256z"/>
        <path fill="#FEFEFE" d="M182.187 53.144c0 19.945-15.607 36.116-34.884 36.116-19.264 0-34.87-16.17-34.87-36.116 0-19.958 15.606-36.116 34.87-36.116 19.277 0 34.884 16.158 34.884 36.116"/>
        <path stroke="#242424" stroke-linecap="round" stroke-linejoin="round" stroke-width="2" d="M182.187 53.144c0 19.945-15.607 36.116-34.884 36.116-19.264 0-34.87-16.17-34.87-36.116 0-19.958 15.606-36.116 34.87-36.116 19.277 0 34.884 16.158 34.884 36.116z"/>
        <path fill="#FEFEFE" d="M160.796 53.144c0 7.712-6.035 13.966-13.49 13.966-7.448 0-13.483-6.254-13.483-13.966 0-7.717 6.035-13.966 13.484-13.966 7.454 0 13.49 6.249 13.49 13.966"/>
        <path fill="#D8D8D8" stroke="#242424" stroke-linecap="round" stroke-linejoin="round" stroke-width="2" d="M160.796 53.144c0 7.712-6.035 13.966-13.49 13.966-7.448 0-13.483-6.254-13.483-13.966 0-7.717 6.035-13.966 13.484-13.966 7.454 0 13.49 6.249 13.49 13.966z"/>
        <path stroke="#090A09" stroke-linecap="round" stroke-width="2" d="M140.547 53.144c0-3.87 3.027-7.002 6.76-7.002"/>
    </g>
</svg>
