<svg xmlns="http://www.w3.org/2000/svg" width="491" height="190" viewBox="0 0 491 190">
    <defs>
        <linearGradient id="a" x1="0%" y1="1.259%" y2="0%">
            <stop offset="0%" stop-color="#F6F7F7"/>
            <stop offset="17.823%" stop-color="#E4E8E8"/>
            <stop offset="82.745%" stop-color="#E4E8E8"/>
            <stop offset="100%" stop-color="#F6F7F7"/>
        </linearGradient>
    </defs>
    <g fill="none" fill-rule="evenodd">
        <path fill="#242424" d="M363.422 166.304c7.922 1.28 20.616-8.93 20.616-8.93l58.612-4.25c4.901.404 5.844-4.736 5.844-4.736s5.458-21.438 1.813-24.641c-3.646-3.205-28.308-13.847-36.996-13.792-8.688.056-15.353-3.136-27.055 3.248-11.703 6.383-23.564 13.386-27.145 20.097-3.582 6.71-11.322 8.875-7.605 17.847 3.716 8.97 4.774 14.003 11.916 15.157M96.039 155.764l10.979 1.295 57.118 8.117c2.762 1.258 11.676.693 11.695.78 0 0 18.3-21.347 13.085-27.795-5.217-6.448-23.628-11.283-34.98-13.334-11.353-2.05-51.358-1.093-57.897 2.098-6.54 3.193-12.063 9.487-13.29 12.084-1.228 2.598 13.29 16.755 13.29 16.755"/>
        <path fill="#FBB040" d="M6.8 121.49l-2.1.802v10.851l3.483 2.305s-5.649-.378-6.62 2.345c-.969 2.723.68 2.723 1.068 4.136.388 1.412 3.782 13.818 3.782 13.818s1.358 5.346 5.139 5.346h17.14V121.491H6.802z"/>
        <path stroke="#242424" stroke-linecap="round" stroke-linejoin="round" stroke-width="2" d="M6.8 121.49l-2.1.802v10.851l3.483 2.305s-5.649-.378-6.62 2.345c-.969 2.723.68 2.723 1.068 4.136.388 1.412 3.782 13.818 3.782 13.818s1.358 5.346 5.139 5.346h17.14V121.491H6.802z"/>
        <path stroke="#F9A72C" stroke-linecap="round" stroke-linejoin="round" stroke-width="2" d="M478.671 133.708l2.182-9.38s1.017-1.816 2.182-2.118c1.163-.303 6.545-16.34 6.545-16.34s.873-2.119-.727-2.573c-1.6-.454-8.145-1.966-8.145-1.966s-4.365-3.178-9.165-3.783c-4.8-.605-47.128-4.69-73.165-5.446-26.038-.757-73.312-1.362-73.312-1.362s-12.073-17.4-13.092-20.274c-1.018-2.875-2.327-6.203 1.164-11.347-8-4.994-19.637-5.296-19.637-5.296s-70.111-1.21-86.984.908c-16.874 2.118-34.184 6.052-51.93 14.827-17.745 8.776-26.473 15.584-32 20.274-13.238-.152-113.605-4.237-113.605-4.237s-2.036-.15 0 2.572c2.037 2.724 9.746 12.558 9.746 12.558l-10.65 2.27v11.498s-.04 1.135-1.277 1.135v5.863s1.418-.379 1.418 1.437-.036 12.52-.036 12.52h15.272s5.092-.378 5.092 4.236c0 4.615.145 19.593.145 19.593l61.093 1.21s2.182-.302 3.71-2.042c1.527-1.74 12.581-13.314 19.855-16.49 7.272-3.178 21.674-3.33 21.674-3.33l20-.15s8.728.302 11.855 6.353c3.127 6.052 7.418 14.677 8.436 18.837 1.019 4.16.583 4.993 3.782 5.22 3.2.227 53.384 1.135 57.53 1.059 4.145-.076 104.076.005 104.076.005h18.11s2.108.6 5.382-4.847c3.272-5.447 15.37-25.418 15.37-25.418s8.993-15.432 21.14-16.264c12.145-.832 28.8 0 33.746 2.193 4.946 2.194 10.11 8.397 11.637 13.996 1.527 5.597 2.618 10.363 3.273 10.59.654.228 3.927.152 3.927.152s1.454-2.42 5.964-2.42c4.51 0 15.491-.076 15.491-.076l1.164-3.707"/>
        <path fill="#FBB040" d="M476.305 143.89l-1.16 3.701s-10.985.077-15.495.077c-4.504 0-5.959 2.426-5.959 2.426s-3.277.07-3.927-.153c-.657-.23-1.75-4.992-3.278-10.59-1.527-5.598-6.688-11.802-11.635-13.998-4.947-2.195-21.602-3.026-33.745-2.195-12.146.836-21.142 16.27-21.142 16.27s-12.096 19.966-15.367 25.417c-3.277 5.444-5.382 4.845-5.382 4.845h-18.11s-99.931-.083-104.08-.007c-4.142.077-54.33-.83-57.526-1.06-3.203-.222-2.768-1.059-3.786-5.22-1.013-4.156-5.309-12.78-8.432-18.837-1.16-2.24-3.093-3.696-5.057-4.64-3.344-1.59-6.8-1.71-6.8-1.71l-5.504.043-9.512.07-4.984.039s-1.11.013-2.871.095c-2.535.122-6.42.396-10.274 1.01-3.098.485-6.185 1.2-8.53 2.22-1.375.6-2.884 1.501-4.437 2.58-6.67 4.62-14.176 12.504-15.416 13.914-1.527 1.737-3.712 2.043-3.712 2.043l-61.092-1.213s-.148-14.98-.148-19.59c0-4.614-5.086-4.237-5.086-4.237H8.583s.037-10.705.037-12.525c0-1.812-1.418-1.436-1.418-1.436v-5.86c1.234 0 1.276-1.136 1.276-1.136v-11.495l10.648-2.273S11.418 90.63 9.381 87.91c-2.038-2.726 0-2.573 0-2.573s100.367 4.085 113.604 4.232c5.53-4.685 14.256-11.495 32.004-20.273 17.747-8.776 35.053-12.708 51.929-14.827 16.87-2.113 86.983-.907 86.983-.907s11.635.307 19.638 5.298c-3.492 5.145-2.185 8.47-1.166 11.343 1.019 2.878 13.095 20.279 13.095 20.279s47.273.6 73.311 1.36c26.038.753 68.364 4.838 73.163 5.444 4.799.607 9.168 3.786 9.168 3.786s6.542 1.512 8.144 1.966c1.601.453.725 2.572.725 2.572s-5.383 16.034-6.543 16.34c-1.166.3-2.185 2.12-2.185 2.12l-2.179 9.376"/>
        <path stroke="#242424" stroke-linecap="round" stroke-linejoin="round" stroke-width="2" d="M475.905 144.15l-1.16 3.701s-10.985.077-15.495.077c-4.504 0-5.959 2.426-5.959 2.426s-3.277.07-3.927-.153c-.657-.23-1.75-4.992-3.278-10.59-1.527-5.598-6.688-11.803-11.635-13.998-4.947-2.195-21.602-3.026-33.746-2.195-12.145.835-21.141 16.27-21.141 16.27s-12.096 19.965-15.367 25.417c-3.277 5.444-5.383 4.845-5.383 4.845h-18.109s-99.931-.083-104.08-.007c-4.142.077-54.33-.83-57.526-1.06-3.203-.222-2.768-1.06-3.786-5.22-1.013-4.156-5.309-12.78-8.432-18.837-1.16-2.24-3.093-3.696-5.057-4.641-3.344-1.589-6.8-1.71-6.8-1.71l-5.504.044-9.512.07-4.984.039s-1.11.013-2.871.095c-2.535.122-6.42.396-10.274 1.01-3.098.484-6.185 1.2-8.53 2.22-1.375.6-2.884 1.501-4.437 2.58-6.67 4.62-14.176 12.504-15.416 13.914-1.527 1.737-3.712 2.043-3.712 2.043l-61.092-1.213s-.148-14.98-.148-19.59c0-4.614-5.086-4.237-5.086-4.237H8.183s.037-10.705.037-12.525c0-1.812-1.418-1.436-1.418-1.436v-5.86c1.234 0 1.276-1.136 1.276-1.136v-11.495l10.648-2.273S11.018 90.89 8.981 88.17c-2.038-2.726 0-2.573 0-2.573s100.367 4.085 113.604 4.232c5.53-4.685 14.256-11.495 32.003-20.273 17.748-8.776 35.054-12.708 51.93-14.827 16.87-2.113 86.983-.907 86.983-.907s11.635.307 19.638 5.298c-3.492 5.145-2.185 8.47-1.166 11.343 1.019 2.878 13.095 20.279 13.095 20.279s47.273.6 73.311 1.36c26.038.753 68.364 4.838 73.163 5.444 4.799.607 9.168 3.786 9.168 3.786s6.542 1.512 8.144 1.966c1.601.453.725 2.572.725 2.572s-5.383 16.034-6.543 16.34c-1.166.3-2.185 2.12-2.185 2.12l-2.179 9.376"/>
        <path fill="#FEFEFE" d="M123.736 89.618s8.721-7.693 24.6-16.31c10.08-5.47 15.674-7.208 15.674-7.208s-.164-1 .585.072l1.87 2.67s1.37 1.129-.75 2.38c-2.12 1.252-26.486 17.724-28.185 18.882-3.692 0-13.794-.486-13.794-.486"/>
        <path stroke="#242424" stroke-linecap="round" stroke-linejoin="round" stroke-width="2" d="M468.78 115.401s-221.487.807-254.07 1.615c-32.582.806-147.786 4.033-157.483 4.437"/>
        <path fill="#DEDFE1" d="M383.973 155.344c0 16.853 13.134 30.515 29.338 30.515 16.203 0 29.34-13.662 29.34-30.515s-13.137-30.517-29.34-30.517c-16.204 0-29.338 13.664-29.338 30.517"/>
        <path stroke="#242424" stroke-linecap="round" stroke-linejoin="round" stroke-width="2" d="M383.973 155.344c0 16.853 13.134 30.515 29.338 30.515 16.203 0 29.34-13.662 29.34-30.515s-13.137-30.517-29.34-30.517c-16.204 0-29.338 13.664-29.338 30.517z"/>
        <path fill="#FEFEFE" d="M392.456 155.344c0 11.98 9.338 21.692 20.855 21.692 11.518 0 20.855-9.712 20.855-21.692s-9.337-21.693-20.855-21.693c-11.517 0-20.855 9.712-20.855 21.693"/>
        <path stroke="#242424" stroke-linecap="round" stroke-linejoin="round" stroke-width="2" d="M392.456 155.344c0 11.98 9.338 21.692 20.855 21.692 11.518 0 20.855-9.712 20.855-21.692s-9.337-21.693-20.855-21.693c-11.517 0-20.855 9.712-20.855 21.693z"/>
        <path fill="#FEFEFE" d="M396.792 155.344c0 9.489 7.395 17.182 16.52 17.182 9.123 0 16.518-7.693 16.518-17.182 0-9.49-7.395-17.183-16.519-17.183-9.124 0-16.52 7.693-16.52 17.183"/>
        <path stroke="#242424" stroke-linecap="round" stroke-linejoin="round" stroke-width="2" d="M396.792 155.344c0 9.489 7.395 17.182 16.52 17.182 9.123 0 16.518-7.693 16.518-17.182 0-9.49-7.395-17.183-16.519-17.183-9.124 0-16.52 7.693-16.52 17.183z"/>
        <path fill="#FEFEFE" d="M400.59 155.344c0 7.307 5.695 13.23 12.72 13.23 7.026 0 12.722-5.923 12.722-13.23 0-7.308-5.696-13.23-12.721-13.23-7.026 0-12.72 5.922-12.72 13.23"/>
        <path stroke="#242424" stroke-linecap="round" stroke-linejoin="round" stroke-width="2" d="M400.59 155.344c0 7.307 5.695 13.23 12.72 13.23 7.026 0 12.722-5.923 12.722-13.23 0-7.308-5.696-13.23-12.721-13.23-7.026 0-12.72 5.922-12.72 13.23z"/>
        <path fill="#FBB040" d="M404.91 155.344c0 4.825 3.762 8.737 8.4 8.737 4.64 0 8.402-3.912 8.402-8.737 0-4.827-3.761-8.738-8.402-8.738-4.638 0-8.4 3.911-8.4 8.738"/>
        <path stroke="#242424" stroke-linecap="round" stroke-linejoin="round" stroke-width="2" d="M404.91 155.344c0 4.825 3.762 8.737 8.4 8.737 4.64 0 8.402-3.912 8.402-8.737 0-4.827-3.761-8.738-8.402-8.738-4.638 0-8.4 3.911-8.4 8.738z"/>
        <path fill="#FEFEFE" d="M410.214 155.344c0 1.779 1.387 3.222 3.097 3.222 1.711 0 3.098-1.443 3.098-3.222 0-1.78-1.387-3.222-3.098-3.222-1.71 0-3.097 1.442-3.097 3.222"/>
        <path stroke="#242424" stroke-linecap="round" stroke-linejoin="round" stroke-width="2" d="M410.214 155.344c0 1.779 1.387 3.222 3.097 3.222 1.711 0 3.098-1.443 3.098-3.222 0-1.78-1.387-3.222-3.098-3.222-1.71 0-3.097 1.442-3.097 3.222z"/>
        <path fill="#FEFEFE" d="M400.59 155.344h25.442"/>
        <path stroke="#242424" stroke-linecap="round" stroke-linejoin="round" stroke-width="4" d="M400.59 155.344h25.442"/>
        <path fill="#FEFEFE" d="M413.31 168.574v-26.46"/>
        <path stroke="#242424" stroke-linecap="round" stroke-linejoin="round" stroke-width="4" d="M413.31 168.574v-26.46"/>
        <path fill="#DEDFE1" d="M107.016 155.345c0 16.851 13.139 30.518 29.34 30.518s29.34-13.667 29.34-30.518c0-5.52-1.405-10.697-3.872-15.16-3.345-1.589-6.8-1.71-6.8-1.71l-5.505.045-9.511.07-4.984.038s-1.11.013-2.871.096c-2.535.121-6.42.396-10.274 1.009-3.098.484-6.186 1.2-8.53 2.22-1.374.6-2.884 1.5-4.437 2.58a31.435 31.435 0 0 0-1.896 10.812"/>
        <path stroke="#242424" stroke-linecap="round" stroke-linejoin="round" stroke-width="2" d="M107.016 155.345c0 16.851 13.139 30.518 29.34 30.518s29.34-13.667 29.34-30.518c0-5.52-1.405-10.697-3.872-15.16-3.345-1.589-6.8-1.71-6.8-1.71l-5.505.045-9.511.07-4.984.038s-1.11.013-2.871.096c-2.535.121-6.42.396-10.274 1.009-3.098.484-6.186 1.2-8.53 2.22-1.374.6-2.884 1.5-4.437 2.58a31.435 31.435 0 0 0-1.896 10.812z"/>
        <path fill="#FEFEFE" d="M115.503 155.345c0 11.982 9.335 21.69 20.853 21.69 11.519 0 20.853-9.708 20.853-21.69 0-6.792-2.995-12.85-7.69-16.825l-9.511.07-4.984.038s-1.11.013-2.871.096c-2.535.121-6.42.396-10.274 1.009-3.933 3.944-6.376 9.478-6.376 15.612"/>
        <path stroke="#242424" stroke-linecap="round" stroke-linejoin="round" stroke-width="2" d="M115.503 155.345c0 11.982 9.335 21.69 20.853 21.69 11.519 0 20.853-9.708 20.853-21.69 0-6.792-2.995-12.85-7.69-16.825l-9.511.07-4.984.038s-1.11.013-2.871.096c-2.535.121-6.42.396-10.274 1.009-3.933 3.944-6.376 9.478-6.376 15.612z"/>
        <path fill="#FEFEFE" d="M119.836 155.345c0 9.485 7.395 17.183 16.52 17.183 9.126 0 16.52-7.698 16.52-17.183 0-8.19-5.498-15.031-12.868-16.756l-4.984.039s-1.11.013-2.871.096c-7.089 1.934-12.317 8.643-12.317 16.621"/>
        <path stroke="#242424" stroke-linecap="round" stroke-linejoin="round" stroke-width="2" d="M119.836 155.345c0 9.485 7.395 17.183 16.52 17.183 9.126 0 16.52-7.698 16.52-17.183 0-8.19-5.498-15.031-12.868-16.756l-4.984.039s-1.11.013-2.871.096c-7.089 1.934-12.317 8.643-12.317 16.621z"/>
        <path fill="#FEFEFE" d="M123.636 155.344c0 7.307 5.695 13.23 12.72 13.23s12.72-5.923 12.72-13.23c0-7.308-5.695-13.23-12.72-13.23s-12.72 5.922-12.72 13.23"/>
        <path stroke="#242424" stroke-linecap="round" stroke-linejoin="round" stroke-width="2" d="M123.636 155.344c0 7.307 5.695 13.23 12.72 13.23s12.72-5.923 12.72-13.23c0-7.308-5.695-13.23-12.72-13.23s-12.72 5.922-12.72 13.23z"/>
        <path fill="#FBB040" d="M127.955 155.344c0 4.825 3.762 8.737 8.401 8.737 4.64 0 8.401-3.912 8.401-8.737 0-4.827-3.76-8.738-8.401-8.738-4.64 0-8.4 3.911-8.4 8.738"/>
        <path stroke="#242424" stroke-linecap="round" stroke-linejoin="round" stroke-width="2" d="M127.955 155.344c0 4.825 3.762 8.737 8.401 8.737 4.64 0 8.401-3.912 8.401-8.737 0-4.827-3.76-8.738-8.401-8.738-4.64 0-8.4 3.911-8.4 8.738z"/>
        <path fill="#FEFEFE" d="M133.259 155.344c0 1.779 1.387 3.222 3.098 3.222 1.71 0 3.097-1.443 3.097-3.222 0-1.78-1.387-3.222-3.097-3.222-1.711 0-3.098 1.442-3.098 3.222"/>
        <path stroke="#242424" stroke-linecap="round" stroke-linejoin="round" stroke-width="2" d="M133.259 155.344c0 1.779 1.387 3.222 3.098 3.222 1.71 0 3.097-1.443 3.097-3.222 0-1.78-1.387-3.222-3.097-3.222-1.711 0-3.098 1.442-3.098 3.222z"/>
        <path fill="#FEFEFE" d="M127.362 145.988L145.35 164.7"/>
        <path stroke="#242424" stroke-linecap="round" stroke-linejoin="round" stroke-width="4" d="M127.362 145.988L145.35 164.7"/>
        <path fill="#FEFEFE" d="M127.362 164.7l17.989-18.712"/>
        <path stroke="#242424" stroke-linecap="round" stroke-linejoin="round" stroke-width="4" d="M127.362 164.7l17.989-18.712"/>
        <path stroke="#242424" stroke-linecap="round" stroke-linejoin="round" stroke-width="2" d="M451.323 150.356s-1.799-16.704-10.39-24.068c-6.469-5.545-18.119-7.255-29.949-6.55-11.83.707-18.619-.907-27.638 9.38-9.018 10.289-20.46 30.562-20.655 30.865-.194.303-2.86 3.26-1.77 9.145M87.38 160.44s10.963-14.78 19.012-19.52c8.048-4.74 14.109-7.505 27.394-7.505 13.286 0 22.348-.995 29.867 2.873 5.941 3.057 10.907 12.44 12.525 15.453.39.73.732 1.481 1.024 2.26 1.121 2.99 4.446 12.008 4.928 14.992"/>
        <path fill="#FBC61B" d="M2.631 141.929h25.922"/>
        <path stroke="#242424" stroke-linecap="round" stroke-linejoin="round" stroke-width="2" d="M2.631 141.929h25.922M8.077 114.493h7.515M8.077 121.453h6.9M18.729 100.725s5.721 9.33 12.896 9.23c7.177-.102 151.57-5.044 151.57-5.044s15.03-.605 22.4-4.64c7.37-4.034 4.558-5.244-.485-5.95-5.042-.707-40.438-3.027-55.177-3.33-14.74-.301-27.347-1.159-27.347-1.159"/>
        <path stroke="#242424" stroke-linecap="round" stroke-linejoin="round" stroke-width="2" d="M480.707 101.33s-43.928-4.488-67.396-5.093c-23.467-.605-87.955-2.925-102.21-2.925-14.254 0-110.915.529-110.915.529M197.47 93.624s.852 7.253-18.543 8.766c-19.394 1.512-101.142 3.329-101.142 3.329l-46.741 1.412s-2.424.2-5.334-3.43c-2.909-3.631-14.64-18.02-14.64-18.02"/>
        <path stroke="#242424" stroke-linecap="round" stroke-linejoin="round" stroke-width="2" d="M330.302 93.743c5.146.18 9.31 3.906 12.704 11.397 3.393 7.49 1.455 52.726 1.163 56.255-.29 3.53-2.521 2.623-2.521 2.623s-117.046-.504-120.731-.504c-3.685 0-3.103-3.631-3.103-3.631l-.679-8.154s-1.94-31.587-2.133-41.773c-.194-10.187 3.394-16.213 3.394-16.213l7.46-32.229.123-2.789"/>
        <path fill="#FBC61B" d="M338.836 169.968v-5.845"/>
        <path stroke="#242424" stroke-linecap="round" stroke-linejoin="round" stroke-width="2" d="M338.836 169.968v-5.845M348.345 91.079s-27.353-25.909-35.207-31.96M484.663 102.259L474.6 133.652"/>
        <path fill="#FBB040" d="M482.308 144.367h-19.346s-3.783-1.581-3.056-5.515c.728-3.933 2.62-5.2 3.928-5.2h16.873s4.8 3.082 4.8 6.259c0 2.201-3.2 4.456-3.2 4.456"/>
        <path stroke="#242424" stroke-linecap="round" stroke-linejoin="round" stroke-width="2" d="M482.308 144.367h-19.346s-3.783-1.581-3.056-5.515c.728-3.933 2.62-5.2 3.928-5.2h16.873s4.8 3.082 4.8 6.259c0 2.201-3.2 4.456-3.2 4.456z"/>
        <path fill="#FBC61B" d="M484.663 139.01l-24.757-.158"/>
        <path stroke="#242424" stroke-linecap="round" stroke-linejoin="round" stroke-width="2" d="M484.663 139.01l-24.757-.158"/>
        <path fill="#FBB040" d="M474.743 147.854h5.31s8.291 4.086 8.291 7.49c0 .35-.048.732-.143 1.135-.815 3.511-5.046 8.623-10.33 8.623h-22.546s-5.019-2.194-5.019-8.094c0-.181.003-.358.008-.53.173-5.417 2.974-6.127 2.974-6.127s2.066-2.568 4.777-2.497c2.711.073 16.678 0 16.678 0"/>
        <path stroke="#242424" stroke-linecap="round" stroke-linejoin="round" stroke-width="2" d="M474.743 147.854h5.31s8.291 4.086 8.291 7.49c0 .35-.048.732-.143 1.135-.815 3.511-5.046 8.623-10.33 8.623h-22.546s-5.019-2.194-5.019-8.094c0-.181.003-.358.008-.53.173-5.417 2.974-6.127 2.974-6.127s2.066-2.568 4.777-2.497c2.711.073 16.678 0 16.678 0zM487.762 156.479h-37.455M136.944 90.584c1.745-1.665 26.59-18.378 28.77-19.362 2.183-.983 1.092-1.891 1.092-1.891l-2.804-4.008"/>
        <path stroke="#242424" stroke-linecap="round" stroke-linejoin="round" stroke-width="2" d="M164.002 65.324l2.804 4.007s1.09.908-1.09 1.891c-2.183.984-27.027 17.698-28.772 19.362"/>
        <path fill="#FEFEFE" d="M308.743 92.675l-9.787-30.681h7.055c2.764 0 2.764 2.647 2.764 2.647s-.437 1.967 0 5.296c.436 3.328 14.076 22.946 14.076 22.946"/>
        <path stroke="#242424" stroke-linecap="square" stroke-linejoin="round" stroke-width="2" d="M308.743 92.675l-9.787-30.681h7.055c2.764 0 2.764 2.647 2.764 2.647s-.437 1.967 0 5.296c.436 3.328 14.076 22.946 14.076 22.946"/>
        <path stroke="#242424" stroke-linecap="round" stroke-linejoin="round" stroke-width="2" d="M149.495 90.983s18.038-13.028 27.711-17.113c9.674-4.085 27.565-11.65 45.82-12.18 18.255-.529 75.93.303 75.93.303v-2.874"/>
        <path stroke="#242424" stroke-linecap="round" stroke-linejoin="round" stroke-width="2" d="M311.21 58.046l-1.66 2.485s-.388-1.009-8.533-1.413c-8.146-.403-71.373-1.072-71.373-1.072s-11.793.406-26.764 3.468c-18.619 3.81-45.967 18.64-59.542 29.304"/>
        <path fill="#FBB040" d="M236.754 106.144l1.641-4.69c.343-.98-.354-2.015-1.356-2.015h-13.137c-.974 0-1.669.984-1.377 1.952l1.42 4.691a1.45 1.45 0 0 0 1.376 1.05h10.077c.607 0 1.149-.394 1.356-.988"/>
        <path stroke="#242424" stroke-linecap="round" stroke-linejoin="round" stroke-width="2" d="M236.754 106.144l1.641-4.69c.343-.98-.354-2.015-1.356-2.015h-13.137c-.974 0-1.669.984-1.377 1.952l1.42 4.691a1.45 1.45 0 0 0 1.376 1.05h10.077c.607 0 1.149-.394 1.356-.988z"/>
        <path fill="#FBC61B" d="M223.19 103.882h14.4"/>
        <path stroke="#242424" stroke-linecap="round" stroke-linejoin="round" stroke-width="2" d="M223.19 103.882h14.4M166.463 64.35l2.484 3.467c.62.865.831 2 .486 3.018-.29.855-.871 1.795-2.03 2.387-3.69 1.886-20.554 12.17-26.77 17.362"/>
        <path fill="#FBB040" d="M4.087 114.233H2.399s-.959-.12-.959-1.635v-7.66s.039-1.157 1.113-1.157c1.073 0 1.534-.16 1.534-.16"/>
        <path stroke="#242424" stroke-linecap="round" stroke-linejoin="round" stroke-width="2" d="M4.087 114.233H2.399s-.959-.12-.959-1.635v-7.66s.039-1.157 1.113-1.157c1.073 0 1.534-.16 1.534-.16"/>
        <path fill="#FBB040" d="M4.087 133.144h-2.07S1 133.022 1 132.086v-8.558s.012-1.127 1.017-1.127h2.07"/>
        <path stroke="#242424" stroke-linecap="round" stroke-linejoin="round" stroke-width="2" d="M4.087 133.144h-2.07S1 133.022 1 132.086v-8.558s.012-1.127 1.017-1.127h2.07"/>
        <path fill="#FBB040" d="M71.316 103.751h5.307c2.432 0 4.404-2.05 4.404-4.58v-2.312c0-2.53-1.972-4.58-4.404-4.58h-5.307c-2.432 0-4.404 2.05-4.404 4.58v2.312c0 2.53 1.972 4.58 4.404 4.58"/>
        <path stroke="#242424" stroke-linecap="round" stroke-linejoin="round" stroke-width="2" d="M71.316 103.751h5.307c2.432 0 4.404-2.05 4.404-4.58v-2.312c0-2.53-1.972-4.58-4.404-4.58h-5.307c-2.432 0-4.404 2.05-4.404 4.58v2.312c0 2.53 1.972 4.58 4.404 4.58zM356.11 94.464l2.863-6.282s.664-1.223-.921-2.287c-1.585-1.064-4.04-1.702-4.04-1.702s-.256 1.809-.563 2.447c1.534.159 2.696.744 2.831 1.383.136.638-2.423 5.948-4.774 6.298M352.376 77.49l-2.864 14.842s-.103.345-.46.265c-.359-.08-.706-.212-.706-.212s-.47.159-.164-1.064c.308-1.224 2.634-14.229 2.634-14.229s.28-.346.69-.293c.41.053.767.213.767.213s.17.131.103.479zM354.012 84.193s-.435-5.293-1.637-6.702M353.45 86.64s-2.428 4.75-3.899 5.487"/>
        <path stroke="#242424" stroke-linecap="round" stroke-linejoin="round" stroke-width="2" d="M347.724 90.891L441.09 3.245s6.36-4.612 9.817.03c3.456 4.642 9.962 14.122 9.962 14.122"/>
        <path fill="#FEFEFE" d="M149.933 90.992s28.309-23.396 58.653-27.561c11.166-1.917 17.27-1.917 17.27-1.917l-7.36 31.797-19.295.45s-43.187-2.612-49.268-2.77"/>
        <path stroke="#242424" stroke-linecap="square" stroke-linejoin="round" stroke-width="2" d="M149.933 90.992s28.309-23.396 58.653-27.561c11.166-1.917 17.27-1.917 17.27-1.917l-7.36 31.797-19.295.45s-43.187-2.612-49.268-2.77z"/>
        <path fill="#FEFEFE" d="M298.956 61.993l-73.101-.479-7.36 31.798 90.472.002z"/>
        <path stroke="#242424" stroke-linecap="round" stroke-linejoin="round" stroke-width="2" d="M298.956 61.993l-73.101-.479-7.36 31.798 90.472.002z"/>
        <path fill="#FBB040" d="M8.077 102.995l-3.377.626v10.612l2.295 1.384s1.083-.1 1.083-1.644v-10.978"/>
        <path stroke="#242424" stroke-linecap="round" stroke-linejoin="round" stroke-width="2" d="M8.077 102.995l-3.377.626v10.612l2.295 1.384s1.083-.1 1.083-1.644v-10.978z"/>
        <g stroke="url(#a)" stroke-width="3" transform="translate(23.878 186.59)">
            <path d="M.5 1.5h443.001"/>
        </g>
    </g>
</svg>
