<?xml version="1.0" encoding="UTF-8"?>
<svg width="88px" height="88px" viewBox="0 0 88 88" version="1.1" xmlns="http://www.w3.org/2000/svg" xmlns:xlink="http://www.w3.org/1999/xlink">
    <!-- Generator: Sketch 46.1 (44463) - http://www.bohemiancoding.com/sketch -->
    <title>Group</title>
    <desc>Created with Sketch.</desc>
    <defs></defs>
    <g id="Home-page" stroke="none" stroke-width="1" fill="none" fill-rule="evenodd">
        <g id="Nexar-Home" transform="translate(-260.000000, -907.000000)">
            <g id="advantages" transform="translate(0.000000, 801.000000)">
                <g id="1" transform="translate(144.000000, 107.000000)">
                    <g id="Group" transform="translate(117.000000, 0.000000)">
                        <circle id="Oval" stroke="#FBB040" cx="43" cy="43" r="43"></circle>
                        <path d="M57.8837209,51.0069767 C55.8488372,49.844186 54.8023256,47.6348837 54.8023256,44.3209302 L54.8023256,40.0186047 C54.8023256,34.3209302 50.6744186,29.4953488 45.2093023,28.5069767 C45.7906977,27.9255814 46.1976744,27.1116279 46.1976744,26.2395349 C46.1976744,24.4953488 44.8023256,23.1 43.0581395,23.1 C41.3139535,23.1 39.9186047,24.4953488 39.9186047,26.2395349 C39.9186047,27.1116279 40.3255814,27.9255814 40.9069767,28.5069767 C35.4418605,29.4953488 31.3139535,34.2627907 31.3139535,40.0186047 L31.3139535,44.3209302 C31.3139535,47.6930233 30.3255814,49.844186 28.2325581,51.0069767 L28,51.1232558 L28,56.5883721 L38.872093,56.5883721 C39.1627907,58.6232558 40.9069767,60.1930233 43,60.1930233 C45.0930233,60.1930233 46.8372093,58.6232558 47.127907,56.5883721 L58,56.5883721 L58,51.1232558 L57.8837209,51.0069767 Z M43.1162791,24.2627907 C44.2209302,24.2627907 45.0930233,25.1348837 45.0930233,26.2395349 C45.0930233,27.344186 44.2209302,28.2162791 43.1162791,28.2162791 C42.0116279,28.2162791 41.1395349,27.344186 41.1395349,26.2395349 C41.1395349,25.1348837 42.0116279,24.2627907 43.1162791,24.2627907 Z M43.1162791,59.0302326 C41.6627907,59.0302326 40.4418605,57.9837209 40.1511628,56.5883721 L46.0813953,56.5883721 C45.7906977,57.9837209 44.5697674,59.0302326 43.1162791,59.0302326 Z M57.1860465,55.6581395 L29.0465116,55.6581395 L29.0465116,51.7627907 C31.255814,50.4255814 32.3604651,47.9255814 32.3604651,44.3790698 L32.3604651,40.0767442 C32.3604651,34.1465116 37.1860465,29.3209302 43.1162791,29.3209302 C49.0465116,29.3209302 53.872093,34.1465116 53.872093,40.0767442 L53.872093,44.3790698 C53.872093,47.9255814 54.9767442,50.4255814 57.1860465,51.7627907 L57.1860465,55.6581395 Z" id="Shape" fill="#FBB040" fill-rule="nonzero"></path>
                    </g>
                </g>
            </g>
        </g>
    </g>
</svg>