<?xml version="1.0" encoding="UTF-8"?>
<svg width="88px" height="88px" viewBox="0 0 88 88" version="1.1" xmlns="http://www.w3.org/2000/svg" xmlns:xlink="http://www.w3.org/1999/xlink">
    <!-- Generator: Sketch 46.1 (44463) - http://www.bohemiancoding.com/sketch -->
    <title>Group Copy 2</title>
    <desc>Created with Sketch.</desc>
    <defs></defs>
    <g id="Home-page" stroke="none" stroke-width="1" fill="none" fill-rule="evenodd">
        <g id="Nexar-Home" transform="translate(-1092.000000, -907.000000)">
            <g id="advantages" transform="translate(0.000000, 801.000000)">
                <g id="3" transform="translate(980.000000, 107.000000)">
                    <g id="Group-Copy-2" transform="translate(113.000000, 0.000000)">
                        <circle id="Oval" stroke="#FBB040" cx="43" cy="43" r="43"></circle>
                        <path d="M30.9529675,25 C30.7757559,25.0239362 30.6338186,25.2011478 30.6577548,25.3770997 C30.6816909,25.5543113 30.8702408,25.6836506 31.0474524,25.6601344 C45.5628499,25.6601344 57.3386058,37.4027156 57.3386058,51.8916573 C57.3268477,52.068869 57.4918813,52.2334826 57.6690929,52.2334826 C57.8463046,52.2334826 58,52.068449 58,51.8916573 C58,37.0491321 45.9290314,25 31.0470325,25 C31.0235162,25 31,25 30.9764838,25 C30.9647256,25 30.9529675,25 30.9529675,25 L30.9529675,25 Z M30.9529675,33.3822788 C30.7757559,33.406215 30.6338186,33.5834267 30.6577548,33.7593785 C30.6816909,33.9365901 30.8702408,34.0659295 31.0474524,34.0424132 C40.9217525,34.0424132 48.9412094,42.0358343 48.9412094,51.8916573 C48.9294513,52.068869 49.0944849,52.2334826 49.2716965,52.2334826 C49.4489082,52.2334826 49.6021837,52.068449 49.6021837,51.8916573 C49.6021837,41.6704927 41.287514,33.3822788 31.0470325,33.3822788 C31.0235162,33.3822788 31,33.3822788 30.9764838,33.3822788 C30.9647256,33.3822788 30.9529675,33.3822788 30.9529675,33.3822788 L30.9529675,33.3822788 Z M31.0117581,41.6352184 C30.8345465,41.6469765 30.681271,41.81243 30.6926092,41.9892217 C30.7043673,42.1542553 30.8698208,42.3075308 31.0470325,42.2953527 C36.3503639,42.2953527 40.6613942,46.5984043 40.6613942,51.8920773 C40.650056,52.0692889 40.8150896,52.2339026 40.9923012,52.2339026 C41.1695129,52.2339026 41.3227884,52.068869 41.3227884,51.8920773 C41.3227884,46.2330627 36.7165454,41.6352184 31.0470325,41.6352184 C31.0356943,41.6352184 31.0235162,41.6352184 31.0117581,41.6352184 L31.0117581,41.6352184 Z M31.0470325,48.850084 C29.3584826,48.850084 28,50.2178052 28,51.8916573 C28,53.5776876 29.3580627,54.9332307 31.0470325,54.9332307 C32.7242441,54.9332307 34.0944849,53.5772676 34.0944849,51.8916573 C34.0944849,50.2178052 32.7242441,48.850084 31.0470325,48.850084 L31.0470325,48.850084 Z M31.0470325,49.5223964 C32.3580627,49.5223964 33.4209127,50.5831467 33.4209127,51.8920773 C33.4209127,53.212766 32.3580627,54.2739362 31.0470325,54.2739362 C29.7246641,54.2739362 28.6613942,53.212766 28.6613942,51.8920773 C28.6613942,50.5831467 29.7246641,49.5223964 31.0470325,49.5223964 L31.0470325,49.5223964 Z" id="Shape" stroke="#FCB347" stroke-width="0.3" fill="#FBB040" fill-rule="nonzero" transform="translate(43.000000, 39.966615) rotate(-45.000000) translate(-43.000000, -39.966615) "></path>
                    </g>
                </g>
            </g>
        </g>
    </g>
</svg>