<?xml version="1.0" encoding="UTF-8"?>
<svg width="88px" height="88px" viewBox="0 0 88 88" version="1.1" xmlns="http://www.w3.org/2000/svg" xmlns:xlink="http://www.w3.org/1999/xlink">
    <!-- Generator: Sketch 46.1 (44463) - http://www.bohemiancoding.com/sketch -->
    <title>Group Copy</title>
    <desc>Created with Sketch.</desc>
    <defs></defs>
    <g id="Home-page" stroke="none" stroke-width="1" fill="none" fill-rule="evenodd">
        <g id="Nexar-Home" transform="translate(-676.000000, -907.000000)">
            <g id="advantages" transform="translate(0.000000, 801.000000)">
                <g id="2" transform="translate(569.000000, 107.000000)">
                    <g id="Group-Copy" transform="translate(108.000000, 0.000000)">
                        <circle id="Oval" stroke="#FBB040" cx="43" cy="43" r="43"></circle>
                        <g id="Group-7" transform="translate(28.000000, 24.000000)" fill-rule="nonzero" fill="#FBB040">
                            <path d="M10.75,21.05 L9.95,25.7 C9.9,25.9 10,26.1 10.15,26.2 C10.3,26.3 10.5,26.35 10.7,26.25 L14.85,24.05 L19,26.25 C19.05,26.3 19.15,26.3 19.25,26.3 C19.35,26.3 19.45,26.25 19.55,26.2 C19.7,26.1 19.8,25.9 19.75,25.7 L18.95,21.05 L22.3,17.8 C22.45,17.65 22.5,17.45 22.45,17.3 C22.4,17.1 22.25,17 22.05,16.95 L17.4,16.25 L15.3,12 C15.2,11.85 15.05,11.7 14.85,11.7 C14.85,11.7 14.85,11.7 14.85,11.7 C14.65,11.7 14.5,11.8 14.4,12 L12.3,16.2 L7.65,16.85 C7.45,16.9 7.3,17 7.25,17.2 C7.2,17.4 7.25,17.6 7.4,17.7 L10.75,21.05 Z M12.75,17.15 C12.9,17.15 13.05,17 13.15,16.9 L14.9,13.35 L16.65,16.9 C16.7,17.05 16.85,17.15 17.05,17.15 L20.95,17.75 L18.05,20.5 C17.95,20.6 17.9,20.8 17.9,20.95 L18.55,24.85 L15.05,23 C15,22.95 14.9,22.95 14.8,22.95 C14.7,22.95 14.65,22.95 14.55,23 L11.05,24.85 L11.7,20.95 C11.75,20.8 11.65,20.6 11.55,20.5 L8.75,17.75 L12.75,17.15 Z" id="Shape"></path>
                            <path d="M2.75,30.4 C5.3,33.9 8.3,34.7 10.7,35.3 C12.4,35.75 13.75,36.1 14.45,37.3 C14.55,37.45 14.7,37.55 14.9,37.55 C15.1,37.55 15.25,37.45 15.35,37.3 C16,36.1 17.35,35.75 19.1,35.3 C21.5,34.65 24.5,33.85 27.05,30.4 C31.8,23.9 29.05,17.2 27.9,14.35 C26.45,10.8 29.4,6.15 29.4,6.1 C29.55,5.9 29.5,5.6 29.3,5.45 L26.15,2.75 C26,2.65 25.8,2.6 25.65,2.65 C19.05,5.4 15.5,0.85 15.35,0.65 C15.25,0.55 15.1,0.45 14.95,0.45 C14.8,0.45 14.65,0.5 14.55,0.65 C14.4,0.85 10.85,5.4 4.25,2.65 C4.1,2.6 3.9,2.6 3.75,2.75 L0.5,5.4 C0.3,5.55 0.25,5.85 0.4,6.05 C0.45,6.1 3.4,10.7 1.9,14.3 C0.75,17.15 -2,23.9 2.75,30.4 Z M1.45,5.9 L4.05,3.7 C9.95,6 13.7,2.95 14.85,1.7 C15.3,2.2 16.2,2.95 17.45,3.55 C19.2,4.4 22,5.1 25.7,3.65 L28.3,5.85 C27.6,7.1 25.5,11.2 26.9,14.65 C28.7,19.15 30.05,24.4 26.15,29.75 C23.8,32.95 21.15,33.65 18.75,34.3 C17.15,34.7 15.75,35.1 14.85,36.15 C13.95,35.1 12.55,34.7 10.95,34.3 C8.6,33.65 5.9,32.95 3.55,29.75 C-0.35,24.4 1,19.1 2.8,14.65 C4.25,11.2 2.2,7.15 1.45,5.9 Z" id="Shape"></path>
                        </g>
                    </g>
                </g>
            </g>
        </g>
    </g>
</svg>