<svg xmlns="http://www.w3.org/2000/svg" width="63" height="18" viewBox="0 0 63 18">
    <g fill="none" fill-rule="nonzero">
        <path fill="#221E22" d="M35.153 4.374l-3.075 4.124-3.044-4.1h-2.997l4.692 6.367-4.73 6.416h2.996l3.083-4.1 3.122 4.084h2.997l-4.754-6.4 4.73-6.407zM53.424 4.374v12.783h2.463v-.724V9.89c0-1.994.989-3.04 2.934-3.08h1.263V4.375c-1.608-.04-3.185-.193-4.565.98l-.063-.956-2.032-.024z"/>
        <path fill="#221E22" d="M48.835 5.885V4.398h2.126v12.767h-2.063v-1.528c-1.836 1.616-3.844 2.163-6.08 1.552-1.49-.402-2.77-1.359-3.617-2.677-1.734-2.637-1.404-6.183.808-8.41 1.922-1.986 5.586-3.023 8.826-.217zm-4.236 8.916c2.173 0 3.93-1.809 3.93-4.036 0-2.227-1.757-4.036-3.93-4.036-2.174 0-3.93 1.81-3.93 4.036 0 2.227 1.764 4.036 3.93 4.036zM19.761 14.85c-1.592-.234-3.098-1.657-3.224-3.249h10.026c-.126-.828-.165-1.567-.33-2.291-.76-3.441-3.514-5.459-6.903-5.097-3.099.337-5.437 2.974-5.515 6.263-.086 2.886 1.632 5.523 4.275 6.52 2.542.957 5.892.104 7.5-1.954l-1.443-1.809c-1.271 1.142-2.675 1.866-4.386 1.616zm.079-8.434c1.922-.105 3.656 1.254 3.867 3.079h-7.17c.016-1.528 1.585-2.999 3.303-3.08z"/>
        <path fill="#FBB040" d="M6.158 2.444A7 7 0 0 1 10.646 4.1l1.694-1.72A9.2 9.2 0 0 0 0 2.38L1.671 4.1a7 7 0 0 1 4.487-1.656z"/>
        <path fill="#FBB040" d="M6.158 6.609c.557 0 1.114.168 1.57.466L9.421 5.33C7.5 3.78 4.793 3.78 2.848 5.33L4.55 7.075a3.35 3.35 0 0 1 1.608-.466z"/>
        <path fill="#221E22" d="M8.826 8.305c.204.426.313.892.313 1.359v7.541h2.377V9.664a5.643 5.643 0 0 0-.972-3.144L8.826 8.305zM.808 9.664v7.517h2.377V9.664c0-.467.102-.933.33-1.359L1.78 6.52a5.682 5.682 0 0 0-.973 3.144z"/>
        <path fill="#FBB040" d="M6.362 8.498a1.203 1.203 0 0 0-.416 0 1.194 1.194 0 0 0-.972 1.166c0 .064 0 .104.023.169.087.506.479.932.973.996.063.025.126.025.188.025.063 0 .126 0 .189-.025.188-.04.368-.104.533-.233a1.07 1.07 0 0 0 .392-.57.564.564 0 0 0 .04-.193c0-.065.023-.105.023-.17 0-.57-.408-1.06-.973-1.165z"/>
        <g fill="#221E22">
            <path d="M61.07 17.422a1.917 1.917 0 0 1-1.923-1.922c0-1.067.856-1.923 1.923-1.923 1.066 0 1.922.856 1.922 1.923a1.927 1.927 0 0 1-1.922 1.922zm0-3.449c-.84 0-1.535.695-1.535 1.535s.695 1.534 1.535 1.534 1.534-.694 1.534-1.534c0-.84-.694-1.535-1.534-1.535z"/>
            <path d="M61.842 16.373h-.331l-.315-.517H60.71v.517h-.283v-1.712h.695c.436 0 .686.21.686.581 0 .275-.129.469-.355.558l.388.573zm-1.123-.775h.404c.266 0 .412-.113.412-.347 0-.227-.154-.332-.412-.332h-.404v.679z"/>
            <path d="M61.842 16.373h-.331l-.315-.517H60.71v.517h-.283v-1.712h.695c.436 0 .687.21.687.582 0 .274-.13.468-.356.557l.388.573zm-1.123-.775h.404c.267 0 .412-.113.412-.347 0-.226-.154-.331-.412-.331h-.404v.678z"/>
        </g>
    </g>
</svg>
