<svg xmlns="http://www.w3.org/2000/svg" width="109" height="30" viewBox="0 0 109 30">
    <g fill="none" fill-rule="nonzero">
        <path fill="#FFF" d="M60.839 7.52l-5.323 7.093-5.267-7.05h-5.187l8.12 10.949-8.188 11.032h5.187l5.335-7.05 5.404 7.022h5.187l-8.228-11.004 8.187-11.019zM92.46 7.52v21.982h4.263v-1.244-11.253c0-3.429 1.71-5.226 5.078-5.295h2.185V7.52c-2.783-.068-5.512-.331-7.901 1.687l-.109-1.645-3.516-.041z"/>
        <path fill="#FFF" d="M84.517 10.12V7.562h3.68v21.954h-3.571V26.89c-3.177 2.78-6.653 3.72-10.523 2.669-2.58-.692-4.792-2.337-6.259-4.604-3-4.535-2.43-10.631 1.399-14.46 3.326-3.416 9.667-5.2 15.274-.374zm-7.332 15.332c3.761 0 6.802-3.111 6.802-6.94 0-3.83-3.04-6.94-6.802-6.94-3.76 0-6.802 3.11-6.802 6.94 0 3.829 3.055 6.94 6.802 6.94zM34.2 25.535c-2.756-.401-5.362-2.848-5.58-5.586h17.352c-.217-1.424-.285-2.696-.57-3.94-1.317-5.917-6.083-9.387-11.948-8.765-5.363.58-9.41 5.115-9.545 10.77-.15 4.963 2.824 9.498 7.4 11.212 4.399 1.645 10.196.18 12.98-3.36l-2.499-3.11c-2.2 1.963-4.63 3.207-7.59 2.779zm.136-14.503c3.327-.18 6.327 2.157 6.694 5.295H28.62c.028-2.627 2.743-5.156 5.716-5.295z"/>
        <path fill="#FBB040" d="M10.658 4.203c2.824 0 5.58 1.023 7.766 2.848l2.933-2.959C15.233-1.355 6.11-1.355 0 4.092l2.892 2.959c2.186-1.825 4.942-2.848 7.766-2.848z"/>
        <path fill="#FBB040" d="M10.658 11.364c.964 0 1.928.29 2.715.802l2.933-3c-3.326-2.668-8.01-2.668-11.378 0l2.947 3a5.827 5.827 0 0 1 2.783-.802z"/>
        <path fill="#FFF" d="M15.274 14.281c.353.733.543 1.535.543 2.337v12.967h4.114V16.618a9.66 9.66 0 0 0-1.683-5.406l-2.974 3.07zM1.398 16.618v12.926h4.114V16.618c0-.802.177-1.604.57-2.337l-3-3.069c-1.073 1.604-1.684 3.47-1.684 5.406z"/>
        <path fill="#FBB040" d="M11.011 14.613a2.096 2.096 0 0 0-.72 0 2.057 2.057 0 0 0-1.683 2.005c0 .11 0 .18.04.29.15.87.829 1.604 1.684 1.714a.882.882 0 0 0 .326.042c.109 0 .217 0 .326-.042.326-.069.638-.18.923-.4.326-.25.57-.581.679-.982a.965.965 0 0 0 .068-.332c0-.11.04-.18.04-.29 0-.982-.705-1.825-1.683-2.005z"/>
        <g fill="#FFF">
            <path d="M105.515 29.956a3.46 3.46 0 0 1-3.471-3.47 3.46 3.46 0 0 1 3.47-3.471 3.46 3.46 0 0 1 3.471 3.47 3.48 3.48 0 0 1-3.47 3.471zm0-6.227a2.788 2.788 0 0 0-2.771 2.771 2.788 2.788 0 0 0 2.77 2.77 2.788 2.788 0 0 0 2.771-2.77 2.788 2.788 0 0 0-2.77-2.77z"/>
            <path d="M106.909 28.063h-.598l-.569-.933h-.875v.933h-.51V24.97h1.254c.787 0 1.24.38 1.24 1.05 0 .496-.234.846-.642 1.006l.7 1.036zm-2.027-1.4h.729c.481 0 .744-.204.744-.627 0-.409-.277-.598-.744-.598h-.73v1.225z"/>
            <path d="M106.909 28.063h-.598l-.569-.933h-.875v.933h-.51v-3.092h1.254c.788 0 1.24.38 1.24 1.05 0 .496-.234.846-.642 1.007l.7 1.035zm-2.027-1.4h.729c.481 0 .744-.204.744-.627 0-.408-.277-.598-.744-.598h-.73v1.225z"/>
        </g>
    </g>
</svg>
