<?xml version="1.0" encoding="UTF-8" standalone="no"?>
<svg
   xmlns:dc="http://purl.org/dc/elements/1.1/"
   xmlns:cc="http://creativecommons.org/ns#"
   xmlns:rdf="http://www.w3.org/1999/02/22-rdf-syntax-ns#"
   xmlns:svg="http://www.w3.org/2000/svg"
   xmlns="http://www.w3.org/2000/svg"
   viewBox="0 0 399.81332 112.8"
   height="112.8"
   width="399.81332"
   xml:space="preserve"
   id="svg2"
   version="1.1"><metadata
     id="metadata8"><rdf:RDF><cc:Work
         rdf:about=""><dc:format>image/svg+xml</dc:format><dc:type
           rdf:resource="http://purl.org/dc/dcmitype/StillImage" /></cc:Work></rdf:RDF></metadata><defs
     id="defs6" /><g
     transform="matrix(1.3333333,0,0,-1.3333333,0,112.8)"
     id="g10"><g
       transform="scale(0.1)"
       id="g12"><path
         id="path14"
         style="fill:#211c1d;fill-opacity:1;fill-rule:nonzero;stroke:none"
         d="m 1754.49,633.742 c -50.92,-66.363 -101.71,-132.547 -153.89,-200.547 -52.89,69.567 -102.56,134.883 -151.42,199.153 -49.39,0 -97.35,0 -149.45,0 79.58,-105.332 156.42,-207.047 234.13,-309.922 -78.58,-103.535 -156,-205.524 -236.26,-311.2697 54.04,0 101.49,0 149.2,0 50.96,65.9101 101.46,131.2347 153.89,199.0467 54.31,-69.152 105.54,-134.3749 155.84,-198.4257 49.35,0 96.57,0 149.25,0 -80.68,105.7107 -158.5,207.6757 -237.06,310.6177 78.44,103.375 155.79,205.304 236.26,311.347 -53.69,0 -100.21,0 -150.49,0" /><path
         id="path16"
         style="fill:#211c1d;fill-opacity:1;fill-rule:nonzero;stroke:none"
         d="m 2666.25,633.313 c 0,-206.375 0,-413.29 0,-621.5278 40.39,0 80.24,0 122.79,0 0,12.9023 0,24.1211 0,35.3398 0,106 -0.02,211.996 0.01,317.996 0.03,96.766 49.75,147.426 147.02,149.563 20.45,0.449 40.92,0.066 62.56,0.066 0,41.699 0,79.488 0,119.098 -80.23,1.929 -159.2,9.679 -228.52,-47.012 -1.42,18.891 -2.4,32.043 -3.49,46.477 -33.81,0 -65.75,0 -100.37,0" /><path
         id="path18"
         style="fill:#211c1d;fill-opacity:1;fill-rule:nonzero;stroke:none"
         d="m 2225.55,127.547 c 109.01,-0.442 196.22,86.141 196.6,195.191 0.38,107.938 -88.43,196.84 -196.19,196.41 -106.66,-0.425 -194.33,-87.707 -195.3,-194.449 -0.99,-108.492 86.22,-196.707 194.89,-197.152 z m 212.43,432.906 c 0,26.871 0,48.324 0,72.086 36.29,0 70.1,0 106.49,0 0,-205.441 0,-411.656 0,-620.2148 -33.23,0 -66.83,0 -103.54,0 0,22.3946 0,44.6719 0,74.7422 -92.19,-78.59765 -191.68,-105.1328 -302.85,-74.8984 -76.01,20.6679 -136.35,65.1484 -180.84,130.223 -87.22,127.605 -69.73,299.589 40.04,408.793 95.24,94.746 278.17,145.574 440.7,9.269" /><path
         id="path20"
         style="fill:#211c1d;fill-opacity:1;fill-rule:nonzero;stroke:none"
         d="m 989.883,534.43 c 96.367,5.179 182.517,-61.008 192.697,-149.719 -121.09,0 -239.182,0 -357.279,0 0.875,74.644 79.113,145.125 164.582,149.719 z m -4.082,-409.969 c -79.649,11.109 -154.953,80.715 -160.961,158.332 164.969,0 329.7,0 500.37,0 -5.76,39.957 -8.44,76.086 -16.42,111.004 C 1270.54,561.105 1133.22,659.289 964.211,641.773 808.969,625.688 692.934,497.32 689.199,337.535 685.883,195.699 771.496,68.4727 902.805,20.1172 c 126.935,-46.7461 293.925,-4.8281 374.855,95.4138 -23.44,28.418 -47.16,57.172 -72.56,87.969 -63.38,-55.441 -133.68,-90.977 -219.299,-79.039" /><path
         id="path22"
         style="fill:#f9a72c;fill-opacity:1;fill-rule:nonzero;stroke:none"
         d="m 307.66,727.324 c 84.895,0 162.832,-30.332 223.578,-80.707 l 84.082,84.082 C 532.855,802.438 425.285,846.02 307.66,846.02 190.035,846.02 82.4648,802.438 0,730.703 l 84.082,-84.082 c 60.746,50.371 138.684,80.703 223.578,80.703" /><path
         id="path24"
         style="fill:#f9a72c;fill-opacity:1;fill-rule:nonzero;stroke:none"
         d="m 307.66,524.672 c 28.953,0 55.91,-8.469 78.766,-22.863 l 85,85 c -45.281,35.304 -102.031,56.554 -163.766,56.554 -61.734,0 -118.484,-21.25 -163.765,-56.558 l 85,-84.996 c 22.859,14.394 49.812,22.863 78.765,22.863" /><path
         id="path26"
         style="fill:#211c1d;fill-opacity:1;fill-rule:nonzero;stroke:none"
         d="m 440.242,442.531 c 10.02,-19.968 15.797,-42.414 15.797,-66.234 V 10.4531 H 574.73 V 376.297 c 0,56.719 -17.902,109.258 -48.167,152.551 l -86.321,-86.317" /><path
         id="path28"
         style="fill:#211c1d;fill-opacity:1;fill-rule:nonzero;stroke:none"
         d="M 40.5938,376.297 V 11.1563 H 159.285 V 376.297 c 0,23.816 5.781,46.262 15.797,66.23 L 88.7617,528.848 C 58.4961,485.551 40.5938,433.016 40.5938,376.297" /><path
         id="path30"
         style="fill:#f9a72c;fill-opacity:1;fill-rule:nonzero;stroke:none"
         d="m 318.066,433.449 c -3.386,0.602 -6.839,1.043 -10.402,1.043 -3.566,0 -7.019,-0.441 -10.41,-1.043 -27.457,-4.883 -48.332,-28.543 -48.332,-57.148 0,-2.903 0.445,-5.684 0.859,-8.477 3.735,-25.129 23.516,-44.898 48.813,-48.812 2.976,-0.457 5.965,-0.903 9.07,-0.903 3.051,0 6.012,0.313 8.922,0.762 9.937,1.567 19.023,5.606 26.684,11.438 9.261,7.046 16.238,16.707 19.96,27.945 1.032,3.117 1.817,6.344 2.375,9.641 0.465,2.742 0.797,5.527 0.797,8.406 0,28.605 -20.875,52.269 -48.336,57.148" /></g></g></svg>