<?xml version="1.0" encoding="UTF-8"?>
<svg width="36px" height="36px" viewBox="0 0 36 36" version="1.1" xmlns="http://www.w3.org/2000/svg" xmlns:xlink="http://www.w3.org/1999/xlink">
    <!-- Generator: Sketch 46.1 (44463) - http://www.bohemiancoding.com/sketch -->
    <title>Shape</title>
    <desc>Created with Sketch.</desc>
    <defs></defs>
    <g id="Home-page" stroke="none" stroke-width="1" fill="none" fill-rule="evenodd">
        <g id="Nexar-Home" transform="translate(-529.000000, -5735.000000)" fill-rule="nonzero" fill="#867F92">
            <g id="testimonials-copy" transform="translate(0.000000, 5557.000000)">
                <g id="Alishev-Alimov" transform="translate(486.000000, 124.000000)">
                    <g id="text-block">
                        <path d="M56.4888889,73.8607656 L56.4888889,89.1 L43.5,89.1 L43.5,77.0425837 C43.5,70.5114833 44.2,65.822488 45.6777778,62.891866 C47.5444444,59.0401914 50.5777778,56.1095694 54.6222222,54.1 L57.5777778,59.2076555 C55.0888889,60.2961722 53.3,61.9708134 52.1333333,64.2315789 C50.9666667,66.4086124 50.3444444,69.6741627 50.1888889,73.8607656 L56.4888889,73.8607656 Z M77.4111111,73.8607656 L77.4111111,89.1 L64.4222222,89.1 L64.4222222,77.0425837 C64.4222222,70.5114833 65.1222222,65.822488 66.6,62.891866 C68.4666667,59.0401914 71.5,56.1095694 75.5444444,54.1 L78.5,59.2076555 C76.0111111,60.2961722 74.2222222,61.9708134 73.0555556,64.2315789 C71.8888889,66.4086124 71.2666667,69.6741627 71.1111111,73.8607656 L77.4111111,73.8607656 Z" id="Shape"></path>
                    </g>
                </g>
            </g>
        </g>
    </g>
</svg>