<?xml version="1.0" encoding="UTF-8"?>
<svg width="105px" height="101px" viewBox="0 0 105 101" version="1.1" xmlns="http://www.w3.org/2000/svg" xmlns:xlink="http://www.w3.org/1999/xlink">
    <!-- Generator: Sketch 45.2 (43514) - http://www.bohemiancoding.com/sketch -->
    <title>Shape</title>
    <desc>Created with Sketch.</desc>
    <defs></defs>
    <g id="Desktop" stroke="none" stroke-width="1" fill="none" fill-rule="evenodd">
        <g id="Challenge-2" transform="translate(-298.000000, -4762.000000)" fill-rule="nonzero" fill="#FFFFFF">
            <g id="Group-9" transform="translate(265.000000, 4700.000000)">
                <g id="Group-8">
                    <g id="Group-21">
                        <g id="Group-18">
                            <g id="Group-22">
                                <g id="Group-19">
                                    <path d="M117.258935,71.7597222 C117.584259,68.5064815 117.584259,65.5785648 117.584259,62 L85.0518517,62 L52.5194444,62 C52.5194444,65.5785648 52.5194444,68.5064815 52.8447685,71.7597222 L33,71.7597222 L33,75.0129629 C33,103.966805 69.7616202,124.462222 78.5453702,129.016759 L78.5453702,140.077778 C78.5453702,145.608287 74.3161573,149.8375 68.785648,149.8375 L62.2791666,149.8375 L62.2791666,162.850463 L107.824537,162.850463 L107.824537,149.8375 L101.318055,149.8375 C95.7875461,149.8375 91.5583331,145.608287 91.5583331,140.077778 L91.5583331,129.016759 C100.342083,124.462222 137.103703,103.966805 137.103703,75.0129629 L137.103703,71.7597222 L117.258935,71.7597222 Z M39.8318055,78.2662036 L53.4954166,78.2662036 C54.7967129,92.9057869 58.3752777,103.316157 62.2791666,110.798611 C51.8687962,102.665509 41.1331018,91.2791666 39.8318055,78.2662036 Z M108.149861,110.798611 C112.05375,103.316157 115.632315,92.9057869 116.933611,78.2662036 L130.597222,78.2662036 C128.970602,91.2791666 118.234907,102.665509 108.149861,110.798611 Z" id="Shape"></path>
                                </g>
                            </g>
                        </g>
                    </g>
                </g>
            </g>
        </g>
    </g>
</svg>