<svg xmlns="http://www.w3.org/2000/svg" width="24" height="24" viewBox="0 0 24 24">
    <g fill="none" fill-rule="nonzero">
        <path fill="#DFA22F" d="M15.323 1.462a2.104 2.104 0 1 0-4.004 1.301l5.443 16.744a2.105 2.105 0 0 0 2.56 1.305c1.117-.321 1.798-1.508 1.441-2.605l-5.44-16.745"/>
        <path fill="#3CB187" d="M6.89 4.202a2.105 2.105 0 0 0-4.004 1.301L8.33 22.248a2.104 2.104 0 0 0 2.56 1.304c1.117-.321 1.798-1.507 1.442-2.605L6.89 4.202"/>
        <path fill="#CE1E5B" d="M22.173 15.33a2.105 2.105 0 1 0-1.3-4.003L4.127 16.769a2.104 2.104 0 0 0-1.305 2.56c.321 1.117 1.508 1.798 2.605 1.442l16.745-5.44"/>
        <path fill="#392538" d="M7.618 20.06l4.002-1.3-1.301-4.003-4.002 1.3 1.3 4.002"/>
        <path fill="#BB242A" d="M16.05 17.32l4.002-1.301-1.3-4.003-4.002 1.3 1.3 4.003"/>
        <path fill="#72C5CD" d="M19.433 6.897a2.105 2.105 0 0 0-1.301-4.003L1.387 8.336a2.104 2.104 0 0 0-1.304 2.56c.321 1.117 1.508 1.798 2.605 1.442l16.745-5.44"/>
        <path fill="#248C73" d="M4.877 11.627l4.002-1.3-1.3-4.003-4.003 1.3 1.3 4.003"/>
        <path fill="#62803A" d="M13.31 8.887l4.002-1.3-1.3-4.004-4.003 1.301 1.3 4.003"/>
    </g>
</svg>
