<?xml version="1.0" encoding="UTF-8"?>
<svg width="15px" height="22px" viewBox="0 0 15 22" version="1.1" xmlns="http://www.w3.org/2000/svg" xmlns:xlink="http://www.w3.org/1999/xlink">
    <!-- Generator: Sketch 45.2 (43514) - http://www.bohemiancoding.com/sketch -->
    <title></title>
    <desc>Created with Sketch.</desc>
    <defs></defs>
    <g id="Page-1" stroke="none" stroke-width="1" fill="none" fill-rule="evenodd">
        <g id="Press-Kit" transform="translate(-637.000000, -2976.000000)" fill="#FFFFFF">
            <g id="assets" transform="translate(467.000000, 2853.000000)">
                <g id="social-icons" transform="translate(0.315728, 105.334805)">
                    <g id="app" transform="translate(121.000000, 0.000000)">
                        <path d="M61.0605469,17.6875 C61.6139351,17.6875 62.0859355,17.8828105 62.4765625,18.2734375 C62.8671895,18.6640645 63.0625,19.1360649 63.0625,19.6894531 L63.0625,37.5605469 C63.0625,38.1139351 62.8671895,38.5859355 62.4765625,38.9765625 C62.0859355,39.3671895 61.6139351,39.5625 61.0605469,39.5625 L51.0019531,39.5625 C50.4485649,39.5625 49.9765645,39.3671895 49.5859375,38.9765625 C49.1953105,38.5859355 49,38.1139351 49,37.5605469 L49,19.6894531 C49,19.1360649 49.1953105,18.6640645 49.5859375,18.2734375 C49.9765645,17.8828105 50.4485649,17.6875 51.0019531,17.6875 L61.0605469,17.6875 Z M61.3046875,35.65625 L61.3046875,21.59375 L50.7578125,21.59375 L50.7578125,35.65625 L61.3046875,35.65625 Z" id=""></path>
                    </g>
                </g>
            </g>
        </g>
    </g>
</svg>