<?xml version="1.0" encoding="UTF-8"?>
<svg width="18px" height="25px" viewBox="0 0 18 25" version="1.1" xmlns="http://www.w3.org/2000/svg" xmlns:xlink="http://www.w3.org/1999/xlink">
    <!-- Generator: Sketch 45.2 (43514) - http://www.bohemiancoding.com/sketch -->
    <title>Group 5</title>
    <desc>Created with Sketch.</desc>
    <defs></defs>
    <g id="Page-1" stroke="none" stroke-width="1" fill="none" fill-rule="evenodd">
        <g id="Press-Kit" transform="translate(-487.000000, -2973.000000)" fill="#FFFFFF">
            <g id="assets" transform="translate(467.000000, 2853.000000)">
                <g id="social-icons" transform="translate(0.315728, 105.334805)">
                    <g id="logos" transform="translate(-0.000000, 0.000000)">
                        <g id="Group-5" transform="translate(19.000000, 15.000000)">
                            <path d="M13.311379,12.1360821 C13.6091627,12.7207758 13.7646163,13.3665101 13.7652752,14.0215095 L13.7652752,24.4397775 L17.1752425,24.4397775 L17.1752425,14.0215095 C17.1757353,12.4660497 16.6921901,10.9483116 15.7905717,9.67534301 L13.311379,12.1360821 L13.311379,12.1360821 Z" id="Combined-Shape-path"></path>
                            <path d="M1.82895329,14.0215095 L1.82895329,24.419841 L5.23892058,24.419841 L5.23892058,14.0215095 C5.2395795,13.3665101 5.39503305,12.7207758 5.69281682,12.1360821 L3.21362408,9.67819108 C2.31256917,10.9503643 1.82905149,12.4670217 1.82895329,14.0215095 L1.82895329,14.0215095 Z" id="Combined-Shape-path"></path>
                            <path d="M9.49922512,4.02475695 C11.8456243,4.02254343 14.1185718,4.83582974 15.9227187,6.32315561 L18.3387107,3.92792231 C13.2742324,-0.450455253 5.72709061,-0.450455253 0.662612327,3.92792231 L3.07860432,6.32315561 C4.88199258,4.83645623 7.15381273,4.02320959 9.49922512,4.02475695 L9.49922512,4.02475695 L9.49922512,4.02475695 Z" id="Shape"></path>
                            <path d="M9.49922512,9.79496227 C10.3008851,9.79538985 11.0859309,10.0215711 11.7629608,10.447172 L14.2048076,8.02630605 C11.4425767,5.87928961 7.55874629,5.87928961 4.79651539,8.02630605 L7.23836223,10.447172 C7.91456681,10.0220888 8.69854225,9.79592896 9.49922512,9.79496227 L9.49922512,9.79496227 L9.49922512,9.79496227 Z" id="Shape"></path>
                            <path d="M9.78650122,12.3924091 C9.58930873,12.352977 9.38615943,12.352977 9.18896694,12.3924091 C8.3904694,12.5302248 7.80609641,13.2151315 7.80142338,14.0186614 C7.80393957,14.0998833 7.81258199,14.1808047 7.82727823,14.260748 C7.93722646,14.978375 8.50533917,15.5416064 9.22918559,15.6506099 C9.31552749,15.6658349 9.40292946,15.6744048 9.49060684,15.6762426 C9.57629745,15.6752002 9.66177809,15.6675826 9.74628257,15.653458 C10.0251775,15.6100255 10.2887795,15.4984434 10.5133098,15.3287771 C10.7814442,15.1275757 10.9817681,14.850525 11.0878619,14.5341635 C11.1183375,14.4411657 11.1413907,14.3459364 11.1568082,14.2493557 C11.1712547,14.170394 11.1789427,14.0903629 11.1797903,14.0101172 C11.1704767,13.2080137 10.5841059,12.5271953 9.78650122,12.3924091 L9.78650122,12.3924091 L9.78650122,12.3924091 Z" id="Shape"></path>
                        </g>
                    </g>
                </g>
            </g>
        </g>
    </g>
</svg>