<?xml version="1.0" encoding="UTF-8"?>
<svg width="24px" height="20px" viewBox="0 0 24 20" version="1.1" xmlns="http://www.w3.org/2000/svg" xmlns:xlink="http://www.w3.org/1999/xlink">
    <!-- Generator: Sketch 45.2 (43514) - http://www.bohemiancoding.com/sketch -->
    <title></title>
    <desc>Created with Sketch.</desc>
    <defs></defs>
    <g id="Page-1" stroke="none" stroke-width="1" fill="none" fill-rule="evenodd">
        <g id="Press-Kit" transform="translate(-782.000000, -1109.000000)" fill="#FFFFFF">
            <g id="social" transform="translate(466.000000, 994.000000)">
                <g id="social-icons" transform="translate(0.315728, 95.334805)">
                    <g id="twitter" transform="translate(297.000000, 0.000000)">
                        <path d="M42.046875,22.4960938 C41.4609346,23.4075566 40.6796924,24.2213506 39.703125,24.9375 L39.703125,25.5234375 C39.703125,28.9414233 38.4742961,32.0419783 36.0166016,34.8251953 C33.558907,37.6084124 30.2955933,39 26.2265625,39 C23.6223828,39 21.2135527,38.2838613 19,36.8515625 C19.5208359,36.916667 19.8951812,36.9492188 20.1230469,36.9492188 C22.3040474,36.9492188 24.2571528,36.2656318 25.9824219,34.8984375 C24.9733022,34.8658853 24.061853,34.5485056 23.2480469,33.9462891 C22.4342407,33.3440725 21.8808608,32.5709683 21.5878906,31.6269531 C21.9785176,31.6920576 22.2714834,31.7246094 22.4667969,31.7246094 C22.7923193,31.7246094 23.2154922,31.6595059 23.7363281,31.5292969 C22.662104,31.3014312 21.7587927,30.7561892 21.0263672,29.8935547 C20.2939417,29.0309202 19.9277344,28.0299536 19.9277344,26.890625 L19.9277344,26.8417969 C20.6438838,27.2324238 21.3600225,27.4277344 22.0761719,27.4277344 C20.6764253,26.5162715 19.9765625,25.1979253 19.9765625,23.4726562 C19.9765625,22.6588501 20.1881489,21.8776079 20.6113281,21.1289062 C23.1178511,24.2213696 26.356751,25.8652334 30.328125,26.0605469 C30.2630205,25.8326812 30.2304688,25.4746118 30.2304688,24.9863281 C30.2304688,23.651686 30.6861934,22.5286504 31.5976562,21.6171875 C32.5091191,20.7057246 33.6321548,20.25 34.9667969,20.25 C36.301439,20.25 37.4407505,20.7545522 38.3847656,21.7636719 C39.361333,21.6009106 40.3704375,21.2102896 41.4121094,20.5917969 C41.0865869,21.7311255 40.3867241,22.6100229 39.3125,23.2285156 C40.3216196,23.1308589 41.2330688,22.8867207 42.046875,22.4960938 Z" id=""></path>
                    </g>
                </g>
            </g>
        </g>
    </g>
</svg>