<?xml version="1.0" encoding="UTF-8"?>
<svg width="26px" height="20px" viewBox="0 0 26 20" version="1.1" xmlns="http://www.w3.org/2000/svg" xmlns:xlink="http://www.w3.org/1999/xlink">
    <!-- Generator: Sketch 45.2 (43514) - http://www.bohemiancoding.com/sketch -->
    <title></title>
    <desc>Created with Sketch.</desc>
    <defs></defs>
    <g id="Page-1" stroke="none" stroke-width="1" fill="none" fill-rule="evenodd">
        <g id="Press-Kit" transform="translate(-484.000000, -1108.000000)" fill="#FFFFFF">
            <g id="social" transform="translate(466.000000, 994.000000)">
                <g id="social-icons" transform="translate(0.315728, 95.334805)">
                    <g id="youtube" transform="translate(-0.000000, 0.000000)">
                        <path d="M42.8535156,23.4003906 C42.9511724,25.1582119 43,26.899731 43,28.625 C43,30.350269 42.9511724,32.0917881 42.8535156,33.8496094 C42.8535156,34.9563857 42.5035842,35.8922488 41.8037109,36.6572266 C41.1038376,37.4222043 40.249354,37.8046875 39.2402344,37.8046875 C36.7337114,37.9348965 33.8203291,38 30.5,38 C27.1796709,38 24.2662886,37.9348965 21.7597656,37.8046875 C20.750646,37.8046875 19.8961624,37.4222043 19.1962891,36.6572266 C18.4964158,35.8922488 18.1464844,34.9563857 18.1464844,33.8496094 C18.0488276,32.0917881 18,30.350269 18,28.625 C18,27.4856714 18.0651035,25.7441523 18.1953125,23.4003906 C18.1953125,22.2936143 18.537106,21.3577512 19.2207031,20.5927734 C19.9043003,19.8277957 20.750646,19.4453125 21.7597656,19.4453125 C24.1360796,19.3151035 26.902979,19.25 30.0605469,19.25 L30.9394531,19.25 C34.097021,19.25 36.8639204,19.3151035 39.2402344,19.4453125 C40.249354,19.4453125 41.1038376,19.8277957 41.8037109,20.5927734 C42.5035842,21.3577512 42.8535156,22.2936143 42.8535156,23.4003906 Z M28.1074219,33.4101562 L35.1875,28.625 L28.1074219,23.7910156 L28.1074219,33.4101562 Z" id=""></path>
                    </g>
                </g>
            </g>
        </g>
    </g>
</svg>