<?xml version="1.0" encoding="UTF-8"?>
<svg width="25px" height="16px" viewBox="0 0 25 16" version="1.1" xmlns="http://www.w3.org/2000/svg" xmlns:xlink="http://www.w3.org/1999/xlink">
    <!-- Generator: Sketch 45.2 (43514) - http://www.bohemiancoding.com/sketch -->
    <title></title>
    <desc>Created with Sketch.</desc>
    <defs></defs>
    <g id="Design" stroke="none" stroke-width="1" fill="none" fill-rule="evenodd">
        <g id="Fleets-new" transform="translate(-525.000000, -4447.000000)" fill="#FBB040">
            <g id="let's-go" transform="translate(-42.000000, 4265.000000)">
                <g id="Group-7" transform="translate(329.000000, 98.000000)">
                    <path d="M255.65625,99.34375 C255.343748,99.0312484 255.343748,98.7187516 255.65625,98.40625 L260.890625,92.625 L238.625,92.625 C238.208331,92.625 238,92.4166687 238,92 C238,91.5833313 238.208331,91.375 238.625,91.375 L260.890625,91.375 L255.65625,85.59375 C255.343748,85.2812484 255.343748,84.9687516 255.65625,84.65625 C255.968752,84.3437484 256.281248,84.3437484 256.59375,84.65625 C260.708354,89.1875227 262.791666,91.4791664 262.84375,91.53125 C262.947917,91.6354172 263,91.7916656 263,92 C263,92.2083344 262.947917,92.3645828 262.84375,92.46875 L256.59375,99.34375 C256.489583,99.4479172 256.333334,99.5 256.125,99.5 C255.916666,99.5 255.760417,99.4479172 255.65625,99.34375 Z" id=""></path>
                </g>
            </g>
        </g>
    </g>
</svg>