<svg xmlns="http://www.w3.org/2000/svg" width="204" height="74" viewBox="0 0 204 74">
    <path fill="#FFF" fill-rule="evenodd" d="M.04.237h203.92v73.526H.04V.237zm76.066 47l-4.38-6.87c2.43-1.26 3.75-3.6 3.75-6.78 0-4.68-3.18-7.38-8.76-7.38h-9.45v21.03h5.49v-5.82h4.08l3.06 5.82h6.21zm-13.35-16.65h3.99c2.22 0 3.51 1.11 3.51 3.18 0 2.13-1.29 3.27-3.51 3.27h-3.99v-6.45zm26.75-4.53c-6.51 0-11.37 4.53-11.37 10.65 0 6.15 4.86 10.77 11.37 10.77 6.51 0 11.37-4.62 11.37-10.77 0-6.09-4.86-10.65-11.37-10.65zm.06 4.68c3.15 0 5.67 2.58 5.67 6s-2.52 6.06-5.67 6.06c-3.12 0-5.79-2.64-5.79-6.06 0-3.42 2.64-6 5.79-6zm29.42 16.5h5.85l-8.82-21.03h-5.64l-9.03 21.03h5.64l1.47-3.72h9.09l1.44 3.72zm-8.88-7.92l2.94-7.5 2.88 7.5h-5.82zm26.18-13.11h-9.06v21.03h8.85c6.81 0 11.4-4.26 11.4-10.53 0-6.24-4.53-10.5-11.19-10.5zm.15 16.59h-3.72v-12.12h3.45c3.33 0 5.7 2.46 5.7 6.09 0 3.6-2.25 6.03-5.43 6.03z" opacity=".8"/>
</svg>
