<svg xmlns="http://www.w3.org/2000/svg" width="205" height="74" viewBox="0 0 205 74">
    <path fill="#FFF" fill-rule="evenodd" d="M.986.237h203.922v73.526H.986V.237zm50.741 25.97l8.16 21.03h5.7l8.22-21.03h-5.64l-5.28 15.21-5.25-15.21h-5.91zm24.56 0v21.03h5.49v-21.03h-5.49zm19.13 0h-9.06v21.03h8.85c6.81 0 11.4-4.26 11.4-10.53 0-6.24-4.53-10.5-11.19-10.5zm.15 16.59h-3.72v-12.12h3.45c3.33 0 5.7 2.46 5.7 6.09 0 3.6-2.25 6.03-5.43 6.03zm14.27-16.59v21.03h16.89v-4.38h-11.4v-3.96l10.02-.03v-4.35h-10.02v-3.93h11.1v-4.38h-16.59zm30.77-.15c-6.51 0-11.37 4.53-11.37 10.65 0 6.15 4.86 10.77 11.37 10.77 6.51 0 11.37-4.62 11.37-10.77 0-6.09-4.86-10.65-11.37-10.65zm.06 4.68c3.15 0 5.67 2.58 5.67 6s-2.52 6.06-5.67 6.06c-3.12 0-5.79-2.64-5.79-6.06 0-3.42 2.64-6 5.79-6z" opacity=".8"/>
</svg>
